<?xml version="1.0" standalone="yes"?>

<svg version="1.1" viewBox="0.0 0.0 960.0 720.0" fill="none" stroke="none" stroke-linecap="square" stroke-miterlimit="10" xmlns="http://www.w3.org/2000/svg" xmlns:xlink="http://www.w3.org/1999/xlink"><clipPath id="p.0"><path d="m0 0l960.0 0l0 720.0l-960.0 0l0 -720.0z" clip-rule="nonzero"></path></clipPath><g clip-path="url(#p.0)"><path fill="#000000" fill-opacity="0.0" d="m0 0l960.0 0l0 720.0l-960.0 0z" fill-rule="nonzero"></path><path fill="#ffffff" d="m255.84465 236.14561l326.45667 0l0 371.49603l-326.45667 0z" fill-rule="nonzero"></path><path stroke="#980000" stroke-width="3.0" stroke-linejoin="round" stroke-linecap="butt" stroke-dasharray="12.0,9.0" d="m255.84465 236.14561l326.45667 0l0 371.49603l-326.45667 0z" fill-rule="nonzero"></path><path fill="#000000" d="m385.93628 317.43365l-3.625 0l0 -14.109375l-4.296875 0l0 -3.03125l12.203125 0l0 3.03125l-4.28125 0l0 14.109375zm16.703125 0l-1.171875 -4.078125l-5.90625 0l-1.1875 4.078125l-3.671875 0l5.5625 -17.203125l4.453125 0l5.578125 17.203125l-3.65625 0zm-2.015625 -7.125l-1.109375 -3.75q-0.0625 -0.21875 -0.203125 -0.6875q-0.140625 -0.484375 -0.3125 -1.0625q-0.15625 -0.578125 -0.296875 -1.15625q-0.140625 -0.59375 -0.1875 -1.015625q-0.046875 0.265625 -0.125 0.625q-0.078125 0.34375 -0.1875 0.734375q-0.09375 0.390625 -0.203125 0.796875q-0.09375 0.390625 -0.1875 0.75q-0.09375 0.34375 -0.171875 0.625q-0.078125 0.265625 -0.109375 0.390625l-1.09375 3.75l4.1875 0zm22.300781 7.125l-4.59375 0l-6.75 -12.96875l-0.09375 0q0.0625 0.90625 0.109375 1.796875q0.046875 0.765625 0.078125 1.609375q0.03125 0.828125 0.03125 1.5l0 8.0625l-3.25 0l0 -17.140625l4.578125 0l6.734375 12.84375l0.0625 0q-0.03125 -0.890625 -0.078125 -1.765625q-0.015625 -0.375 -0.03125 -0.765625q-0.015625 -0.390625 -0.03125 -0.78125q0 -0.390625 -0.015625 -0.75q0 -0.375 0 -0.671875l0 -8.109375l3.25 0l0 17.140625zm10.828125 -9.625l6.796875 0l0 8.890625q-0.671875 0.21875 -1.375 0.40625q-0.6875 0.171875 -1.4375 0.296875q-0.734375 0.125 -1.546875 0.1875q-0.8125 0.078125 -1.734375 0.078125q-1.921875 0 -3.40625 -0.5625q-1.46875 -0.578125 -2.484375 -1.6875q-1.015625 -1.125 -1.546875 -2.765625q-0.53125 -1.65625 -0.53125 -3.8125q0 -2.015625 0.578125 -3.640625q0.59375 -1.625 1.734375 -2.765625q1.15625 -1.15625 2.8125 -1.765625q1.671875 -0.609375 3.828125 -0.609375q1.375 0 2.6875 0.296875q1.3125 0.28125 2.40625 0.75l-1.203125 2.90625q-0.796875 -0.390625 -1.8125 -0.65625q-1.0 -0.28125 -2.09375 -0.28125q-1.203125 0 -2.15625 0.421875q-0.953125 0.40625 -1.640625 1.171875q-0.671875 0.765625 -1.03125 1.84375q-0.359375 1.078125 -0.359375 2.40625q0 1.265625 0.25 2.3125q0.25 1.046875 0.78125 1.8125q0.546875 0.75 1.390625 1.171875q0.859375 0.421875 2.03125 0.421875q0.78125 0 1.3125 -0.0625q0.53125 -0.078125 1.0 -0.171875l0 -3.5625l-3.25 0l0 -3.03125zm25.488281 1.03125q0 1.984375 -0.46875 3.609375q-0.46875 1.625 -1.421875 2.796875q-0.9375 1.15625 -2.390625 1.796875q-1.4375 0.625 -3.40625 0.625q-1.96875 0 -3.421875 -0.625q-1.453125 -0.640625 -2.390625 -1.796875q-0.9375 -1.171875 -1.40625 -2.796875q-0.46875 -1.640625 -0.46875 -3.625q0 -2.0 0.46875 -3.625q0.46875 -1.625 1.40625 -2.765625q0.953125 -1.15625 2.390625 -1.78125q1.453125 -0.625 3.4375 -0.625q1.96875 0 3.40625 0.625q1.453125 0.625 2.390625 1.78125q0.9375 1.15625 1.40625 2.78125q0.46875 1.625 0.46875 3.625zm-11.625 0q0 1.34375 0.234375 2.421875q0.234375 1.078125 0.71875 1.828125q0.484375 0.734375 1.21875 1.140625q0.734375 0.390625 1.765625 0.390625q1.03125 0 1.78125 -0.390625q0.75 -0.40625 1.21875 -1.140625q0.46875 -0.75 0.703125 -1.828125q0.234375 -1.078125 0.234375 -2.421875q0 -1.34375 -0.234375 -2.40625q-0.234375 -1.078125 -0.703125 -1.828125q-0.46875 -0.75 -1.21875 -1.140625q-0.734375 -0.40625 -1.765625 -0.40625q-1.015625 0 -1.765625 0.40625q-0.75 0.390625 -1.234375 1.140625q-0.484375 0.75 -0.71875 1.828125q-0.234375 1.0625 -0.234375 2.40625z" fill-rule="nonzero"></path><path fill="#000000" fill-opacity="0.0" d="m70.10468 348.0452l216.31497 0.56692505" fill-rule="nonzero"></path><path stroke="#000000" stroke-width="2.0" stroke-linejoin="round" stroke-linecap="butt" d="m70.10468 348.0452l204.315 0.5354614" fill-rule="evenodd"></path><path fill="#000000" stroke="#000000" stroke-width="2.0" stroke-linecap="butt" d="m274.411 351.88412l9.084839 -3.279663l-9.067505 -3.32724z" fill-rule="evenodd"></path><path fill="#000000" fill-opacity="0.0" d="m78.198456 302.1246l129.48032 0l0 50.204712l-129.48032 0z" fill-rule="nonzero"></path><path fill="#000000" d="m87.71408 330.32834q-0.375 0 -0.625 -0.0625q-0.25 -0.046875 -0.421875 -0.125l0 -1.15625q0.203125 0.078125 0.421875 0.109375q0.203125 0.046875 0.484375 0.046875q0.203125 0 0.375 -0.0625q0.1875 -0.046875 0.328125 -0.203125q0.140625 -0.15625 0.203125 -0.40625q0.078125 -0.25 0.078125 -0.65625l0 -9.90625l1.421875 0l0 9.8125q0 0.609375 -0.140625 1.078125q-0.125 0.484375 -0.40625 0.828125q-0.28125 0.34375 -0.703125 0.515625q-0.421875 0.1875 -1.015625 0.1875zm0.734375 -14.75q0 -0.46875 0.234375 -0.671875q0.25 -0.21875 0.59375 -0.21875q0.171875 0 0.328125 0.0625q0.15625 0.046875 0.265625 0.15625q0.109375 0.109375 0.171875 0.28125q0.078125 0.15625 0.078125 0.390625q0 0.453125 -0.25 0.6875q-0.25 0.21875 -0.59375 0.21875q-0.34375 0 -0.59375 -0.21875q-0.234375 -0.21875 -0.234375 -0.6875zm11.25 6.59375q0 1.078125 -0.265625 1.90625q-0.265625 0.828125 -0.75 1.40625q-0.484375 0.5625 -1.1875 0.859375q-0.6875 0.296875 -1.5625 0.296875q-0.796875 0 -1.484375 -0.296875q-0.671875 -0.296875 -1.171875 -0.859375q-0.5 -0.578125 -0.78125 -1.40625q-0.265625 -0.828125 -0.265625 -1.90625q0 -1.0625 0.25 -1.875q0.265625 -0.828125 0.75 -1.390625q0.484375 -0.578125 1.1875 -0.859375q0.703125 -0.296875 1.5625 -0.296875q0.8125 0 1.484375 0.296875q0.6875 0.28125 1.171875 0.859375q0.5 0.5625 0.78125 1.390625q0.28125 0.8125 0.28125 1.875zm-6.0 0q0 1.640625 0.53125 2.46875q0.53125 0.8125 1.734375 0.8125q1.203125 0 1.734375 -0.8125q0.53125 -0.828125 0.53125 -2.46875q0 -1.625 -0.546875 -2.4375q-0.53125 -0.8125 -1.734375 -0.8125q-1.203125 0 -1.734375 0.8125q-0.515625 0.8125 -0.515625 2.4375zm12.109375 -4.421875q0.734375 0 1.328125 0.28125q0.609375 0.28125 1.03125 0.84375q0.4375 0.546875 0.671875 1.375q0.234375 0.828125 0.234375 1.921875q0 1.109375 -0.234375 1.9375q-0.234375 0.828125 -0.671875 1.390625q-0.421875 0.5625 -1.03125 0.859375q-0.59375 0.28125 -1.328125 0.28125q-0.453125 0 -0.828125 -0.109375q-0.375 -0.09375 -0.6875 -0.265625q-0.296875 -0.171875 -0.53125 -0.390625q-0.21875 -0.234375 -0.40625 -0.484375l-0.09375 0l-0.28125 1.09375l-1.046875 0l0 -12.15625l1.421875 0l0 2.9375q0 0.265625 -0.015625 0.578125q0 0.3125 -0.015625 0.578125q-0.015625 0.3125 -0.03125 0.609375l0.0625 0q0.1875 -0.28125 0.40625 -0.515625q0.234375 -0.234375 0.53125 -0.40625q0.296875 -0.171875 0.671875 -0.265625q0.375 -0.09375 0.84375 -0.09375zm-0.265625 1.171875q-0.625 0 -1.046875 0.203125q-0.421875 0.203125 -0.671875 0.609375q-0.25 0.40625 -0.359375 1.015625q-0.109375 0.609375 -0.109375 1.421875q0 0.796875 0.109375 1.40625q0.109375 0.609375 0.359375 1.03125q0.25 0.421875 0.671875 0.640625q0.421875 0.203125 1.0625 0.203125q1.046875 0 1.546875 -0.84375q0.5 -0.859375 0.5 -2.453125q0 -1.625 -0.5 -2.421875q-0.5 -0.8125 -1.5625 -0.8125zm14.125 7.5625l-1.375 0l0 -7.140625q0 -0.328125 0 -0.703125q0 -0.390625 0.015625 -0.765625q0.015625 -0.390625 0.015625 -0.734375q0.015625 -0.34375 0.03125 -0.609375q-0.140625 0.140625 -0.25 0.25q-0.09375 0.09375 -0.203125 0.1875q-0.09375 0.09375 -0.21875 0.203125q-0.109375 0.09375 -0.28125 0.234375l-1.15625 0.953125l-0.75 -0.96875l3.0 -2.328125l1.171875 0l0 11.421875z" fill-rule="nonzero"></path><path fill="#000000" fill-opacity="0.0" d="m67.23854 431.74246l219.1811 -0.47244263" fill-rule="nonzero"></path><path stroke="#000000" stroke-width="2.0" stroke-linejoin="round" stroke-linecap="butt" d="m67.23854 431.74246l207.1811 -0.44656372" fill-rule="evenodd"></path><path fill="#000000" stroke="#000000" stroke-width="2.0" stroke-linecap="butt" d="m274.4268 434.59933l9.069061 -3.3230286l-9.083313 -3.2838745z" fill-rule="evenodd"></path><path fill="#000000" fill-opacity="0.0" d="m78.69542 386.98874l153.79527 0l0 41.007874l-153.79527 0z" fill-rule="nonzero"></path><path fill="#000000" d="m88.211044 415.19247q-0.375 0 -0.625 -0.0625q-0.25 -0.046875 -0.421875 -0.125l0 -1.15625q0.203125 0.078125 0.421875 0.109375q0.203125 0.046875 0.484375 0.046875q0.203125 0 0.375 -0.0625q0.1875 -0.046875 0.328125 -0.203125q0.140625 -0.15625 0.203125 -0.40625q0.078125 -0.25 0.078125 -0.65625l0 -9.90625l1.421875 0l0 9.8125q0 0.609375 -0.140625 1.078125q-0.125 0.484375 -0.40625 0.828125q-0.28125 0.34375 -0.703125 0.515625q-0.421875 0.1875 -1.015625 0.1875zm0.734375 -14.75q0 -0.46875 0.234375 -0.671875q0.25 -0.21875 0.59375 -0.21875q0.171875 0 0.328125 0.0625q0.15625 0.046875 0.265625 0.15625q0.109375 0.109375 0.171875 0.28125q0.078125 0.15625 0.078125 0.390625q0 0.453125 -0.25 0.6875q-0.25 0.21875 -0.59375 0.21875q-0.34375 0 -0.59375 -0.21875q-0.234375 -0.21875 -0.234375 -0.6875zm11.25 6.59375q0 1.078125 -0.265625 1.90625q-0.265625 0.828125 -0.75 1.40625q-0.484375 0.5625 -1.1875 0.859375q-0.6875 0.296875 -1.5625 0.296875q-0.796875 0 -1.484375 -0.296875q-0.671875 -0.296875 -1.171875 -0.859375q-0.5 -0.578125 -0.78125 -1.40625q-0.265625 -0.828125 -0.265625 -1.90625q0 -1.0625 0.25 -1.875q0.265625 -0.828125 0.75 -1.390625q0.484375 -0.578125 1.1875 -0.859375q0.703125 -0.296875 1.5625 -0.296875q0.8125 0 1.484375 0.296875q0.6875 0.28125 1.171875 0.859375q0.5 0.5625 0.78125 1.390625q0.28125 0.8125 0.28125 1.875zm-6.0 0q0 1.640625 0.53125 2.46875q0.53125 0.8125 1.734375 0.8125q1.203125 0 1.734375 -0.8125q0.53125 -0.828125 0.53125 -2.46875q0 -1.625 -0.546875 -2.4375q-0.53125 -0.8125 -1.734375 -0.8125q-1.203125 0 -1.734375 0.8125q-0.515625 0.8125 -0.515625 2.4375zm12.109375 -4.421875q0.734375 0 1.328125 0.28125q0.609375 0.28125 1.03125 0.84375q0.4375 0.546875 0.671875 1.375q0.234375 0.828125 0.234375 1.921875q0 1.109375 -0.234375 1.9375q-0.234375 0.828125 -0.671875 1.390625q-0.421875 0.5625 -1.03125 0.859375q-0.59375 0.28125 -1.328125 0.28125q-0.453125 0 -0.828125 -0.109375q-0.375 -0.09375 -0.6875 -0.265625q-0.296875 -0.171875 -0.53125 -0.390625q-0.21875 -0.234375 -0.40625 -0.484375l-0.09375 0l-0.28125 1.09375l-1.046875 0l0 -12.15625l1.421875 0l0 2.9375q0 0.265625 -0.015625 0.578125q0 0.3125 -0.015625 0.578125q-0.015625 0.3125 -0.03125 0.609375l0.0625 0q0.1875 -0.28125 0.40625 -0.515625q0.234375 -0.234375 0.53125 -0.40625q0.296875 -0.171875 0.671875 -0.265625q0.375 -0.09375 0.84375 -0.09375zm-0.265625 1.171875q-0.625 0 -1.046875 0.203125q-0.421875 0.203125 -0.671875 0.609375q-0.25 0.40625 -0.359375 1.015625q-0.109375 0.609375 -0.109375 1.421875q0 0.796875 0.109375 1.40625q0.109375 0.609375 0.359375 1.03125q0.25 0.421875 0.671875 0.640625q0.421875 0.203125 1.0625 0.203125q1.046875 0 1.546875 -0.84375q0.5 -0.859375 0.5 -2.453125q0 -1.625 -0.5 -2.421875q-0.5 -0.8125 -1.5625 -0.8125zm16.4375 7.5625l-7.125 0l0 -1.21875l2.734375 -2.984375q0.59375 -0.625 1.046875 -1.140625q0.46875 -0.53125 0.78125 -1.03125q0.328125 -0.5 0.5 -1.0q0.171875 -0.515625 0.171875 -1.109375q0 -0.453125 -0.140625 -0.796875q-0.125 -0.359375 -0.375 -0.609375q-0.234375 -0.25 -0.578125 -0.375q-0.328125 -0.125 -0.75 -0.125q-0.734375 0 -1.34375 0.3125q-0.59375 0.296875 -1.125 0.765625l-0.796875 -0.9375q0.3125 -0.28125 0.671875 -0.515625q0.359375 -0.25 0.765625 -0.421875q0.421875 -0.1875 0.875 -0.296875q0.46875 -0.109375 0.96875 -0.109375q0.75 0 1.359375 0.21875q0.609375 0.203125 1.03125 0.609375q0.421875 0.390625 0.640625 0.953125q0.234375 0.5625 0.234375 1.28125q0 0.65625 -0.203125 1.265625q-0.203125 0.59375 -0.578125 1.1875q-0.359375 0.578125 -0.859375 1.171875q-0.5 0.578125 -1.09375 1.203125l-2.1875 2.34375l0 0.0625l5.375 0l0 1.296875z" fill-rule="nonzero"></path><path fill="#f6b26b" d="m320.53568 103.926506l188.25198 0l0 79.149605l-188.25198 0z" fill-rule="nonzero"></path><path stroke="#000000" stroke-width="2.0" stroke-linejoin="round" stroke-linecap="butt" d="m320.53568 103.926506l188.25198 0l0 79.149605l-188.25198 0z" fill-rule="nonzero"></path><path fill="#000000" d="m349.28278 137.90819l2.3125 0l0 7.25q0 1.421875 -0.25 2.1875q-0.34375 1.0 -1.234375 1.609375q-0.875 0.609375 -2.3125 0.609375q-1.703125 0 -2.625 -0.953125q-0.90625 -0.953125 -0.90625 -2.796875l2.171875 -0.25q0.046875 0.984375 0.296875 1.390625q0.375 0.625 1.140625 0.625q0.765625 0 1.078125 -0.4375q0.328125 -0.453125 0.328125 -1.84375l0 -7.390625zm4.2421875 7.1875q0 -1.09375 0.53125 -2.109375q0.546875 -1.03125 1.53125 -1.5625q1.0 -0.546875 2.21875 -0.546875q1.875 0 3.078125 1.21875q1.203125 1.21875 1.203125 3.09375q0 1.875 -1.21875 3.125q-1.203125 1.234375 -3.046875 1.234375q-1.140625 0 -2.1875 -0.515625q-1.03125 -0.515625 -1.578125 -1.515625q-0.53125 -1.0 -0.53125 -2.421875zm2.25 0.109375q0 1.234375 0.578125 1.890625q0.59375 0.65625 1.453125 0.65625q0.859375 0 1.4375 -0.65625q0.59375 -0.65625 0.59375 -1.90625q0 -1.21875 -0.59375 -1.875q-0.578125 -0.65625 -1.4375 -0.65625q-0.859375 0 -1.453125 0.65625q-0.578125 0.65625 -0.578125 1.890625zm7.9453125 4.15625l0 -11.453125l2.1875 0l0 4.125q1.015625 -1.15625 2.40625 -1.15625q1.515625 0 2.5 1.09375q1.0 1.09375 1.0 3.15625q0 2.125 -1.015625 3.28125q-1.0 1.140625 -2.453125 1.140625q-0.703125 0 -1.40625 -0.359375q-0.6875 -0.359375 -1.1875 -1.046875l0 1.21875l-2.03125 0zm2.171875 -4.328125q0 1.28125 0.40625 1.90625q0.578125 0.875 1.515625 0.875q0.734375 0 1.234375 -0.625q0.515625 -0.625 0.515625 -1.953125q0 -1.421875 -0.515625 -2.046875q-0.515625 -0.640625 -1.3125 -0.640625q-0.796875 0 -1.328125 0.625q-0.515625 0.609375 -0.515625 1.859375zm21.375 2.875q0.84375 0.609375 1.84375 0.96875l-0.84375 1.640625q-0.53125 -0.15625 -1.03125 -0.4375q-0.109375 -0.046875 -1.53125 -1.015625q-1.125 0.5 -2.5 0.5q-2.640625 0 -4.140625 -1.5625q-1.484375 -1.5625 -1.484375 -4.375q0 -2.796875 1.5 -4.359375q1.5 -1.5625 4.0625 -1.5625q2.546875 0 4.03125 1.5625q1.5 1.5625 1.5 4.359375q0 1.484375 -0.40625 2.609375q-0.3125 0.859375 -1.0 1.671875zm-1.859375 -1.3125q0.4375 -0.515625 0.65625 -1.25q0.234375 -0.75 0.234375 -1.71875q0 -1.984375 -0.875 -2.953125q-0.875 -0.984375 -2.296875 -0.984375q-1.40625 0 -2.296875 0.984375q-0.875 0.984375 -0.875 2.953125q0 2.015625 0.875 3.015625q0.890625 0.984375 2.234375 0.984375q0.5 0 0.9375 -0.15625q-0.703125 -0.46875 -1.421875 -0.71875l0.640625 -1.328125q1.140625 0.390625 2.1875 1.171875zm10.5234375 2.765625l0 -1.25q-0.453125 0.671875 -1.1875 1.0625q-0.734375 0.375 -1.5625 0.375q-0.828125 0 -1.5 -0.359375q-0.65625 -0.375 -0.953125 -1.03125q-0.296875 -0.671875 -0.296875 -1.84375l0 -5.25l2.1875 0l0 3.8125q0 1.75 0.125 2.140625q0.125 0.390625 0.4375 0.625q0.328125 0.234375 0.8125 0.234375q0.5625 0 1.0 -0.3125q0.453125 -0.3125 0.609375 -0.765625q0.171875 -0.453125 0.171875 -2.234375l0 -3.5l2.203125 0l0 8.296875l-2.046875 0zm9.1171875 -2.640625l2.1875 0.359375q-0.421875 1.203125 -1.328125 1.84375q-0.90625 0.625 -2.28125 0.625q-2.15625 0 -3.203125 -1.421875q-0.8125 -1.125 -0.8125 -2.859375q0 -2.0625 1.078125 -3.21875q1.078125 -1.171875 2.71875 -1.171875q1.859375 0 2.921875 1.21875q1.078125 1.21875 1.03125 3.75l-5.5 0q0.015625 0.96875 0.515625 1.515625q0.515625 0.546875 1.28125 0.546875q0.515625 0 0.859375 -0.28125q0.359375 -0.28125 0.53125 -0.90625zm0.125 -2.21875q-0.015625 -0.953125 -0.484375 -1.453125q-0.46875 -0.5 -1.140625 -0.5q-0.71875 0 -1.1875 0.53125q-0.46875 0.515625 -0.46875 1.421875l3.28125 0zm9.4296875 4.859375l0 -1.25q-0.453125 0.671875 -1.1875 1.0625q-0.734375 0.375 -1.5625 0.375q-0.828125 0 -1.5 -0.359375q-0.65625 -0.375 -0.953125 -1.03125q-0.296875 -0.671875 -0.296875 -1.84375l0 -5.25l2.1875 0l0 3.8125q0 1.75 0.125 2.140625q0.125 0.390625 0.4375 0.625q0.328125 0.234375 0.8125 0.234375q0.5625 0 1.0 -0.3125q0.453125 -0.3125 0.609375 -0.765625q0.171875 -0.453125 0.171875 -2.234375l0 -3.5l2.203125 0l0 8.296875l-2.046875 0zm9.1171875 -2.640625l2.1875 0.359375q-0.421875 1.203125 -1.328125 1.84375q-0.90625 0.625 -2.28125 0.625q-2.15625 0 -3.203125 -1.421875q-0.8125 -1.125 -0.8125 -2.859375q0 -2.0625 1.078125 -3.21875q1.078125 -1.171875 2.71875 -1.171875q1.859375 0 2.921875 1.21875q1.078125 1.21875 1.03125 3.75l-5.5 0q0.015625 0.96875 0.515625 1.515625q0.515625 0.546875 1.28125 0.546875q0.515625 0 0.859375 -0.28125q0.359375 -0.28125 0.53125 -0.90625zm0.125 -2.21875q-0.015625 -0.953125 -0.484375 -1.453125q-0.46875 -0.5 -1.140625 -0.5q-0.71875 0 -1.1875 0.53125q-0.46875 0.515625 -0.46875 1.421875l3.28125 0zm12.0625 8.234375l-1.515625 0q-1.1875 -1.8125 -1.8125 -3.75q-0.625 -1.953125 -0.625 -3.78125q0 -2.25 0.765625 -4.265625q0.671875 -1.75 1.703125 -3.234375l1.5 0q-1.0625 2.375 -1.46875 4.03125q-0.40625 1.65625 -0.40625 3.515625q0 1.28125 0.234375 2.625q0.25 1.34375 0.65625 2.5625q0.28125 0.796875 0.96875 2.296875zm1.703125 -3.375l0 -11.453125l4.875 0q1.828125 0 2.65625 0.3125q0.84375 0.296875 1.34375 1.09375q0.5 0.78125 0.5 1.796875q0 1.296875 -0.765625 2.140625q-0.75 0.828125 -2.265625 1.046875q0.75 0.4375 1.234375 0.96875q0.5 0.515625 1.328125 1.859375l1.390625 2.234375l-2.765625 0l-1.671875 -2.5q-0.890625 -1.328125 -1.21875 -1.671875q-0.328125 -0.359375 -0.703125 -0.484375q-0.359375 -0.125 -1.15625 -0.125l-0.46875 0l0 4.78125l-2.3125 0zm2.3125 -6.609375l1.71875 0q1.65625 0 2.0625 -0.140625q0.421875 -0.140625 0.65625 -0.484375q0.234375 -0.34375 0.234375 -0.859375q0 -0.578125 -0.3125 -0.9375q-0.296875 -0.359375 -0.859375 -0.453125q-0.28125 -0.03125 -1.6875 -0.03125l-1.8125 0l0 2.90625zm14.023407 3.96875l2.1875 0.359375q-0.421875 1.203125 -1.328125 1.84375q-0.90625 0.625 -2.28125 0.625q-2.15625 0 -3.203125 -1.421875q-0.8124695 -1.125 -0.8124695 -2.859375q0 -2.0625 1.0780945 -3.21875q1.078125 -1.171875 2.71875 -1.171875q1.859375 0 2.921875 1.21875q1.078125 1.21875 1.03125 3.75l-5.5 0q0.015625 0.96875 0.515625 1.515625q0.515625 0.546875 1.28125 0.546875q0.515625 0 0.859375 -0.28125q0.359375 -0.28125 0.53125 -0.90625zm0.125 -2.21875q-0.015625 -0.953125 -0.484375 -1.453125q-0.46875 -0.5 -1.140625 -0.5q-0.71875 0 -1.1875 0.53125q-0.46875 0.515625 -0.46875 1.421875l3.28125 0zm11.5859375 4.859375l-2.046875 0l0 -1.21875q-0.5 0.703125 -1.203125 1.0625q-0.6875 0.34375 -1.390625 0.34375q-1.421875 0 -2.453125 -1.15625q-1.015625 -1.15625 -1.015625 -3.21875q0 -2.109375 0.984375 -3.203125q1.0 -1.09375 2.515625 -1.09375q1.390625 0 2.40625 1.15625l0 -4.125l2.203125 0l0 11.453125zm-5.859375 -4.328125q0 1.328125 0.359375 1.921875q0.53125 0.859375 1.484375 0.859375q0.765625 0 1.296875 -0.640625q0.53125 -0.65625 0.53125 -1.9375q0 -1.421875 -0.515625 -2.046875q-0.515625 -0.640625 -1.328125 -0.640625q-0.78125 0 -1.3125 0.625q-0.515625 0.625 -0.515625 1.859375zm8.0234375 -5.09375l0 -2.03125l2.1875 0l0 2.03125l-2.1875 0zm0 9.421875l0 -8.296875l2.1875 0l0 8.296875l-2.1875 0zm3.6640625 -2.375l2.203125 -0.328125q0.140625 0.640625 0.5625 0.96875q0.4375 0.328125 1.21875 0.328125q0.84375 0 1.28125 -0.3125q0.28125 -0.21875 0.28125 -0.578125q0 -0.25 -0.15625 -0.421875q-0.15625 -0.15625 -0.734375 -0.28125q-2.65625 -0.59375 -3.359375 -1.078125q-0.984375 -0.671875 -0.984375 -1.859375q0 -1.078125 0.84375 -1.8125q0.859375 -0.734375 2.640625 -0.734375q1.703125 0 2.53125 0.5625q0.828125 0.546875 1.140625 1.625l-2.0625 0.390625q-0.140625 -0.484375 -0.515625 -0.734375q-0.359375 -0.265625 -1.046875 -0.265625q-0.875 0 -1.25 0.234375q-0.25 0.171875 -0.25 0.453125q0 0.234375 0.21875 0.390625q0.296875 0.21875 2.046875 0.625q1.765625 0.390625 2.453125 0.96875q0.6875 0.59375 0.6875 1.640625q0 1.140625 -0.953125 1.96875q-0.953125 0.8125 -2.8125 0.8125q-1.703125 0 -2.6875 -0.6875q-0.984375 -0.6875 -1.296875 -1.875zm9.0703125 5.75q0.640625 -1.390625 0.90625 -2.140625q0.265625 -0.734375 0.484375 -1.703125q0.234375 -0.984375 0.34375 -1.84375q0.109375 -0.875 0.109375 -1.796875q0 -1.859375 -0.40625 -3.515625q-0.390625 -1.65625 -1.453125 -4.03125l1.484375 0q1.1875 1.6875 1.828125 3.578125q0.65625 1.875 0.65625 3.8125q0 1.625 -0.515625 3.5q-0.578125 2.09375 -1.921875 4.140625l-1.515625 0z" fill-rule="nonzero"></path><path fill="#efefef" d="m767.98425 122.946205l124.252014 0l0 105.66929l-124.252014 0z" fill-rule="nonzero"></path><path stroke="#980000" stroke-width="3.0" stroke-linejoin="round" stroke-linecap="butt" stroke-dasharray="12.0,9.0" d="m767.98425 122.946205l124.252014 0l0 105.66929l-124.252014 0z" fill-rule="nonzero"></path><path fill="#000000" d="m797.8384 164.7996q-0.5625 0 -1.0 0.21875q-0.4375 0.21875 -0.734375 0.640625q-0.296875 0.40625 -0.453125 1.0q-0.140625 0.578125 -0.140625 1.3125q0 0.734375 0.125 1.3125q0.140625 0.578125 0.421875 0.984375q0.296875 0.390625 0.734375 0.59375q0.4375 0.203125 1.046875 0.203125q0.5625 0 1.125 -0.125q0.578125 -0.125 1.25 -0.359375l0 1.65625q-0.3125 0.125 -0.609375 0.21875q-0.296875 0.078125 -0.609375 0.125q-0.3125 0.0625 -0.640625 0.09375q-0.328125 0.03125 -0.703125 0.03125q-1.0625 0 -1.859375 -0.34375q-0.78125 -0.34375 -1.296875 -0.953125q-0.515625 -0.625 -0.765625 -1.5q-0.25 -0.890625 -0.25 -1.953125q0 -1.0625 0.28125 -1.9375q0.296875 -0.875 0.84375 -1.5q0.5625 -0.640625 1.375 -0.984375q0.8125 -0.359375 1.859375 -0.359375q0.6875 0 1.375 0.171875q0.703125 0.171875 1.34375 0.46875l-0.640625 1.609375q-0.515625 -0.25 -1.046875 -0.4375q-0.515625 -0.1875 -1.03125 -0.1875zm6.008423 4.21875q0 1.0625 0.296875 1.609375q0.296875 0.53125 0.96875 0.53125q0.671875 0 0.96875 -0.53125q0.296875 -0.546875 0.296875 -1.609375q0 -1.0625 -0.296875 -1.578125q-0.296875 -0.53125 -0.96875 -0.53125q-0.671875 0 -0.96875 0.53125q-0.296875 0.515625 -0.296875 1.578125zm4.515625 0q0 0.890625 -0.234375 1.578125q-0.21875 0.6875 -0.640625 1.15625q-0.421875 0.46875 -1.03125 0.71875q-0.609375 0.234375 -1.359375 0.234375q-0.703125 0 -1.296875 -0.234375q-0.59375 -0.25 -1.03125 -0.71875q-0.421875 -0.46875 -0.671875 -1.15625q-0.234375 -0.6875 -0.234375 -1.578125q0 -0.875 0.21875 -1.5625q0.234375 -0.6875 0.65625 -1.15625q0.421875 -0.46875 1.03125 -0.703125q0.609375 -0.25 1.359375 -0.25q0.703125 0 1.296875 0.25q0.59375 0.234375 1.015625 0.703125q0.4375 0.46875 0.671875 1.15625q0.25 0.6875 0.25 1.5625zm8.016418 3.5625l-1.9375 0l0 -4.140625q0 -0.765625 -0.234375 -1.15625q-0.21875 -0.390625 -0.734375 -0.390625q-0.375 0 -0.640625 0.15625q-0.25 0.15625 -0.40625 0.453125q-0.140625 0.296875 -0.203125 0.734375q-0.0625 0.4375 -0.0625 1.0l0 3.34375l-1.9375 0l0 -7.09375l1.484375 0l0.25 0.90625l0.109375 0q0.15625 -0.28125 0.375 -0.46875q0.21875 -0.203125 0.46875 -0.328125q0.265625 -0.125 0.5625 -0.1875q0.296875 -0.0625 0.59375 -0.0625q0.53125 0 0.953125 0.15625q0.421875 0.140625 0.71875 0.46875q0.3125 0.3125 0.46875 0.8125q0.171875 0.484375 0.171875 1.171875l0 4.625zm5.07489 -1.421875q0.296875 0 0.546875 -0.0625q0.265625 -0.0625 0.53125 -0.15625l0 1.4375q-0.28125 0.140625 -0.6875 0.234375q-0.390625 0.09375 -0.875 0.09375q-0.453125 0 -0.859375 -0.109375q-0.40625 -0.109375 -0.703125 -0.375q-0.28125 -0.265625 -0.453125 -0.71875q-0.171875 -0.453125 -0.171875 -1.140625l0 -3.421875l-0.921875 0l0 -0.828125l1.0625 -0.640625l0.5625 -1.5l1.234375 0l0 1.515625l1.734375 0l0 1.453125l-1.734375 0l0 3.421875q0 0.40625 0.203125 0.609375q0.203125 0.1875 0.53125 0.1875zm6.7686768 1.421875l-0.375 -0.96875l-0.0625 0q-0.203125 0.296875 -0.421875 0.5q-0.203125 0.203125 -0.453125 0.34375q-0.25 0.125 -0.5625 0.1875q-0.296875 0.0625 -0.703125 0.0625q-0.4375 0 -0.8125 -0.125q-0.359375 -0.140625 -0.640625 -0.421875q-0.265625 -0.28125 -0.421875 -0.703125q-0.140625 -0.421875 -0.140625 -1.0q0 -1.125 0.71875 -1.65625q0.734375 -0.546875 2.171875 -0.59375l1.125 -0.046875l0 -0.53125q0 -0.4375 -0.25 -0.640625q-0.25 -0.21875 -0.71875 -0.21875q-0.453125 0 -0.890625 0.140625q-0.4375 0.125 -0.875 0.359375l-0.625 -1.296875q0.53125 -0.296875 1.171875 -0.46875q0.65625 -0.171875 1.375 -0.171875q1.328125 0 2.03125 0.625q0.703125 0.625 0.703125 1.890625l0 4.734375l-1.34375 0zm-0.578125 -3.28125l-0.640625 0.015625q-0.390625 0.015625 -0.65625 0.109375q-0.265625 0.078125 -0.4375 0.234375q-0.15625 0.140625 -0.234375 0.359375q-0.0625 0.203125 -0.0625 0.453125q0 0.453125 0.21875 0.640625q0.21875 0.1875 0.5625 0.1875q0.265625 0 0.484375 -0.09375q0.234375 -0.09375 0.40625 -0.265625q0.171875 -0.1875 0.265625 -0.453125q0.09375 -0.265625 0.09375 -0.609375l0 -0.578125zm4.0282593 -5.65625q0 -0.265625 0.078125 -0.4375q0.078125 -0.1875 0.21875 -0.296875q0.15625 -0.109375 0.34375 -0.15625q0.1875 -0.046875 0.40625 -0.046875q0.21875 0 0.40625 0.046875q0.1875 0.046875 0.328125 0.15625q0.15625 0.109375 0.234375 0.296875q0.09375 0.171875 0.09375 0.4375q0 0.265625 -0.09375 0.453125q-0.078125 0.1875 -0.234375 0.296875q-0.140625 0.109375 -0.328125 0.15625q-0.1875 0.046875 -0.40625 0.046875q-0.21875 0 -0.40625 -0.046875q-0.1875 -0.046875 -0.34375 -0.15625q-0.140625 -0.109375 -0.21875 -0.296875q-0.078125 -0.1875 -0.078125 -0.453125zm2.015625 8.9375l-1.9375 0l0 -7.09375l1.9375 0l0 7.09375zm8.286133 0l-1.9375 0l0 -4.140625q0 -0.765625 -0.234375 -1.15625q-0.21875 -0.390625 -0.734375 -0.390625q-0.375 0 -0.640625 0.15625q-0.25 0.15625 -0.40625 0.453125q-0.140625 0.296875 -0.203125 0.734375q-0.0625 0.4375 -0.0625 1.0l0 3.34375l-1.9375 0l0 -7.09375l1.484375 0l0.25 0.90625l0.109375 0q0.15625 -0.28125 0.375 -0.46875q0.21875 -0.203125 0.46875 -0.328125q0.265625 -0.125 0.5625 -0.1875q0.296875 -0.0625 0.59375 -0.0625q0.53125 0 0.953125 0.15625q0.421875 0.140625 0.71875 0.46875q0.3125 0.3125 0.46875 0.8125q0.171875 0.484375 0.171875 1.171875l0 4.625zm5.07489 -5.859375q-0.515625 0 -0.859375 0.375q-0.34375 0.359375 -0.390625 1.125l2.46875 0q0 -0.3125 -0.078125 -0.578125q-0.078125 -0.28125 -0.234375 -0.484375q-0.15625 -0.203125 -0.390625 -0.3125q-0.21875 -0.125 -0.515625 -0.125zm0.234375 5.984375q-0.75 0 -1.390625 -0.21875q-0.640625 -0.21875 -1.109375 -0.671875q-0.46875 -0.453125 -0.734375 -1.125q-0.25 -0.6875 -0.25 -1.609375q0 -0.9375 0.234375 -1.625q0.25 -0.703125 0.671875 -1.171875q0.421875 -0.46875 1.015625 -0.703125q0.59375 -0.234375 1.3125 -0.234375q0.703125 0 1.265625 0.21875q0.578125 0.203125 0.96875 0.625q0.390625 0.40625 0.609375 1.015625q0.21875 0.59375 0.21875 1.375l0 0.9375l-4.328125 0q0 0.40625 0.109375 0.734375q0.125 0.328125 0.34375 0.546875q0.21875 0.21875 0.515625 0.34375q0.296875 0.125 0.6875 0.125q0.328125 0 0.609375 -0.03125q0.296875 -0.046875 0.5625 -0.109375q0.28125 -0.078125 0.546875 -0.171875q0.265625 -0.109375 0.546875 -0.25l0 1.5q-0.265625 0.140625 -0.53125 0.234375q-0.25 0.078125 -0.53125 0.140625q-0.28125 0.0625 -0.609375 0.09375q-0.328125 0.03125 -0.734375 0.03125zm8.338135 -7.359375q0.078125 0 0.171875 0.015625q0.09375 0 0.171875 0.015625q0.078125 0 0.15625 0.015625q0.078125 0 0.109375 0.015625l0 1.8125q-0.046875 -0.015625 -0.140625 -0.015625q-0.078125 -0.015625 -0.1875 -0.03125q-0.09375 -0.015625 -0.1875 -0.015625q-0.09375 0 -0.15625 0q-0.375 0 -0.6875 0.09375q-0.3125 0.09375 -0.546875 0.3125q-0.21875 0.203125 -0.34375 0.5625q-0.125 0.34375 -0.125 0.84375l0 3.609375l-1.9375 0l0 -7.09375l1.46875 0l0.28125 1.0625l0.09375 0q0.15625 -0.265625 0.328125 -0.484375q0.1875 -0.234375 0.40625 -0.390625q0.21875 -0.15625 0.484375 -0.234375q0.28125 -0.09375 0.640625 -0.09375zm9.716431 7.234375l-1.96875 0l0 -5.375q0 -0.15625 0 -0.390625q0.015625 -0.234375 0.015625 -0.484375q0.015625 -0.25 0.015625 -0.5q0.015625 -0.265625 0.03125 -0.46875q-0.03125 0.046875 -0.109375 0.125q-0.078125 0.0625 -0.171875 0.15625q-0.09375 0.09375 -0.203125 0.1875q-0.09375 0.09375 -0.1875 0.171875l-1.078125 0.859375l-0.953125 -1.1875l3.0 -2.375l1.609375 0l0 9.28125z" fill-rule="nonzero"></path><path fill="#000000" d="m815.9604 185.01836q0 -0.796875 0.109375 -1.5625q0.125 -0.765625 0.359375 -1.484375q0.234375 -0.734375 0.59375 -1.40625q0.359375 -0.671875 0.859375 -1.265625l1.578125 0q-0.890625 1.21875 -1.359375 2.6875q-0.453125 1.46875 -0.453125 3.015625q0 0.765625 0.109375 1.515625q0.125 0.734375 0.34375 1.453125q0.234375 0.71875 0.5625 1.390625q0.34375 0.671875 0.78125 1.28125l-1.5625 0q-0.5 -0.578125 -0.859375 -1.234375q-0.359375 -0.65625 -0.59375 -1.359375q-0.234375 -0.71875 -0.359375 -1.484375q-0.109375 -0.765625 -0.109375 -1.546875zm9.9383545 -5.71875l1.984375 0l-2.890625 9.28125l-2.140625 0l-2.890625 -9.28125l1.984375 0l1.578125 5.59375q0.03125 0.09375 0.078125 0.359375q0.0625 0.25 0.125 0.5625q0.0625 0.296875 0.109375 0.609375q0.0625 0.296875 0.09375 0.5q0.03125 -0.203125 0.078125 -0.5q0.0625 -0.3125 0.125 -0.609375q0.0625 -0.3125 0.125 -0.5625q0.0625 -0.25 0.09375 -0.359375l1.546875 -5.59375zm7.097107 9.28125l-2.046875 -7.28125l-0.046875 0q0.03125 0.578125 0.0625 1.125q0 0.234375 0.015625 0.484375q0.015625 0.25 0.015625 0.5q0.015625 0.234375 0.015625 0.453125q0 0.21875 0 0.40625l0 4.3125l-1.75 0l0 -9.28125l2.671875 0l2.015625 7.09375l0.03125 0l2.140625 -7.09375l2.671875 0l0 9.28125l-1.828125 0l0 -4.390625q0 -0.171875 0 -0.375q0 -0.21875 0 -0.453125q0.015625 -0.234375 0.015625 -0.46875q0.015625 -0.234375 0.015625 -0.46875q0.03125 -0.53125 0.046875 -1.109375l-0.046875 0l-2.203125 7.265625l-1.796875 0zm11.154053 -3.5625q0 0.78125 -0.125 1.546875q-0.109375 0.765625 -0.34375 1.484375q-0.234375 0.703125 -0.59375 1.359375q-0.359375 0.65625 -0.859375 1.234375l-1.5625 0q0.4375 -0.609375 0.765625 -1.28125q0.34375 -0.671875 0.5625 -1.390625q0.234375 -0.71875 0.34375 -1.453125q0.125 -0.75 0.125 -1.515625q0 -1.546875 -0.46875 -3.015625q-0.453125 -1.46875 -1.34375 -2.6875l1.578125 0q0.5 0.59375 0.859375 1.265625q0.359375 0.671875 0.59375 1.40625q0.234375 0.71875 0.34375 1.484375q0.125 0.765625 0.125 1.5625z" fill-rule="nonzero"></path><path fill="#efefef" d="m767.98425 276.25732l124.252014 0l0 105.66928l-124.252014 0z" fill-rule="nonzero"></path><path stroke="#980000" stroke-width="3.0" stroke-linejoin="round" stroke-linecap="butt" stroke-dasharray="12.0,9.0" d="m767.98425 276.25732l124.252014 0l0 105.66928l-124.252014 0z" fill-rule="nonzero"></path><path fill="#000000" d="m797.8384 318.11072q-0.5625 0 -1.0 0.21875q-0.4375 0.21875 -0.734375 0.640625q-0.296875 0.40625 -0.453125 1.0q-0.140625 0.578125 -0.140625 1.3125q0 0.734375 0.125 1.3125q0.140625 0.578125 0.421875 0.984375q0.296875 0.390625 0.734375 0.59375q0.4375 0.203125 1.046875 0.203125q0.5625 0 1.125 -0.125q0.578125 -0.125 1.25 -0.359375l0 1.65625q-0.3125 0.125 -0.609375 0.21875q-0.296875 0.078125 -0.609375 0.125q-0.3125 0.0625 -0.640625 0.09375q-0.328125 0.03125 -0.703125 0.03125q-1.0625 0 -1.859375 -0.34375q-0.78125 -0.34375 -1.296875 -0.953125q-0.515625 -0.625 -0.765625 -1.5q-0.25 -0.890625 -0.25 -1.953125q0 -1.0625 0.28125 -1.9375q0.296875 -0.875 0.84375 -1.5q0.5625 -0.640625 1.375 -0.984375q0.8125 -0.359375 1.859375 -0.359375q0.6875 0 1.375 0.171875q0.703125 0.171875 1.34375 0.46875l-0.640625 1.609375q-0.515625 -0.25 -1.046875 -0.4375q-0.515625 -0.1875 -1.03125 -0.1875zm6.008423 4.21875q0 1.0625 0.296875 1.609375q0.296875 0.53125 0.96875 0.53125q0.671875 0 0.96875 -0.53125q0.296875 -0.546875 0.296875 -1.609375q0 -1.0625 -0.296875 -1.578125q-0.296875 -0.53125 -0.96875 -0.53125q-0.671875 0 -0.96875 0.53125q-0.296875 0.515625 -0.296875 1.578125zm4.515625 0q0 0.890625 -0.234375 1.578125q-0.21875 0.6875 -0.640625 1.15625q-0.421875 0.46875 -1.03125 0.71875q-0.609375 0.234375 -1.359375 0.234375q-0.703125 0 -1.296875 -0.234375q-0.59375 -0.25 -1.03125 -0.71875q-0.421875 -0.46875 -0.671875 -1.15625q-0.234375 -0.6875 -0.234375 -1.578125q0 -0.875 0.21875 -1.5625q0.234375 -0.6875 0.65625 -1.15625q0.421875 -0.46875 1.03125 -0.703125q0.609375 -0.25 1.359375 -0.25q0.703125 0 1.296875 0.25q0.59375 0.234375 1.015625 0.703125q0.4375 0.46875 0.671875 1.15625q0.25 0.6875 0.25 1.5625zm8.016418 3.5625l-1.9375 0l0 -4.140625q0 -0.765625 -0.234375 -1.15625q-0.21875 -0.390625 -0.734375 -0.390625q-0.375 0 -0.640625 0.15625q-0.25 0.15625 -0.40625 0.453125q-0.140625 0.296875 -0.203125 0.734375q-0.0625 0.4375 -0.0625 1.0l0 3.34375l-1.9375 0l0 -7.09375l1.484375 0l0.25 0.90625l0.109375 0q0.15625 -0.28125 0.375 -0.46875q0.21875 -0.203125 0.46875 -0.328125q0.265625 -0.125 0.5625 -0.1875q0.296875 -0.0625 0.59375 -0.0625q0.53125 0 0.953125 0.15625q0.421875 0.140625 0.71875 0.46875q0.3125 0.3125 0.46875 0.8125q0.171875 0.484375 0.171875 1.171875l0 4.625zm5.07489 -1.421875q0.296875 0 0.546875 -0.0625q0.265625 -0.0625 0.53125 -0.15625l0 1.4375q-0.28125 0.140625 -0.6875 0.234375q-0.390625 0.09375 -0.875 0.09375q-0.453125 0 -0.859375 -0.109375q-0.40625 -0.109375 -0.703125 -0.375q-0.28125 -0.265625 -0.453125 -0.71875q-0.171875 -0.453125 -0.171875 -1.140625l0 -3.421875l-0.921875 0l0 -0.828125l1.0625 -0.640625l0.5625 -1.5l1.234375 0l0 1.515625l1.734375 0l0 1.453125l-1.734375 0l0 3.421875q0 0.40625 0.203125 0.609375q0.203125 0.1875 0.53125 0.1875zm6.7686768 1.421875l-0.375 -0.96875l-0.0625 0q-0.203125 0.296875 -0.421875 0.5q-0.203125 0.203125 -0.453125 0.34375q-0.25 0.125 -0.5625 0.1875q-0.296875 0.0625 -0.703125 0.0625q-0.4375 0 -0.8125 -0.125q-0.359375 -0.140625 -0.640625 -0.421875q-0.265625 -0.28125 -0.421875 -0.703125q-0.140625 -0.421875 -0.140625 -1.0q0 -1.125 0.71875 -1.65625q0.734375 -0.546875 2.171875 -0.59375l1.125 -0.046875l0 -0.53125q0 -0.4375 -0.25 -0.640625q-0.25 -0.21875 -0.71875 -0.21875q-0.453125 0 -0.890625 0.140625q-0.4375 0.125 -0.875 0.359375l-0.625 -1.296875q0.53125 -0.296875 1.171875 -0.46875q0.65625 -0.171875 1.375 -0.171875q1.328125 0 2.03125 0.625q0.703125 0.625 0.703125 1.890625l0 4.734375l-1.34375 0zm-0.578125 -3.28125l-0.640625 0.015625q-0.390625 0.015625 -0.65625 0.109375q-0.265625 0.078125 -0.4375 0.234375q-0.15625 0.140625 -0.234375 0.359375q-0.0625 0.203125 -0.0625 0.453125q0 0.453125 0.21875 0.640625q0.21875 0.1875 0.5625 0.1875q0.265625 0 0.484375 -0.09375q0.234375 -0.09375 0.40625 -0.265625q0.171875 -0.1875 0.265625 -0.453125q0.09375 -0.265625 0.09375 -0.609375l0 -0.578125zm4.0282593 -5.65625q0 -0.265625 0.078125 -0.4375q0.078125 -0.1875 0.21875 -0.296875q0.15625 -0.109375 0.34375 -0.15625q0.1875 -0.046875 0.40625 -0.046875q0.21875 0 0.40625 0.046875q0.1875 0.046875 0.328125 0.15625q0.15625 0.109375 0.234375 0.296875q0.09375 0.171875 0.09375 0.4375q0 0.265625 -0.09375 0.453125q-0.078125 0.1875 -0.234375 0.296875q-0.140625 0.109375 -0.328125 0.15625q-0.1875 0.046875 -0.40625 0.046875q-0.21875 0 -0.40625 -0.046875q-0.1875 -0.046875 -0.34375 -0.15625q-0.140625 -0.109375 -0.21875 -0.296875q-0.078125 -0.1875 -0.078125 -0.453125zm2.015625 8.9375l-1.9375 0l0 -7.09375l1.9375 0l0 7.09375zm8.286133 0l-1.9375 0l0 -4.140625q0 -0.765625 -0.234375 -1.15625q-0.21875 -0.390625 -0.734375 -0.390625q-0.375 0 -0.640625 0.15625q-0.25 0.15625 -0.40625 0.453125q-0.140625 0.296875 -0.203125 0.734375q-0.0625 0.4375 -0.0625 1.0l0 3.34375l-1.9375 0l0 -7.09375l1.484375 0l0.25 0.90625l0.109375 0q0.15625 -0.28125 0.375 -0.46875q0.21875 -0.203125 0.46875 -0.328125q0.265625 -0.125 0.5625 -0.1875q0.296875 -0.0625 0.59375 -0.0625q0.53125 0 0.953125 0.15625q0.421875 0.140625 0.71875 0.46875q0.3125 0.3125 0.46875 0.8125q0.171875 0.484375 0.171875 1.171875l0 4.625zm5.07489 -5.859375q-0.515625 0 -0.859375 0.375q-0.34375 0.359375 -0.390625 1.125l2.46875 0q0 -0.3125 -0.078125 -0.578125q-0.078125 -0.28125 -0.234375 -0.484375q-0.15625 -0.203125 -0.390625 -0.3125q-0.21875 -0.125 -0.515625 -0.125zm0.234375 5.984375q-0.75 0 -1.390625 -0.21875q-0.640625 -0.21875 -1.109375 -0.671875q-0.46875 -0.453125 -0.734375 -1.125q-0.25 -0.6875 -0.25 -1.609375q0 -0.9375 0.234375 -1.625q0.25 -0.703125 0.671875 -1.171875q0.421875 -0.46875 1.015625 -0.703125q0.59375 -0.234375 1.3125 -0.234375q0.703125 0 1.265625 0.21875q0.578125 0.203125 0.96875 0.625q0.390625 0.40625 0.609375 1.015625q0.21875 0.59375 0.21875 1.375l0 0.9375l-4.328125 0q0 0.40625 0.109375 0.734375q0.125 0.328125 0.34375 0.546875q0.21875 0.21875 0.515625 0.34375q0.296875 0.125 0.6875 0.125q0.328125 0 0.609375 -0.03125q0.296875 -0.046875 0.5625 -0.109375q0.28125 -0.078125 0.546875 -0.171875q0.265625 -0.109375 0.546875 -0.25l0 1.5q-0.265625 0.140625 -0.53125 0.234375q-0.25 0.078125 -0.53125 0.140625q-0.28125 0.0625 -0.609375 0.09375q-0.328125 0.03125 -0.734375 0.03125zm8.338135 -7.359375q0.078125 0 0.171875 0.015625q0.09375 0 0.171875 0.015625q0.078125 0 0.15625 0.015625q0.078125 0 0.109375 0.015625l0 1.8125q-0.046875 -0.015625 -0.140625 -0.015625q-0.078125 -0.015625 -0.1875 -0.03125q-0.09375 -0.015625 -0.1875 -0.015625q-0.09375 0 -0.15625 0q-0.375 0 -0.6875 0.09375q-0.3125 0.09375 -0.546875 0.3125q-0.21875 0.203125 -0.34375 0.5625q-0.125 0.34375 -0.125 0.84375l0 3.609375l-1.9375 0l0 -7.09375l1.46875 0l0.28125 1.0625l0.09375 0q0.15625 -0.265625 0.328125 -0.484375q0.1875 -0.234375 0.40625 -0.390625q0.21875 -0.15625 0.484375 -0.234375q0.28125 -0.09375 0.640625 -0.09375zm11.278931 7.234375l-6.234375 0l0 -1.359375l2.1875 -2.359375q0.40625 -0.453125 0.75 -0.8125q0.34375 -0.375 0.578125 -0.734375q0.234375 -0.359375 0.359375 -0.71875q0.140625 -0.375 0.140625 -0.796875q0 -0.46875 -0.28125 -0.734375q-0.28125 -0.265625 -0.75 -0.265625q-0.5 0 -0.96875 0.25q-0.46875 0.25 -0.96875 0.703125l-1.0625 -1.265625q0.28125 -0.25 0.59375 -0.484375q0.3125 -0.25 0.6875 -0.421875q0.375 -0.1875 0.8125 -0.296875q0.453125 -0.109375 1.015625 -0.109375q0.671875 0 1.203125 0.1875q0.53125 0.171875 0.90625 0.515625q0.375 0.34375 0.5625 0.828125q0.203125 0.46875 0.203125 1.078125q0 0.546875 -0.1875 1.046875q-0.1875 0.5 -0.515625 0.984375q-0.328125 0.46875 -0.765625 0.9375q-0.4375 0.46875 -0.9375 0.96875l-1.109375 1.125l0 0.078125l3.78125 0l0 1.65625z" fill-rule="nonzero"></path><path fill="#000000" d="m815.9604 338.32947q0 -0.796875 0.109375 -1.5625q0.125 -0.765625 0.359375 -1.484375q0.234375 -0.734375 0.59375 -1.40625q0.359375 -0.671875 0.859375 -1.265625l1.578125 0q-0.890625 1.21875 -1.359375 2.6875q-0.453125 1.46875 -0.453125 3.015625q0 0.765625 0.109375 1.515625q0.125 0.734375 0.34375 1.453125q0.234375 0.71875 0.5625 1.390625q0.34375 0.671875 0.78125 1.28125l-1.5625 0q-0.5 -0.578125 -0.859375 -1.234375q-0.359375 -0.65625 -0.59375 -1.359375q-0.234375 -0.71875 -0.359375 -1.484375q-0.109375 -0.765625 -0.109375 -1.546875zm9.9383545 -5.71875l1.984375 0l-2.890625 9.28125l-2.140625 0l-2.890625 -9.28125l1.984375 0l1.578125 5.59375q0.03125 0.09375 0.078125 0.359375q0.0625 0.25 0.125 0.5625q0.0625 0.296875 0.109375 0.609375q0.0625 0.296875 0.09375 0.5q0.03125 -0.203125 0.078125 -0.5q0.0625 -0.3125 0.125 -0.609375q0.0625 -0.3125 0.125 -0.5625q0.0625 -0.25 0.09375 -0.359375l1.546875 -5.59375zm7.097107 9.28125l-2.046875 -7.28125l-0.046875 0q0.03125 0.578125 0.0625 1.125q0 0.234375 0.015625 0.484375q0.015625 0.25 0.015625 0.5q0.015625 0.234375 0.015625 0.453125q0 0.21875 0 0.40625l0 4.3125l-1.75 0l0 -9.28125l2.671875 0l2.015625 7.09375l0.03125 0l2.140625 -7.09375l2.671875 0l0 9.28125l-1.828125 0l0 -4.390625q0 -0.171875 0 -0.375q0 -0.21875 0 -0.453125q0.015625 -0.234375 0.015625 -0.46875q0.015625 -0.234375 0.015625 -0.46875q0.03125 -0.53125 0.046875 -1.109375l-0.046875 0l-2.203125 7.265625l-1.796875 0zm11.154053 -3.5625q0 0.78125 -0.125 1.546875q-0.109375 0.765625 -0.34375 1.484375q-0.234375 0.703125 -0.59375 1.359375q-0.359375 0.65625 -0.859375 1.234375l-1.5625 0q0.4375 -0.609375 0.765625 -1.28125q0.34375 -0.671875 0.5625 -1.390625q0.234375 -0.71875 0.34375 -1.453125q0.125 -0.75 0.125 -1.515625q0 -1.546875 -0.46875 -3.015625q-0.453125 -1.46875 -1.34375 -2.6875l1.578125 0q0.5 0.59375 0.859375 1.265625q0.359375 0.671875 0.59375 1.40625q0.234375 0.71875 0.34375 1.484375q0.125 0.765625 0.125 1.5625z" fill-rule="nonzero"></path><path fill="#efefef" d="m767.98425 521.5551l124.252014 0l0 105.66931l-124.252014 0z" fill-rule="nonzero"></path><path stroke="#980000" stroke-width="3.0" stroke-linejoin="round" stroke-linecap="butt" stroke-dasharray="12.0,9.0" d="m767.98425 521.5551l124.252014 0l0 105.66931l-124.252014 0z" fill-rule="nonzero"></path><path fill="#000000" d="m796.28955 563.4085q-0.5625 0 -1.0 0.21875q-0.4375 0.21875 -0.734375 0.640625q-0.296875 0.40625 -0.453125 1.0q-0.140625 0.578125 -0.140625 1.3125q0 0.734375 0.125 1.3125q0.140625 0.578125 0.421875 0.984375q0.296875 0.390625 0.734375 0.59375q0.4375 0.203125 1.046875 0.203125q0.5625 0 1.125 -0.125q0.578125 -0.125 1.25 -0.359375l0 1.65625q-0.3125 0.125 -0.609375 0.21875q-0.296875 0.078125 -0.609375 0.125q-0.3125 0.0625 -0.640625 0.09375q-0.328125 0.03125 -0.703125 0.03125q-1.0625 0 -1.859375 -0.34375q-0.78125 -0.34375 -1.296875 -0.953125q-0.515625 -0.625 -0.765625 -1.5q-0.25 -0.890625 -0.25 -1.953125q0 -1.0625 0.28125 -1.9375q0.296875 -0.875 0.84375 -1.5q0.5625 -0.640625 1.375 -0.984375q0.8125 -0.359375 1.859375 -0.359375q0.6875 0 1.375 0.171875q0.703125 0.171875 1.34375 0.46875l-0.640625 1.609375q-0.515625 -0.25 -1.046875 -0.4375q-0.515625 -0.1875 -1.03125 -0.1875zm6.008362 4.21875q0 1.0625 0.296875 1.609375q0.296875 0.53125 0.96875 0.53125q0.671875 0 0.96875 -0.53125q0.296875 -0.546875 0.296875 -1.609375q0 -1.0625 -0.296875 -1.578125q-0.296875 -0.53125 -0.96875 -0.53125q-0.671875 0 -0.96875 0.53125q-0.296875 0.515625 -0.296875 1.578125zm4.515625 0q0 0.890625 -0.234375 1.578125q-0.21875 0.6875 -0.640625 1.15625q-0.421875 0.46875 -1.03125 0.71875q-0.609375 0.234375 -1.359375 0.234375q-0.703125 0 -1.296875 -0.234375q-0.59375 -0.25 -1.03125 -0.71875q-0.421875 -0.46875 -0.671875 -1.15625q-0.234375 -0.6875 -0.234375 -1.578125q0 -0.875 0.21875 -1.5625q0.234375 -0.6875 0.65625 -1.15625q0.421875 -0.46875 1.03125 -0.703125q0.609375 -0.25 1.359375 -0.25q0.703125 0 1.296875 0.25q0.59375 0.234375 1.015625 0.703125q0.4375 0.46875 0.671875 1.15625q0.25 0.6875 0.25 1.5625zm8.016418 3.5625l-1.9375 0l0 -4.140625q0 -0.765625 -0.234375 -1.15625q-0.21875 -0.390625 -0.734375 -0.390625q-0.375 0 -0.640625 0.15625q-0.25 0.15625 -0.40625 0.453125q-0.140625 0.296875 -0.203125 0.734375q-0.0625 0.4375 -0.0625 1.0l0 3.34375l-1.9375 0l0 -7.09375l1.484375 0l0.25 0.90625l0.109375 0q0.15625 -0.28125 0.375 -0.46875q0.21875 -0.203125 0.46875 -0.328125q0.265625 -0.125 0.5625 -0.1875q0.296875 -0.0625 0.59375 -0.0625q0.53125 0 0.953125 0.15625q0.421875 0.140625 0.71875 0.46875q0.3125 0.3125 0.46875 0.8125q0.171875 0.484375 0.171875 1.171875l0 4.625zm5.07489 -1.421875q0.296875 0 0.546875 -0.0625q0.265625 -0.0625 0.53125 -0.15625l0 1.4375q-0.28125 0.140625 -0.6875 0.234375q-0.390625 0.09375 -0.875 0.09375q-0.453125 0 -0.859375 -0.109375q-0.40625 -0.109375 -0.703125 -0.375q-0.28125 -0.265625 -0.453125 -0.71875q-0.171875 -0.453125 -0.171875 -1.140625l0 -3.421875l-0.921875 0l0 -0.828125l1.0625 -0.640625l0.5625 -1.5l1.234375 0l0 1.515625l1.734375 0l0 1.453125l-1.734375 0l0 3.421875q0 0.40625 0.203125 0.609375q0.203125 0.1875 0.53125 0.1875zm6.7686768 1.421875l-0.375 -0.96875l-0.0625 0q-0.203125 0.296875 -0.421875 0.5q-0.203125 0.203125 -0.453125 0.34375q-0.25 0.125 -0.5625 0.1875q-0.296875 0.0625 -0.703125 0.0625q-0.4375 0 -0.8125 -0.125q-0.359375 -0.140625 -0.640625 -0.421875q-0.265625 -0.28125 -0.421875 -0.703125q-0.140625 -0.421875 -0.140625 -1.0q0 -1.125 0.71875 -1.65625q0.734375 -0.546875 2.171875 -0.59375l1.125 -0.046875l0 -0.53125q0 -0.4375 -0.25 -0.640625q-0.25 -0.21875 -0.71875 -0.21875q-0.453125 0 -0.890625 0.140625q-0.4375 0.125 -0.875 0.359375l-0.625 -1.296875q0.53125 -0.296875 1.171875 -0.46875q0.65625 -0.171875 1.375 -0.171875q1.328125 0 2.03125 0.625q0.703125 0.625 0.703125 1.890625l0 4.734375l-1.34375 0zm-0.578125 -3.28125l-0.640625 0.015625q-0.390625 0.015625 -0.65625 0.109375q-0.265625 0.078125 -0.4375 0.234375q-0.15625 0.140625 -0.234375 0.359375q-0.0625 0.203125 -0.0625 0.453125q0 0.453125 0.21875 0.640625q0.21875 0.1875 0.5625 0.1875q0.265625 0 0.484375 -0.09375q0.234375 -0.09375 0.40625 -0.265625q0.171875 -0.1875 0.265625 -0.453125q0.09375 -0.265625 0.09375 -0.609375l0 -0.578125zm4.0282593 -5.65625q0 -0.265625 0.078125 -0.4375q0.078125 -0.1875 0.21875 -0.296875q0.15625 -0.109375 0.34375 -0.15625q0.1875 -0.046875 0.40625 -0.046875q0.21875 0 0.40625 0.046875q0.1875 0.046875 0.328125 0.15625q0.15625 0.109375 0.234375 0.296875q0.09375 0.171875 0.09375 0.4375q0 0.265625 -0.09375 0.453125q-0.078125 0.1875 -0.234375 0.296875q-0.140625 0.109375 -0.328125 0.15625q-0.1875 0.046875 -0.40625 0.046875q-0.21875 0 -0.40625 -0.046875q-0.1875 -0.046875 -0.34375 -0.15625q-0.140625 -0.109375 -0.21875 -0.296875q-0.078125 -0.1875 -0.078125 -0.453125zm2.015625 8.9375l-1.9375 0l0 -7.09375l1.9375 0l0 7.09375zm8.286194 0l-1.9375 0l0 -4.140625q0 -0.765625 -0.234375 -1.15625q-0.21875 -0.390625 -0.734375 -0.390625q-0.375 0 -0.640625 0.15625q-0.25 0.15625 -0.40625 0.453125q-0.140625 0.296875 -0.203125 0.734375q-0.0625 0.4375 -0.0625 1.0l0 3.34375l-1.9375 0l0 -7.09375l1.484375 0l0.25 0.90625l0.109375 0q0.15625 -0.28125 0.375 -0.46875q0.21875 -0.203125 0.46875 -0.328125q0.265625 -0.125 0.5625 -0.1875q0.296875 -0.0625 0.59375 -0.0625q0.53125 0 0.953125 0.15625q0.421875 0.140625 0.71875 0.46875q0.3125 0.3125 0.46875 0.8125q0.171875 0.484375 0.171875 1.171875l0 4.625zm5.074829 -5.859375q-0.515625 0 -0.859375 0.375q-0.34375 0.359375 -0.390625 1.125l2.46875 0q0 -0.3125 -0.078125 -0.578125q-0.078125 -0.28125 -0.234375 -0.484375q-0.15625 -0.203125 -0.390625 -0.3125q-0.21875 -0.125 -0.515625 -0.125zm0.234375 5.984375q-0.75 0 -1.390625 -0.21875q-0.640625 -0.21875 -1.109375 -0.671875q-0.46875 -0.453125 -0.734375 -1.125q-0.25 -0.6875 -0.25 -1.609375q0 -0.9375 0.234375 -1.625q0.25 -0.703125 0.671875 -1.171875q0.421875 -0.46875 1.015625 -0.703125q0.59375 -0.234375 1.3125 -0.234375q0.703125 0 1.265625 0.21875q0.578125 0.203125 0.96875 0.625q0.390625 0.40625 0.609375 1.015625q0.21875 0.59375 0.21875 1.375l0 0.9375l-4.328125 0q0 0.40625 0.109375 0.734375q0.125 0.328125 0.34375 0.546875q0.21875 0.21875 0.515625 0.34375q0.296875 0.125 0.6875 0.125q0.328125 0 0.609375 -0.03125q0.296875 -0.046875 0.5625 -0.109375q0.28125 -0.078125 0.546875 -0.171875q0.265625 -0.109375 0.546875 -0.25l0 1.5q-0.265625 0.140625 -0.53125 0.234375q-0.25 0.078125 -0.53125 0.140625q-0.28125 0.0625 -0.609375 0.09375q-0.328125 0.03125 -0.734375 0.03125zm8.338135 -7.359375q0.078125 0 0.171875 0.015625q0.09375 0 0.171875 0.015625q0.078125 0 0.15625 0.015625q0.078125 0 0.109375 0.015625l0 1.8125q-0.046875 -0.015625 -0.140625 -0.015625q-0.078125 -0.015625 -0.1875 -0.03125q-0.09375 -0.015625 -0.1875 -0.015625q-0.09375 0 -0.15625 0q-0.375 0 -0.6875 0.09375q-0.3125 0.09375 -0.546875 0.3125q-0.21875 0.203125 -0.34375 0.5625q-0.125 0.34375 -0.125 0.84375l0 3.609375l-1.9375 0l0 -7.09375l1.46875 0l0.28125 1.0625l0.09375 0q0.15625 -0.265625 0.328125 -0.484375q0.1875 -0.234375 0.40625 -0.390625q0.21875 -0.15625 0.484375 -0.234375q0.28125 -0.09375 0.640625 -0.09375zm13.528931 7.234375l-2.484375 0l-3.65625 -7.015625l-0.046875 0q0.03125 0.484375 0.0625 0.96875q0.015625 0.40625 0.03125 0.859375q0.015625 0.453125 0.015625 0.8125l0 4.375l-1.75 0l0 -9.28125l2.484375 0l3.640625 6.953125l0.03125 0q-0.015625 -0.484375 -0.046875 -0.953125q0 -0.203125 -0.015625 -0.40625q0 -0.21875 -0.015625 -0.421875q0 -0.21875 0 -0.421875q0 -0.203125 0 -0.359375l0 -4.390625l1.75 0l0 9.28125z" fill-rule="nonzero"></path><path fill="#000000" d="m815.9604 583.62726q0 -0.796875 0.109375 -1.5625q0.125 -0.765625 0.359375 -1.484375q0.234375 -0.734375 0.59375 -1.40625q0.359375 -0.671875 0.859375 -1.265625l1.578125 0q-0.890625 1.21875 -1.359375 2.6875q-0.453125 1.46875 -0.453125 3.015625q0 0.765625 0.109375 1.515625q0.125 0.734375 0.34375 1.453125q0.234375 0.71875 0.5625 1.390625q0.34375 0.671875 0.78125 1.28125l-1.5625 0q-0.5 -0.578125 -0.859375 -1.234375q-0.359375 -0.65625 -0.59375 -1.359375q-0.234375 -0.71875 -0.359375 -1.484375q-0.109375 -0.765625 -0.109375 -1.546875zm9.9383545 -5.71875l1.984375 0l-2.890625 9.28125l-2.140625 0l-2.890625 -9.28125l1.984375 0l1.578125 5.59375q0.03125 0.09375 0.078125 0.359375q0.0625 0.25 0.125 0.5625q0.0625 0.296875 0.109375 0.609375q0.0625 0.296875 0.09375 0.5q0.03125 -0.203125 0.078125 -0.5q0.0625 -0.3125 0.125 -0.609375q0.0625 -0.3125 0.125 -0.5625q0.0625 -0.25 0.09375 -0.359375l1.546875 -5.59375zm7.097107 9.28125l-2.046875 -7.28125l-0.046875 0q0.03125 0.578125 0.0625 1.125q0 0.234375 0.015625 0.484375q0.015625 0.25 0.015625 0.5q0.015625 0.234375 0.015625 0.453125q0 0.21875 0 0.40625l0 4.3125l-1.75 0l0 -9.28125l2.671875 0l2.015625 7.09375l0.03125 0l2.140625 -7.09375l2.671875 0l0 9.28125l-1.828125 0l0 -4.390625q0 -0.171875 0 -0.375q0 -0.21875 0 -0.453125q0.015625 -0.234375 0.015625 -0.46875q0.015625 -0.234375 0.015625 -0.46875q0.03125 -0.53125 0.046875 -1.109375l-0.046875 0l-2.203125 7.265625l-1.796875 0zm11.154053 -3.5625q0 0.78125 -0.125 1.546875q-0.109375 0.765625 -0.34375 1.484375q-0.234375 0.703125 -0.59375 1.359375q-0.359375 0.65625 -0.859375 1.234375l-1.5625 0q0.4375 -0.609375 0.765625 -1.28125q0.34375 -0.671875 0.5625 -1.390625q0.234375 -0.71875 0.34375 -1.453125q0.125 -0.75 0.125 -1.515625q0 -1.546875 -0.46875 -3.015625q-0.453125 -1.46875 -1.34375 -2.6875l1.578125 0q0.5 0.59375 0.859375 1.265625q0.359375 0.671875 0.59375 1.40625q0.234375 0.71875 0.34375 1.484375q0.125 0.765625 0.125 1.5625z" fill-rule="nonzero"></path><path fill="#000000" fill-opacity="0.0" d="m795.5816 392.72617l66.77167 0l0 114.64566l-66.77167 0z" fill-rule="nonzero"></path><path fill="#000000" d="m827.73517 419.64615l0 -2.609375l2.609375 0l0 2.609375l-2.609375 0z" fill-rule="nonzero"></path><path fill="#000000" d="m827.73517 441.64615l0 -2.609375l2.609375 0l0 2.609375l-2.609375 0z" fill-rule="nonzero"></path><path fill="#000000" d="m827.73517 463.64615l0 -2.609375l2.609375 0l0 2.609375l-2.609375 0z" fill-rule="nonzero"></path><path fill="#000000" fill-opacity="0.0" d="m565.9375 400.71512l202.04724 -224.9449" fill-rule="nonzero"></path><path stroke="#000000" stroke-width="2.0" stroke-linejoin="round" stroke-linecap="butt" d="m565.9375 400.7151l194.02856 -216.0174" fill-rule="evenodd"></path><path fill="#000000" stroke="#000000" stroke-width="2.0" stroke-linecap="butt" d="m762.42365 186.90517l3.6073608 -8.959763l-8.522644 4.5448303z" fill-rule="evenodd"></path><path fill="#000000" fill-opacity="0.0" d="m565.9375 400.71512l202.04724 -71.62207" fill-rule="nonzero"></path><path stroke="#000000" stroke-width="2.0" stroke-linejoin="round" stroke-linecap="butt" d="m565.9375 400.7151l190.73688 -67.6127" fill-rule="evenodd"></path><path fill="#000000" stroke="#000000" stroke-width="2.0" stroke-linecap="butt" d="m757.7781 336.216l7.4508667 -6.1460876l-9.658325 -0.08114624z" fill-rule="evenodd"></path><path fill="#000000" fill-opacity="0.0" d="m565.9375 400.71512l202.04724 173.66928" fill-rule="nonzero"></path><path stroke="#000000" stroke-width="2.0" stroke-linejoin="round" stroke-linecap="butt" d="m565.9375 400.7151l192.94702 165.84723" fill-rule="evenodd"></path><path fill="#000000" stroke="#000000" stroke-width="2.0" stroke-linecap="butt" d="m756.73114 569.0675l9.036316 3.4110107l-4.7296143 -8.421448z" fill-rule="evenodd"></path><path fill="#000000" fill-opacity="0.0" d="m510.4174 130.00818c6.693695 19.841354 43.50882 79.1268 40.1622 119.04817c-3.3465576 39.92137 -50.201385 100.40004 -60.24167 120.48003" fill-rule="nonzero"></path><path stroke="#999999" stroke-width="2.0" stroke-linejoin="round" stroke-linecap="butt" d="m510.41736 130.00818c6.6937256 19.84137 43.50885 79.1268 40.16223 119.04817c-1.6732788 19.960678 -14.223633 45.060684 -27.610657 67.68053c-6.6935425 11.309906 -13.596283 21.999786 -19.453094 31.117157c-2.9284363 4.5587463 -5.595398 8.724304 -7.843994 12.377716c-0.5621948 0.9133301 -1.098175 1.7947083 -1.6055603 2.6421509l-0.3985901 0.67144775" fill-rule="evenodd"></path><path fill="#999999" stroke="#999999" stroke-width="2.0" stroke-linecap="butt" d="m493.6677 363.54535l-0.8732605 -3.0585632l-1.0361023 6.493988l4.9679565 -4.3086853z" fill-rule="evenodd"></path><path fill="#efefef" d="m286.41965 315.2893l129.48032 0l0 66.64566l-129.48032 0z" fill-rule="nonzero"></path><path stroke="#980000" stroke-width="3.0" stroke-linejoin="round" stroke-linecap="butt" d="m286.41965 315.2893l129.48032 0l0 66.64566l-129.48032 0z" fill-rule="nonzero"></path><path fill="#000000" d="m316.74512 348.02026l0.4375 0q0.96875 0 1.453125 -0.375q0.484375 -0.390625 0.484375 -1.234375q0 -0.8125 -0.4375 -1.1875q-0.4375 -0.375 -1.359375 -0.375l-0.578125 0l0 3.171875zm4.671875 -1.703125q0 0.703125 -0.21875 1.359375q-0.203125 0.640625 -0.6875 1.140625q-0.484375 0.484375 -1.28125 0.78125q-0.796875 0.28125 -1.96875 0.28125l-0.515625 0l0 3.8125l-2.28125 0l0 -10.703125l2.984375 0q1.03125 0 1.78125 0.234375q0.75 0.21875 1.234375 0.65625q0.484375 0.421875 0.71875 1.046875q0.234375 0.609375 0.234375 1.390625zm5.9071655 -0.96875q0.09375 0 0.203125 0.015625q0.109375 0 0.203125 0.015625q0.09375 0 0.171875 0.015625q0.09375 0 0.140625 0.015625l0 2.09375q-0.0625 -0.015625 -0.171875 -0.015625q-0.09375 -0.015625 -0.21875 -0.03125q-0.109375 -0.015625 -0.21875 -0.015625q-0.109375 0 -0.171875 0q-0.4375 0 -0.796875 0.109375q-0.359375 0.109375 -0.625 0.359375q-0.265625 0.234375 -0.40625 0.640625q-0.140625 0.390625 -0.140625 0.96875l0 4.171875l-2.234375 0l0 -8.1875l1.6875 0l0.328125 1.234375l0.109375 0q0.1875 -0.3125 0.390625 -0.5625q0.203125 -0.265625 0.453125 -0.4375q0.25 -0.1875 0.5625 -0.28125q0.328125 -0.109375 0.734375 -0.109375zm3.95578 4.234375q0 1.21875 0.34375 1.84375q0.34375 0.625 1.125 0.625q0.765625 0 1.109375 -0.625q0.34375 -0.625 0.34375 -1.84375q0 -1.21875 -0.34375 -1.828125q-0.34375 -0.609375 -1.125 -0.609375q-0.765625 0 -1.109375 0.609375q-0.34375 0.609375 -0.34375 1.828125zm5.203125 0q0 1.03125 -0.265625 1.828125q-0.25 0.78125 -0.75 1.328125q-0.484375 0.53125 -1.1875 0.8125q-0.6875 0.28125 -1.5625 0.28125q-0.8125 0 -1.5 -0.28125q-0.671875 -0.28125 -1.171875 -0.8125q-0.5 -0.546875 -0.78125 -1.328125q-0.265625 -0.796875 -0.265625 -1.828125q0 -1.015625 0.25 -1.796875q0.265625 -0.796875 0.75 -1.328125q0.484375 -0.546875 1.1875 -0.828125q0.703125 -0.28125 1.578125 -0.28125q0.8125 0 1.484375 0.28125q0.6875 0.28125 1.171875 0.828125q0.5 0.53125 0.78125 1.328125q0.28125 0.78125 0.28125 1.796875zm4.1246033 4.25q-0.625 0 -1.15625 -0.265625q-0.515625 -0.265625 -0.890625 -0.796875q-0.359375 -0.53125 -0.578125 -1.328125q-0.203125 -0.796875 -0.203125 -1.828125q0 -1.0625 0.203125 -1.84375q0.21875 -0.796875 0.59375 -1.328125q0.390625 -0.546875 0.921875 -0.8125q0.53125 -0.28125 1.171875 -0.28125q0.40625 0 0.734375 0.09375q0.328125 0.09375 0.59375 0.265625q0.265625 0.15625 0.46875 0.375q0.203125 0.21875 0.375 0.46875l0.0625 0q-0.03125 -0.28125 -0.078125 -0.578125q-0.03125 -0.25 -0.0625 -0.53125q-0.015625 -0.28125 -0.015625 -0.53125l0 -2.609375l2.234375 0l0 11.390625l-1.71875 0l-0.421875 -1.0625l-0.09375 0q-0.15625 0.25 -0.359375 0.484375q-0.203125 0.21875 -0.46875 0.375q-0.25 0.15625 -0.578125 0.25q-0.328125 0.09375 -0.734375 0.09375zm0.8125 -1.78125q0.40625 0 0.671875 -0.125q0.28125 -0.140625 0.453125 -0.40625q0.171875 -0.28125 0.25 -0.6875q0.09375 -0.421875 0.09375 -0.96875l0 -0.234375q0 -0.59375 -0.078125 -1.046875q-0.0625 -0.46875 -0.234375 -0.78125q-0.15625 -0.3125 -0.453125 -0.46875q-0.28125 -0.171875 -0.71875 -0.171875q-0.703125 0 -1.03125 0.640625q-0.328125 0.625 -0.328125 1.84375q0 1.203125 0.328125 1.8125q0.34375 0.59375 1.046875 0.59375zm11.0503235 1.640625l-0.3125 -1.046875l-0.109375 0q-0.1875 0.3125 -0.4375 0.546875q-0.25 0.21875 -0.5625 0.359375q-0.296875 0.140625 -0.640625 0.203125q-0.328125 0.078125 -0.671875 0.078125q-0.609375 0 -1.09375 -0.171875q-0.484375 -0.171875 -0.84375 -0.53125q-0.34375 -0.375 -0.546875 -0.9375q-0.1875 -0.5625 -0.1875 -1.34375l0 -5.34375l2.234375 0l0 4.78125q0 0.890625 0.265625 1.328125q0.265625 0.4375 0.859375 0.4375q0.4375 0 0.734375 -0.171875q0.296875 -0.171875 0.46875 -0.515625q0.171875 -0.34375 0.234375 -0.84375q0.078125 -0.515625 0.078125 -1.171875l0 -3.84375l2.234375 0l0 8.1875l-1.703125 0zm7.2356567 0.140625q-0.875 0 -1.59375 -0.234375q-0.703125 -0.25 -1.203125 -0.75q-0.5 -0.515625 -0.765625 -1.296875q-0.265625 -0.796875 -0.265625 -1.90625q0 -1.234375 0.265625 -2.046875q0.28125 -0.828125 0.78125 -1.328125q0.5 -0.5 1.203125 -0.703125q0.71875 -0.21875 1.578125 -0.21875q0.625 0 1.25 0.15625q0.625 0.15625 1.171875 0.4375l-0.640625 1.6875q-0.484375 -0.203125 -0.9375 -0.34375q-0.4375 -0.140625 -0.84375 -0.140625q-0.8125 0 -1.1875 0.625q-0.359375 0.625 -0.359375 1.859375q0 1.234375 0.359375 1.828125q0.375 0.578125 1.15625 0.578125q0.640625 0 1.15625 -0.171875q0.515625 -0.171875 1.0625 -0.421875l0 1.859375q-0.265625 0.140625 -0.53125 0.25q-0.25 0.09375 -0.515625 0.15625q-0.25 0.0625 -0.53125 0.09375q-0.28125 0.03125 -0.609375 0.03125zm7.2200623 -6.890625q-0.59375 0 -0.984375 0.421875q-0.390625 0.40625 -0.453125 1.296875l2.84375 0q0 -0.359375 -0.09375 -0.671875q-0.078125 -0.328125 -0.265625 -0.546875q-0.171875 -0.234375 -0.4375 -0.359375q-0.265625 -0.140625 -0.609375 -0.140625zm0.28125 6.890625q-0.875 0 -1.625 -0.25q-0.734375 -0.25 -1.265625 -0.765625q-0.53125 -0.53125 -0.828125 -1.3125q-0.296875 -0.78125 -0.296875 -1.84375q0 -1.078125 0.265625 -1.875q0.28125 -0.8125 0.765625 -1.34375q0.484375 -0.546875 1.171875 -0.8125q0.6875 -0.28125 1.515625 -0.28125q0.8125 0 1.46875 0.25q0.65625 0.234375 1.109375 0.71875q0.453125 0.46875 0.703125 1.171875q0.25 0.6875 0.25 1.578125l0 1.09375l-5.0 0q0.015625 0.46875 0.140625 0.84375q0.140625 0.375 0.390625 0.640625q0.25 0.25 0.59375 0.390625q0.34375 0.140625 0.796875 0.140625q0.375 0 0.703125 -0.03125q0.34375 -0.046875 0.65625 -0.125q0.3125 -0.09375 0.609375 -0.203125q0.3125 -0.125 0.640625 -0.28125l0 1.71875q-0.296875 0.15625 -0.59375 0.265625q-0.296875 0.109375 -0.625 0.171875q-0.328125 0.078125 -0.71875 0.109375q-0.375 0.03125 -0.828125 0.03125zm9.187958 -8.484375q0.09375 0 0.203125 0.015625q0.109375 0 0.203125 0.015625q0.09375 0 0.171875 0.015625q0.09375 0 0.140625 0.015625l0 2.09375q-0.0625 -0.015625 -0.171875 -0.015625q-0.09375 -0.015625 -0.21875 -0.03125q-0.109375 -0.015625 -0.21875 -0.015625q-0.109375 0 -0.171875 0q-0.4375 0 -0.796875 0.109375q-0.359375 0.109375 -0.625 0.359375q-0.265625 0.234375 -0.40625 0.640625q-0.140625 0.390625 -0.140625 0.96875l0 4.171875l-2.234375 0l0 -8.1875l1.6875 0l0.328125 1.234375l0.109375 0q0.1875 -0.3125 0.390625 -0.5625q0.203125 -0.265625 0.453125 -0.4375q0.25 -0.1875 0.5625 -0.28125q0.328125 -0.109375 0.734375 -0.109375zm10.716064 8.34375l-2.265625 0l0 -6.203125q0 -0.1875 0 -0.453125q0.015625 -0.265625 0.015625 -0.546875q0.015625 -0.296875 0.015625 -0.59375q0.015625 -0.296875 0.03125 -0.53125q-0.03125 0.046875 -0.125 0.140625q-0.09375 0.078125 -0.203125 0.1875q-0.109375 0.109375 -0.234375 0.21875q-0.109375 0.109375 -0.21875 0.1875l-1.234375 1.0l-1.09375 -1.375l3.453125 -2.734375l1.859375 0l0 10.703125z" fill-rule="nonzero"></path><path fill="#efefef" d="m286.41965 397.9472l129.48032 0l0 66.64566l-129.48032 0z" fill-rule="nonzero"></path><path stroke="#980000" stroke-width="3.0" stroke-linejoin="round" stroke-linecap="butt" d="m286.41965 397.9472l129.48032 0l0 66.64566l-129.48032 0z" fill-rule="nonzero"></path><path fill="#000000" d="m316.74512 430.67816l0.4375 0q0.96875 0 1.453125 -0.375q0.484375 -0.390625 0.484375 -1.234375q0 -0.8125 -0.4375 -1.1875q-0.4375 -0.375 -1.359375 -0.375l-0.578125 0l0 3.171875zm4.671875 -1.703125q0 0.703125 -0.21875 1.359375q-0.203125 0.640625 -0.6875 1.140625q-0.484375 0.484375 -1.28125 0.78125q-0.796875 0.28125 -1.96875 0.28125l-0.515625 0l0 3.8125l-2.28125 0l0 -10.703125l2.984375 0q1.03125 0 1.78125 0.234375q0.75 0.21875 1.234375 0.65625q0.484375 0.421875 0.71875 1.046875q0.234375 0.609375 0.234375 1.390625zm5.9071655 -0.96875q0.09375 0 0.203125 0.015625q0.109375 0 0.203125 0.015625q0.09375 0 0.171875 0.015625q0.09375 0 0.140625 0.015625l0 2.09375q-0.0625 -0.015625 -0.171875 -0.015625q-0.09375 -0.015625 -0.21875 -0.03125q-0.109375 -0.015625 -0.21875 -0.015625q-0.109375 0 -0.171875 0q-0.4375 0 -0.796875 0.109375q-0.359375 0.109375 -0.625 0.359375q-0.265625 0.234375 -0.40625 0.640625q-0.140625 0.390625 -0.140625 0.96875l0 4.171875l-2.234375 0l0 -8.1875l1.6875 0l0.328125 1.234375l0.109375 0q0.1875 -0.3125 0.390625 -0.5625q0.203125 -0.265625 0.453125 -0.4375q0.25 -0.1875 0.5625 -0.28125q0.328125 -0.109375 0.734375 -0.109375zm3.95578 4.234375q0 1.21875 0.34375 1.84375q0.34375 0.625 1.125 0.625q0.765625 0 1.109375 -0.625q0.34375 -0.625 0.34375 -1.84375q0 -1.21875 -0.34375 -1.828125q-0.34375 -0.609375 -1.125 -0.609375q-0.765625 0 -1.109375 0.609375q-0.34375 0.609375 -0.34375 1.828125zm5.203125 0q0 1.03125 -0.265625 1.828125q-0.25 0.78125 -0.75 1.328125q-0.484375 0.53125 -1.1875 0.8125q-0.6875 0.28125 -1.5625 0.28125q-0.8125 0 -1.5 -0.28125q-0.671875 -0.28125 -1.171875 -0.8125q-0.5 -0.546875 -0.78125 -1.328125q-0.265625 -0.796875 -0.265625 -1.828125q0 -1.015625 0.25 -1.796875q0.265625 -0.796875 0.75 -1.328125q0.484375 -0.546875 1.1875 -0.828125q0.703125 -0.28125 1.578125 -0.28125q0.8125 0 1.484375 0.28125q0.6875 0.28125 1.171875 0.828125q0.5 0.53125 0.78125 1.328125q0.28125 0.78125 0.28125 1.796875zm4.1246033 4.25q-0.625 0 -1.15625 -0.265625q-0.515625 -0.265625 -0.890625 -0.796875q-0.359375 -0.53125 -0.578125 -1.328125q-0.203125 -0.796875 -0.203125 -1.828125q0 -1.0625 0.203125 -1.84375q0.21875 -0.796875 0.59375 -1.328125q0.390625 -0.546875 0.921875 -0.8125q0.53125 -0.28125 1.171875 -0.28125q0.40625 0 0.734375 0.09375q0.328125 0.09375 0.59375 0.265625q0.265625 0.15625 0.46875 0.375q0.203125 0.21875 0.375 0.46875l0.0625 0q-0.03125 -0.28125 -0.078125 -0.578125q-0.03125 -0.25 -0.0625 -0.53125q-0.015625 -0.28125 -0.015625 -0.53125l0 -2.609375l2.234375 0l0 11.390625l-1.71875 0l-0.421875 -1.0625l-0.09375 0q-0.15625 0.25 -0.359375 0.484375q-0.203125 0.21875 -0.46875 0.375q-0.25 0.15625 -0.578125 0.25q-0.328125 0.09375 -0.734375 0.09375zm0.8125 -1.78125q0.40625 0 0.671875 -0.125q0.28125 -0.140625 0.453125 -0.40625q0.171875 -0.28125 0.25 -0.6875q0.09375 -0.421875 0.09375 -0.96875l0 -0.234375q0 -0.59375 -0.078125 -1.046875q-0.0625 -0.46875 -0.234375 -0.78125q-0.15625 -0.3125 -0.453125 -0.46875q-0.28125 -0.171875 -0.71875 -0.171875q-0.703125 0 -1.03125 0.640625q-0.328125 0.625 -0.328125 1.84375q0 1.203125 0.328125 1.8125q0.34375 0.59375 1.046875 0.59375zm11.0503235 1.640625l-0.3125 -1.046875l-0.109375 0q-0.1875 0.3125 -0.4375 0.546875q-0.25 0.21875 -0.5625 0.359375q-0.296875 0.140625 -0.640625 0.203125q-0.328125 0.078125 -0.671875 0.078125q-0.609375 0 -1.09375 -0.171875q-0.484375 -0.171875 -0.84375 -0.53125q-0.34375 -0.375 -0.546875 -0.9375q-0.1875 -0.5625 -0.1875 -1.34375l0 -5.34375l2.234375 0l0 4.78125q0 0.890625 0.265625 1.328125q0.265625 0.4375 0.859375 0.4375q0.4375 0 0.734375 -0.171875q0.296875 -0.171875 0.46875 -0.515625q0.171875 -0.34375 0.234375 -0.84375q0.078125 -0.515625 0.078125 -1.171875l0 -3.84375l2.234375 0l0 8.1875l-1.703125 0zm7.2356567 0.140625q-0.875 0 -1.59375 -0.234375q-0.703125 -0.25 -1.203125 -0.75q-0.5 -0.515625 -0.765625 -1.296875q-0.265625 -0.796875 -0.265625 -1.90625q0 -1.234375 0.265625 -2.046875q0.28125 -0.828125 0.78125 -1.328125q0.5 -0.5 1.203125 -0.703125q0.71875 -0.21875 1.578125 -0.21875q0.625 0 1.25 0.15625q0.625 0.15625 1.171875 0.4375l-0.640625 1.6875q-0.484375 -0.203125 -0.9375 -0.34375q-0.4375 -0.140625 -0.84375 -0.140625q-0.8125 0 -1.1875 0.625q-0.359375 0.625 -0.359375 1.859375q0 1.234375 0.359375 1.828125q0.375 0.578125 1.15625 0.578125q0.640625 0 1.15625 -0.171875q0.515625 -0.171875 1.0625 -0.421875l0 1.859375q-0.265625 0.140625 -0.53125 0.25q-0.25 0.09375 -0.515625 0.15625q-0.25 0.0625 -0.53125 0.09375q-0.28125 0.03125 -0.609375 0.03125zm7.2200623 -6.890625q-0.59375 0 -0.984375 0.421875q-0.390625 0.40625 -0.453125 1.296875l2.84375 0q0 -0.359375 -0.09375 -0.671875q-0.078125 -0.328125 -0.265625 -0.546875q-0.171875 -0.234375 -0.4375 -0.359375q-0.265625 -0.140625 -0.609375 -0.140625zm0.28125 6.890625q-0.875 0 -1.625 -0.25q-0.734375 -0.25 -1.265625 -0.765625q-0.53125 -0.53125 -0.828125 -1.3125q-0.296875 -0.78125 -0.296875 -1.84375q0 -1.078125 0.265625 -1.875q0.28125 -0.8125 0.765625 -1.34375q0.484375 -0.546875 1.171875 -0.8125q0.6875 -0.28125 1.515625 -0.28125q0.8125 0 1.46875 0.25q0.65625 0.234375 1.109375 0.71875q0.453125 0.46875 0.703125 1.171875q0.25 0.6875 0.25 1.578125l0 1.09375l-5.0 0q0.015625 0.46875 0.140625 0.84375q0.140625 0.375 0.390625 0.640625q0.25 0.25 0.59375 0.390625q0.34375 0.140625 0.796875 0.140625q0.375 0 0.703125 -0.03125q0.34375 -0.046875 0.65625 -0.125q0.3125 -0.09375 0.609375 -0.203125q0.3125 -0.125 0.640625 -0.28125l0 1.71875q-0.296875 0.15625 -0.59375 0.265625q-0.296875 0.109375 -0.625 0.171875q-0.328125 0.078125 -0.71875 0.109375q-0.375 0.03125 -0.828125 0.03125zm9.187958 -8.484375q0.09375 0 0.203125 0.015625q0.109375 0 0.203125 0.015625q0.09375 0 0.171875 0.015625q0.09375 0 0.140625 0.015625l0 2.09375q-0.0625 -0.015625 -0.171875 -0.015625q-0.09375 -0.015625 -0.21875 -0.03125q-0.109375 -0.015625 -0.21875 -0.015625q-0.109375 0 -0.171875 0q-0.4375 0 -0.796875 0.109375q-0.359375 0.109375 -0.625 0.359375q-0.265625 0.234375 -0.40625 0.640625q-0.140625 0.390625 -0.140625 0.96875l0 4.171875l-2.234375 0l0 -8.1875l1.6875 0l0.328125 1.234375l0.109375 0q0.1875 -0.3125 0.390625 -0.5625q0.203125 -0.265625 0.453125 -0.4375q0.25 -0.1875 0.5625 -0.28125q0.328125 -0.109375 0.734375 -0.109375zm12.512939 8.34375l-7.1875 0l0 -1.578125l2.53125 -2.71875q0.46875 -0.515625 0.859375 -0.9375q0.390625 -0.4375 0.65625 -0.84375q0.28125 -0.40625 0.4375 -0.828125q0.15625 -0.4375 0.15625 -0.921875q0 -0.546875 -0.328125 -0.84375q-0.328125 -0.296875 -0.875 -0.296875q-0.578125 0 -1.109375 0.28125q-0.53125 0.28125 -1.125 0.8125l-1.21875 -1.453125q0.328125 -0.296875 0.6875 -0.578125q0.359375 -0.28125 0.78125 -0.484375q0.4375 -0.21875 0.953125 -0.34375q0.515625 -0.125 1.171875 -0.125q0.765625 0 1.375 0.21875q0.609375 0.203125 1.046875 0.59375q0.4375 0.390625 0.65625 0.953125q0.234375 0.546875 0.234375 1.25q0 0.625 -0.21875 1.203125q-0.21875 0.578125 -0.609375 1.140625q-0.375 0.546875 -0.875 1.09375q-0.5 0.53125 -1.078125 1.109375l-1.28125 1.296875l0 0.09375l4.359375 0l0 1.90625z" fill-rule="nonzero"></path><path fill="#efefef" d="m441.68552 367.39227l124.25198 0l0 66.64566l-124.25198 0z" fill-rule="nonzero"></path><path stroke="#980000" stroke-width="3.0" stroke-linejoin="round" stroke-linecap="butt" d="m441.68552 367.39227l124.25198 0l0 66.64566l-124.25198 0z" fill-rule="nonzero"></path><path fill="#000000" d="m470.6826 396.99698q-0.703125 0 -1.234375 0.28125q-0.53125 0.265625 -0.90625 0.765625q-0.359375 0.5 -0.546875 1.234375q-0.1875 0.71875 -0.1875 1.609375q0 0.921875 0.171875 1.640625q0.171875 0.703125 0.515625 1.1875q0.34375 0.484375 0.890625 0.75q0.546875 0.25 1.296875 0.25q0.6875 0 1.390625 -0.15625q0.703125 -0.15625 1.515625 -0.453125l0 2.03125q-0.375 0.15625 -0.75 0.265625q-0.359375 0.109375 -0.75 0.1875q-0.375 0.078125 -0.78125 0.109375q-0.390625 0.03125 -0.859375 0.03125q-1.3125 0 -2.28125 -0.421875q-0.96875 -0.421875 -1.609375 -1.1875q-0.625 -0.765625 -0.9375 -1.84375q-0.296875 -1.078125 -0.296875 -2.40625q0 -1.296875 0.34375 -2.375q0.359375 -1.078125 1.03125 -1.859375q0.6875 -0.78125 1.6875 -1.21875q1.0 -0.4375 2.296875 -0.4375q0.84375 0 1.703125 0.21875q0.859375 0.21875 1.640625 0.59375l-0.78125 1.96875q-0.640625 -0.3125 -1.296875 -0.53125q-0.640625 -0.234375 -1.265625 -0.234375zm7.1328125 5.1875q0 1.3125 0.359375 1.96875q0.375 0.65625 1.203125 0.65625q0.828125 0 1.1875 -0.65625q0.375 -0.671875 0.375 -1.96875q0 -1.296875 -0.375 -1.9375q-0.359375 -0.65625 -1.203125 -0.65625q-0.8125 0 -1.1875 0.65625q-0.359375 0.640625 -0.359375 1.9375zm5.546875 0q0 1.09375 -0.28125 1.9375q-0.265625 0.84375 -0.796875 1.421875q-0.515625 0.578125 -1.265625 0.890625q-0.734375 0.296875 -1.671875 0.296875q-0.859375 0 -1.59375 -0.296875q-0.71875 -0.3125 -1.25 -0.890625q-0.53125 -0.578125 -0.828125 -1.421875q-0.296875 -0.84375 -0.296875 -1.9375q0 -1.078125 0.28125 -1.921875q0.28125 -0.84375 0.796875 -1.421875q0.515625 -0.578125 1.25 -0.875q0.75 -0.296875 1.6875 -0.296875q0.875 0 1.59375 0.296875q0.734375 0.296875 1.25 0.875q0.53125 0.578125 0.828125 1.421875q0.296875 0.84375 0.296875 1.921875zm9.6328125 4.390625l-2.375 0l0 -5.109375q0 -0.9375 -0.296875 -1.40625q-0.28125 -0.484375 -0.90625 -0.484375q-0.46875 0 -0.78125 0.1875q-0.3125 0.1875 -0.5 0.5625q-0.171875 0.359375 -0.25 0.90625q-0.078125 0.53125 -0.078125 1.234375l0 4.109375l-2.390625 0l0 -8.734375l1.828125 0l0.3125 1.109375l0.140625 0q0.1875 -0.328125 0.453125 -0.5625q0.265625 -0.25 0.578125 -0.40625q0.328125 -0.15625 0.6875 -0.234375q0.359375 -0.078125 0.734375 -0.078125q0.640625 0 1.15625 0.1875q0.53125 0.1875 0.90625 0.578125q0.375 0.390625 0.578125 1.0q0.203125 0.59375 0.203125 1.4375l0 5.703125zm8.28125 -2.59375q0 0.6875 -0.25 1.203125q-0.25 0.515625 -0.71875 0.859375q-0.453125 0.34375 -1.109375 0.515625q-0.65625 0.171875 -1.46875 0.171875q-0.4375 0 -0.8125 -0.03125q-0.359375 -0.015625 -0.6875 -0.09375q-0.328125 -0.0625 -0.640625 -0.15625q-0.296875 -0.09375 -0.609375 -0.234375l0 -1.96875q0.328125 0.171875 0.6875 0.3125q0.375 0.125 0.734375 0.21875q0.359375 0.09375 0.6875 0.15625q0.34375 0.046875 0.640625 0.046875q0.3125 0 0.53125 -0.046875q0.234375 -0.0625 0.375 -0.171875q0.15625 -0.109375 0.21875 -0.25q0.0625 -0.140625 0.0625 -0.3125q0 -0.15625 -0.046875 -0.28125q-0.046875 -0.140625 -0.234375 -0.28125q-0.171875 -0.140625 -0.53125 -0.328125q-0.34375 -0.1875 -0.921875 -0.453125q-0.578125 -0.25 -1.0 -0.5q-0.40625 -0.265625 -0.6875 -0.578125q-0.265625 -0.3125 -0.40625 -0.703125q-0.125 -0.40625 -0.125 -0.96875q0 -0.609375 0.234375 -1.0625q0.234375 -0.453125 0.65625 -0.75q0.4375 -0.3125 1.046875 -0.46875q0.609375 -0.15625 1.34375 -0.15625q0.78125 0 1.484375 0.1875q0.703125 0.171875 1.453125 0.53125l-0.71875 1.6875q-0.59375 -0.28125 -1.140625 -0.453125q-0.53125 -0.1875 -1.078125 -0.1875q-0.484375 0 -0.703125 0.171875q-0.203125 0.171875 -0.203125 0.46875q0 0.15625 0.046875 0.28125q0.0625 0.125 0.21875 0.25q0.171875 0.125 0.46875 0.28125q0.296875 0.15625 0.765625 0.375q0.5625 0.234375 1.0 0.484375q0.453125 0.234375 0.765625 0.546875q0.328125 0.296875 0.5 0.703125q0.171875 0.40625 0.171875 0.984375zm7.5859375 2.59375l-0.328125 -1.125l-0.125 0q-0.1875 0.34375 -0.46875 0.578125q-0.265625 0.234375 -0.59375 0.40625q-0.3125 0.15625 -0.671875 0.21875q-0.359375 0.078125 -0.734375 0.078125q-0.640625 0 -1.171875 -0.1875q-0.515625 -0.1875 -0.890625 -0.578125q-0.375 -0.390625 -0.578125 -0.984375q-0.203125 -0.609375 -0.203125 -1.453125l0 -5.6875l2.390625 0l0 5.09375q0 0.953125 0.28125 1.421875q0.28125 0.46875 0.90625 0.46875q0.46875 0 0.78125 -0.1875q0.3125 -0.1875 0.5 -0.546875q0.1875 -0.375 0.265625 -0.90625q0.078125 -0.546875 0.078125 -1.234375l0 -4.109375l2.375 0l0 8.734375l-1.8125 0zm11.8125305 0l-2.375 0l0 -5.109375q0 -0.9375 -0.28125 -1.40625q-0.28125 -0.484375 -0.890625 -0.484375q-0.453125 0 -0.75 0.1875q-0.296875 0.1875 -0.484375 0.5625q-0.171875 0.359375 -0.25 0.90625q-0.078125 0.53125 -0.078125 1.234375l0 4.109375l-2.390625 0l0 -8.734375l1.828125 0l0.3125 1.109375l0.140625 0q0.1875 -0.328125 0.4375 -0.5625q0.265625 -0.25 0.578125 -0.40625q0.3125 -0.15625 0.65625 -0.234375q0.359375 -0.078125 0.71875 -0.078125q0.90625 0 1.53125 0.3125q0.625 0.3125 0.96875 0.96875l0.1875 0q0.1875 -0.328125 0.453125 -0.5625q0.265625 -0.25 0.578125 -0.40625q0.328125 -0.15625 0.6875 -0.234375q0.359375 -0.078125 0.71875 -0.078125q1.40625 0 2.109375 0.765625q0.71875 0.765625 0.71875 2.4375l0 5.703125l-2.390625 0l0 -5.109375q0 -0.9375 -0.28125 -1.40625q-0.28125 -0.484375 -0.875 -0.484375q-0.859375 0 -1.21875 0.6875q-0.359375 0.671875 -0.359375 1.921875l0 4.390625zm11.1015625 -7.203125q-0.625 0 -1.046875 0.453125q-0.421875 0.4375 -0.484375 1.390625l3.046875 0q-0.015625 -0.40625 -0.109375 -0.734375q-0.09375 -0.34375 -0.28125 -0.578125q-0.1875 -0.25 -0.46875 -0.390625q-0.28125 -0.140625 -0.65625 -0.140625zm0.3125 7.359375q-0.9375 0 -1.734375 -0.265625q-0.78125 -0.28125 -1.359375 -0.828125q-0.5625 -0.5625 -0.890625 -1.390625q-0.3125 -0.84375 -0.3125 -1.984375q0 -1.140625 0.28125 -2.0q0.296875 -0.859375 0.8125 -1.4375q0.53125 -0.578125 1.25 -0.859375q0.734375 -0.296875 1.625 -0.296875q0.875 0 1.5625 0.265625q0.703125 0.265625 1.1875 0.78125q0.5 0.5 0.75 1.234375q0.265625 0.734375 0.265625 1.6875l0 1.15625l-5.328125 0q0.015625 0.5 0.15625 0.90625q0.15625 0.40625 0.40625 0.6875q0.265625 0.265625 0.640625 0.421875q0.375 0.140625 0.84375 0.140625q0.40625 0 0.75 -0.03125q0.359375 -0.046875 0.6875 -0.125q0.34375 -0.09375 0.671875 -0.21875q0.328125 -0.140625 0.671875 -0.3125l0 1.84375q-0.3125 0.171875 -0.625 0.28125q-0.3125 0.109375 -0.671875 0.1875q-0.34375 0.09375 -0.75 0.125q-0.40625 0.03125 -0.890625 0.03125zm10.015625 -9.0625q0.09375 0 0.203125 0.015625q0.109375 0 0.21875 0.015625q0.109375 0 0.1875 0.015625q0.09375 0.015625 0.140625 0.03125l0 2.234375q-0.0625 -0.015625 -0.171875 -0.03125q-0.109375 -0.015625 -0.234375 -0.03125q-0.109375 -0.015625 -0.234375 -0.015625q-0.109375 0 -0.1875 0q-0.46875 0 -0.859375 0.125q-0.375 0.109375 -0.65625 0.375q-0.28125 0.25 -0.4375 0.6875q-0.140625 0.421875 -0.140625 1.03125l0 4.453125l-2.390625 0l0 -8.734375l1.8125 0l0.34375 1.3125l0.125 0q0.1875 -0.34375 0.40625 -0.609375q0.21875 -0.28125 0.484375 -0.46875q0.265625 -0.1875 0.609375 -0.296875q0.34375 -0.109375 0.78125 -0.109375z" fill-rule="nonzero"></path><path fill="#efefef" d="m286.41965 521.48804l129.48032 0l0 66.64569l-129.48032 0z" fill-rule="nonzero"></path><path stroke="#980000" stroke-width="3.0" stroke-linejoin="round" stroke-linecap="butt" d="m286.41965 521.48804l129.48032 0l0 66.64569l-129.48032 0z" fill-rule="nonzero"></path><path fill="#000000" d="m315.0419 554.219l0.4375 0q0.96875 0 1.453125 -0.375q0.484375 -0.390625 0.484375 -1.234375q0 -0.8125 -0.4375 -1.1875q-0.4375 -0.375 -1.359375 -0.375l-0.578125 0l0 3.171875zm4.671875 -1.703125q0 0.703125 -0.21875 1.359375q-0.203125 0.640625 -0.6875 1.140625q-0.484375 0.484375 -1.28125 0.78125q-0.796875 0.28125 -1.96875 0.28125l-0.515625 0l0 3.8125l-2.28125 0l0 -10.703125l2.984375 0q1.03125 0 1.78125 0.234375q0.75 0.21875 1.234375 0.65625q0.484375 0.421875 0.71875 1.046875q0.234375 0.609375 0.234375 1.390625zm5.9071655 -0.96875q0.09375 0 0.203125 0.015625q0.109375 0 0.203125 0.015625q0.09375 0 0.171875 0.015625q0.09375 0 0.140625 0.015625l0 2.09375q-0.0625 -0.015625 -0.171875 -0.015625q-0.09375 -0.015625 -0.21875 -0.03125q-0.109375 -0.015625 -0.21875 -0.015625q-0.109375 0 -0.171875 0q-0.4375 0 -0.796875 0.109375q-0.359375 0.109375 -0.625 0.359375q-0.265625 0.234375 -0.40625 0.640625q-0.140625 0.390625 -0.140625 0.96875l0 4.171875l-2.234375 0l0 -8.1875l1.6875 0l0.328125 1.234375l0.109375 0q0.1875 -0.3125 0.390625 -0.5625q0.203125 -0.265625 0.453125 -0.4375q0.25 -0.1875 0.5625 -0.28125q0.328125 -0.109375 0.734375 -0.109375zm3.95578 4.234375q0 1.21875 0.34375 1.84375q0.34375 0.625 1.125 0.625q0.765625 0 1.109375 -0.625q0.34375 -0.625 0.34375 -1.84375q0 -1.21875 -0.34375 -1.828125q-0.34375 -0.609375 -1.125 -0.609375q-0.765625 0 -1.109375 0.609375q-0.34375 0.609375 -0.34375 1.828125zm5.203125 0q0 1.03125 -0.265625 1.828125q-0.25 0.78125 -0.75 1.328125q-0.484375 0.53125 -1.1875 0.8125q-0.6875 0.28125 -1.5625 0.28125q-0.8125 0 -1.5 -0.28125q-0.671875 -0.28125 -1.171875 -0.8125q-0.5 -0.546875 -0.78125 -1.328125q-0.265625 -0.796875 -0.265625 -1.828125q0 -1.015625 0.25 -1.796875q0.265625 -0.796875 0.75 -1.328125q0.484375 -0.546875 1.1875 -0.828125q0.703125 -0.28125 1.578125 -0.28125q0.8125 0 1.484375 0.28125q0.6875 0.28125 1.171875 0.828125q0.5 0.53125 0.78125 1.328125q0.28125 0.78125 0.28125 1.796875zm4.1246033 4.25q-0.625 0 -1.15625 -0.265625q-0.515625 -0.265625 -0.890625 -0.796875q-0.359375 -0.53125 -0.578125 -1.328125q-0.203125 -0.796875 -0.203125 -1.828125q0 -1.0625 0.203125 -1.84375q0.21875 -0.796875 0.59375 -1.328125q0.390625 -0.546875 0.921875 -0.8125q0.53125 -0.28125 1.171875 -0.28125q0.40625 0 0.734375 0.09375q0.328125 0.09375 0.59375 0.265625q0.265625 0.15625 0.46875 0.375q0.203125 0.21875 0.375 0.46875l0.0625 0q-0.03125 -0.28125 -0.078125 -0.578125q-0.03125 -0.25 -0.0625 -0.53125q-0.015625 -0.28125 -0.015625 -0.53125l0 -2.609375l2.234375 0l0 11.390625l-1.71875 0l-0.421875 -1.0625l-0.09375 0q-0.15625 0.25 -0.359375 0.484375q-0.203125 0.21875 -0.46875 0.375q-0.25 0.15625 -0.578125 0.25q-0.328125 0.09375 -0.734375 0.09375zm0.8125 -1.78125q0.40625 0 0.671875 -0.125q0.28125 -0.140625 0.453125 -0.40625q0.171875 -0.28125 0.25 -0.6875q0.09375 -0.421875 0.09375 -0.96875l0 -0.234375q0 -0.59375 -0.078125 -1.046875q-0.0625 -0.46875 -0.234375 -0.78125q-0.15625 -0.3125 -0.453125 -0.46875q-0.28125 -0.171875 -0.71875 -0.171875q-0.703125 0 -1.03125 0.640625q-0.328125 0.625 -0.328125 1.84375q0 1.203125 0.328125 1.8125q0.34375 0.59375 1.046875 0.59375zm11.0503235 1.640625l-0.3125 -1.046875l-0.109375 0q-0.1875 0.3125 -0.4375 0.546875q-0.25 0.21875 -0.5625 0.359375q-0.296875 0.140625 -0.640625 0.203125q-0.328125 0.078125 -0.671875 0.078125q-0.609375 0 -1.09375 -0.171875q-0.484375 -0.171875 -0.84375 -0.53125q-0.34375 -0.375 -0.546875 -0.9375q-0.1875 -0.5625 -0.1875 -1.34375l0 -5.34375l2.234375 0l0 4.78125q0 0.890625 0.265625 1.328125q0.265625 0.4375 0.859375 0.4375q0.4375 0 0.734375 -0.171875q0.296875 -0.171875 0.46875 -0.515625q0.171875 -0.34375 0.234375 -0.84375q0.078125 -0.515625 0.078125 -1.171875l0 -3.84375l2.234375 0l0 8.1875l-1.703125 0zm7.2356567 0.140625q-0.875 0 -1.59375 -0.234375q-0.703125 -0.25 -1.203125 -0.75q-0.5 -0.515625 -0.765625 -1.296875q-0.265625 -0.796875 -0.265625 -1.90625q0 -1.234375 0.265625 -2.046875q0.28125 -0.828125 0.78125 -1.328125q0.5 -0.5 1.203125 -0.703125q0.71875 -0.21875 1.578125 -0.21875q0.625 0 1.25 0.15625q0.625 0.15625 1.171875 0.4375l-0.640625 1.6875q-0.484375 -0.203125 -0.9375 -0.34375q-0.4375 -0.140625 -0.84375 -0.140625q-0.8125 0 -1.1875 0.625q-0.359375 0.625 -0.359375 1.859375q0 1.234375 0.359375 1.828125q0.375 0.578125 1.15625 0.578125q0.640625 0 1.15625 -0.171875q0.515625 -0.171875 1.0625 -0.421875l0 1.859375q-0.265625 0.140625 -0.53125 0.25q-0.25 0.09375 -0.515625 0.15625q-0.25 0.0625 -0.53125 0.09375q-0.28125 0.03125 -0.609375 0.03125zm7.2200623 -6.890625q-0.59375 0 -0.984375 0.421875q-0.390625 0.40625 -0.453125 1.296875l2.84375 0q0 -0.359375 -0.09375 -0.671875q-0.078125 -0.328125 -0.265625 -0.546875q-0.171875 -0.234375 -0.4375 -0.359375q-0.265625 -0.140625 -0.609375 -0.140625zm0.28125 6.890625q-0.875 0 -1.625 -0.25q-0.734375 -0.25 -1.265625 -0.765625q-0.53125 -0.53125 -0.828125 -1.3125q-0.296875 -0.78125 -0.296875 -1.84375q0 -1.078125 0.265625 -1.875q0.28125 -0.8125 0.765625 -1.34375q0.484375 -0.546875 1.171875 -0.8125q0.6875 -0.28125 1.515625 -0.28125q0.8125 0 1.46875 0.25q0.65625 0.234375 1.109375 0.71875q0.453125 0.46875 0.703125 1.171875q0.25 0.6875 0.25 1.578125l0 1.09375l-5.0 0q0.015625 0.46875 0.140625 0.84375q0.140625 0.375 0.390625 0.640625q0.25 0.25 0.59375 0.390625q0.34375 0.140625 0.796875 0.140625q0.375 0 0.703125 -0.03125q0.34375 -0.046875 0.65625 -0.125q0.3125 -0.09375 0.609375 -0.203125q0.3125 -0.125 0.640625 -0.28125l0 1.71875q-0.296875 0.15625 -0.59375 0.265625q-0.296875 0.109375 -0.625 0.171875q-0.328125 0.078125 -0.71875 0.109375q-0.375 0.03125 -0.828125 0.03125zm9.187958 -8.484375q0.09375 0 0.203125 0.015625q0.109375 0 0.203125 0.015625q0.09375 0 0.171875 0.015625q0.09375 0 0.140625 0.015625l0 2.09375q-0.0625 -0.015625 -0.171875 -0.015625q-0.09375 -0.015625 -0.21875 -0.03125q-0.109375 -0.015625 -0.21875 -0.015625q-0.109375 0 -0.171875 0q-0.4375 0 -0.796875 0.109375q-0.359375 0.109375 -0.625 0.359375q-0.265625 0.234375 -0.40625 0.640625q-0.140625 0.390625 -0.140625 0.96875l0 4.171875l-2.234375 0l0 -8.1875l1.6875 0l0.328125 1.234375l0.109375 0q0.1875 -0.3125 0.390625 -0.5625q0.203125 -0.265625 0.453125 -0.4375q0.25 -0.1875 0.5625 -0.28125q0.328125 -0.109375 0.734375 -0.109375zm15.122314 8.34375l-2.875 0l-4.21875 -8.09375l-0.0625 0q0.046875 0.5625 0.078125 1.109375q0.03125 0.484375 0.046875 1.015625q0.015625 0.515625 0.015625 0.921875l0 5.046875l-2.03125 0l0 -10.703125l2.875 0l4.203125 8.015625l0.03125 0q-0.015625 -0.5625 -0.046875 -1.09375q0 -0.234375 -0.015625 -0.484375q-0.015625 -0.25 -0.03125 -0.484375q0 -0.25 0 -0.46875q0 -0.234375 0 -0.421875l0 -5.0625l2.03125 0l0 10.703125z" fill-rule="nonzero"></path><path fill="#000000" fill-opacity="0.0" d="m317.786 446.15683l66.77167 0l0 71.62204l-66.77167 0z" fill-rule="nonzero"></path><path fill="#000000" d="m349.93958 473.0768l0 -2.609375l2.609375 0l0 2.609375l-2.609375 0z" fill-rule="nonzero"></path><path fill="#000000" d="m349.93958 495.0768l0 -2.609375l2.609375 0l0 2.609375l-2.609375 0z" fill-rule="nonzero"></path><path fill="#000000" fill-opacity="0.0" d="m286.41965 554.8109c-12.5000305 0 -29.263855 -102.82678 -25.000061 -205.65356c4.2637634 -102.82678 29.555145 -205.65355 59.11029 -205.65355" fill-rule="nonzero"></path><path stroke="#999999" stroke-width="2.0" stroke-linejoin="round" stroke-linecap="butt" d="m286.41965 554.8109c-12.500061 0 -29.263855 -102.82678 -25.000061 -205.65356c2.131897 -51.41339 9.52066 -102.82678 20.070892 -141.38683c5.2750854 -19.280014 11.340546 -35.346695 17.934418 -46.59337c1.648468 -2.811676 3.3299866 -5.3220825 5.0404053 -7.5061493c0.8552246 -1.092041 1.7176819 -2.102478 2.5868225 -3.0281982c0.43460083 -0.4628601 0.8708496 -0.904541 1.3087463 -1.3246307c0.2189331 -0.21006775 0.43829346 -0.41471863 0.65802 -0.6139374c0.1098938 -0.099594116 0.21984863 -0.19784546 0.32989502 -0.2947235l0.16622925 -0.144104" fill-rule="evenodd"></path><path fill="#999999" stroke="#999999" stroke-width="2.0" stroke-linecap="butt" d="m310.82584 151.29767l7.0202637 -6.6336975l-9.641907 0.5691681z" fill-rule="evenodd"></path><path fill="#000000" fill-opacity="0.0" d="m286.41965 431.27002c-12.5000305 0 -29.263855 -71.944885 -25.000061 -143.88977c4.2637634 -71.94487 29.555145 -143.88976 59.11029 -143.88976" fill-rule="nonzero"></path><path stroke="#999999" stroke-width="2.0" stroke-linejoin="round" stroke-linecap="butt" d="m286.41965 431.27002c-12.500061 0 -29.263855 -71.944885 -25.000061 -143.88974c2.131897 -35.972458 9.52066 -71.944885 20.070892 -98.924225c5.2750854 -13.48967 11.340546 -24.731064 17.934418 -32.600037c1.648468 -1.9672394 3.3299866 -3.723709 5.0404053 -5.251831c0.8552246 -0.7640686 1.7176819 -1.4710388 2.5868225 -2.1187286c0.43460083 -0.32385254 0.8708496 -0.6328888 1.3087463 -0.92681885c0.2189331 -0.14697266 0.43829346 -0.29016113 0.65802 -0.42955017l0.06338501 -0.039611816" fill-rule="evenodd"></path><path fill="#999999" stroke="#999999" stroke-width="2.0" stroke-linecap="butt" d="m310.07303 150.24086l7.667633 -5.873474l-9.649139 -0.42930603z" fill-rule="evenodd"></path><path fill="#000000" fill-opacity="0.0" d="m286.41965 348.61212c-12.5000305 0 -29.263855 -51.275574 -25.000061 -102.55118c4.2637634 -51.27559 29.555145 -102.55118 59.11029 -102.55118" fill-rule="nonzero"></path><path stroke="#999999" stroke-width="2.0" stroke-linejoin="round" stroke-linecap="butt" d="m286.41965 348.61212c-12.500061 0 -29.263855 -51.275604 -25.000061 -102.55118c2.131897 -25.637802 9.52066 -51.27559 20.070892 -70.50394c5.2750854 -9.6141815 11.340546 -17.625992 17.934418 -23.234253c1.648468 -1.4020691 3.3299866 -2.6539154 5.0404053 -3.7430267c0.8552246 -0.5445404 1.7176819 -1.0484161 2.5868225 -1.510025c0.43460083 -0.23080444 0.8708496 -0.45106506 1.3087463 -0.660553l0.4720459 -0.21961975" fill-rule="evenodd"></path><path fill="#999999" stroke="#999999" stroke-width="2.0" stroke-linecap="butt" d="m309.57062 149.40958l8.109283 -5.246887l-9.584686 -1.1931915z" fill-rule="evenodd"></path><path fill="#000000" fill-opacity="0.0" d="m71.540245 558.6999l219.18109 -0.47247314" fill-rule="nonzero"></path><path stroke="#000000" stroke-width="2.0" stroke-linejoin="round" stroke-linecap="butt" d="m71.540245 558.6999l207.18112 -0.44659424" fill-rule="evenodd"></path><path fill="#000000" stroke="#000000" stroke-width="2.0" stroke-linecap="butt" d="m278.72852 561.55676l9.069031 -3.322998l-9.083282 -3.2839355z" fill-rule="evenodd"></path><path fill="#000000" fill-opacity="0.0" d="m78.6951 513.94324l158.11024 0l0 41.007874l-158.11024 0z" fill-rule="nonzero"></path><path fill="#000000" d="m88.210724 542.147q-0.375 0 -0.625 -0.0625q-0.25 -0.046875 -0.421875 -0.125l0 -1.15625q0.203125 0.078125 0.421875 0.109375q0.203125 0.046875 0.484375 0.046875q0.203125 0 0.375 -0.0625q0.1875 -0.046875 0.328125 -0.203125q0.140625 -0.15625 0.203125 -0.40625q0.078125 -0.25 0.078125 -0.65625l0 -9.90625l1.421875 0l0 9.8125q0 0.609375 -0.140625 1.078125q-0.125 0.484375 -0.40625 0.828125q-0.28125 0.34375 -0.703125 0.515625q-0.421875 0.1875 -1.015625 0.1875zm0.734375 -14.75q0 -0.46875 0.234375 -0.671875q0.25 -0.21875 0.59375 -0.21875q0.171875 0 0.328125 0.0625q0.15625 0.046875 0.265625 0.15625q0.109375 0.109375 0.171875 0.28125q0.078125 0.15625 0.078125 0.390625q0 0.453125 -0.25 0.6875q-0.25 0.21875 -0.59375 0.21875q-0.34375 0 -0.59375 -0.21875q-0.234375 -0.21875 -0.234375 -0.6875zm11.25 6.59375q0 1.078125 -0.265625 1.90625q-0.265625 0.828125 -0.75 1.40625q-0.484375 0.5625 -1.1875 0.859375q-0.6875 0.296875 -1.5625 0.296875q-0.796875 0 -1.484375 -0.296875q-0.671875 -0.296875 -1.171875 -0.859375q-0.5 -0.578125 -0.78125 -1.40625q-0.265625 -0.828125 -0.265625 -1.90625q0 -1.0625 0.25 -1.875q0.265625 -0.828125 0.75 -1.390625q0.484375 -0.578125 1.1875 -0.859375q0.703125 -0.296875 1.5625 -0.296875q0.8125 0 1.484375 0.296875q0.6875 0.28125 1.171875 0.859375q0.5 0.5625 0.78125 1.390625q0.28125 0.8125 0.28125 1.875zm-6.0 0q0 1.640625 0.53125 2.46875q0.53125 0.8125 1.734375 0.8125q1.203125 0 1.734375 -0.8125q0.53125 -0.828125 0.53125 -2.46875q0 -1.625 -0.546875 -2.4375q-0.53125 -0.8125 -1.734375 -0.8125q-1.203125 0 -1.734375 0.8125q-0.515625 0.8125 -0.515625 2.4375zm12.109375 -4.421875q0.734375 0 1.328125 0.28125q0.609375 0.28125 1.03125 0.84375q0.4375 0.546875 0.671875 1.375q0.234375 0.828125 0.234375 1.921875q0 1.109375 -0.234375 1.9375q-0.234375 0.828125 -0.671875 1.390625q-0.421875 0.5625 -1.03125 0.859375q-0.59375 0.28125 -1.328125 0.28125q-0.453125 0 -0.828125 -0.109375q-0.375 -0.09375 -0.6875 -0.265625q-0.296875 -0.171875 -0.53125 -0.390625q-0.21875 -0.234375 -0.40625 -0.484375l-0.09375 0l-0.28125 1.09375l-1.046875 0l0 -12.15625l1.421875 0l0 2.9375q0 0.265625 -0.015625 0.578125q0 0.3125 -0.015625 0.578125q-0.015625 0.3125 -0.03125 0.609375l0.0625 0q0.1875 -0.28125 0.40625 -0.515625q0.234375 -0.234375 0.53125 -0.40625q0.296875 -0.171875 0.671875 -0.265625q0.375 -0.09375 0.84375 -0.09375zm-0.265625 1.171875q-0.625 0 -1.046875 0.203125q-0.421875 0.203125 -0.671875 0.609375q-0.25 0.40625 -0.359375 1.015625q-0.109375 0.609375 -0.109375 1.421875q0 0.796875 0.109375 1.40625q0.109375 0.609375 0.359375 1.03125q0.25 0.421875 0.671875 0.640625q0.421875 0.203125 1.0625 0.203125q1.046875 0 1.546875 -0.84375q0.5 -0.859375 0.5 -2.453125q0 -1.625 -0.5 -2.421875q-0.5 -0.8125 -1.5625 -0.8125zm14.125 7.5625l-1.375 0l0 -7.140625q0 -0.328125 0 -0.703125q0 -0.390625 0.015625 -0.765625q0.015625 -0.390625 0.015625 -0.734375q0.015625 -0.34375 0.03125 -0.609375q-0.140625 0.140625 -0.25 0.25q-0.09375 0.09375 -0.203125 0.1875q-0.09375 0.09375 -0.21875 0.203125q-0.109375 0.09375 -0.28125 0.234375l-1.15625 0.953125l-0.75 -0.96875l3.0 -2.328125l1.171875 0l0 11.421875zm11.3125 -5.734375q0 1.390625 -0.203125 2.484375q-0.1875 1.09375 -0.640625 1.859375q-0.4375 0.75 -1.140625 1.15625q-0.6875 0.390625 -1.671875 0.390625q-0.921875 0 -1.609375 -0.390625q-0.6875 -0.40625 -1.140625 -1.15625q-0.4375 -0.765625 -0.671875 -1.859375q-0.21875 -1.09375 -0.21875 -2.484375q0 -1.375 0.203125 -2.46875q0.203125 -1.09375 0.625 -1.84375q0.4375 -0.765625 1.125 -1.15625q0.703125 -0.40625 1.6875 -0.40625q0.921875 0 1.609375 0.40625q0.6875 0.390625 1.140625 1.140625q0.453125 0.75 0.671875 1.84375q0.234375 1.09375 0.234375 2.484375zm-5.84375 0q0 1.171875 0.109375 2.046875q0.125 0.875 0.375 1.46875q0.265625 0.578125 0.671875 0.875q0.421875 0.28125 1.03125 0.28125q0.59375 0 1.015625 -0.28125q0.421875 -0.296875 0.6875 -0.875q0.28125 -0.578125 0.390625 -1.453125q0.125 -0.875 0.125 -2.0625q0 -1.171875 -0.125 -2.046875q-0.109375 -0.875 -0.390625 -1.453125q-0.265625 -0.578125 -0.6875 -0.859375q-0.421875 -0.296875 -1.015625 -0.296875q-0.609375 0 -1.03125 0.296875q-0.40625 0.28125 -0.671875 0.859375q-0.25 0.578125 -0.375 1.453125q-0.109375 0.875 -0.109375 2.046875zm9.421875 3.875l0.125 0.171875q-0.109375 0.421875 -0.265625 0.90625q-0.15625 0.46875 -0.34375 0.953125q-0.171875 0.5 -0.375 0.96875q-0.203125 0.484375 -0.390625 0.921875l-1.078125 0q0.109375 -0.46875 0.21875 -0.984375q0.125 -0.515625 0.21875 -1.03125q0.109375 -0.515625 0.1875 -1.0q0.09375 -0.5 0.15625 -0.90625l1.546875 0zm9.234375 -3.875q0 1.390625 -0.203125 2.484375q-0.1875 1.09375 -0.640625 1.859375q-0.4375 0.75 -1.140625 1.15625q-0.6875 0.390625 -1.671875 0.390625q-0.921875 0 -1.609375 -0.390625q-0.6875 -0.40625 -1.140625 -1.15625q-0.4375 -0.765625 -0.671875 -1.859375q-0.21875 -1.09375 -0.21875 -2.484375q0 -1.375 0.203125 -2.46875q0.203125 -1.09375 0.625 -1.84375q0.4375 -0.765625 1.125 -1.15625q0.703125 -0.40625 1.6875 -0.40625q0.921875 0 1.609375 0.40625q0.6875 0.390625 1.140625 1.140625q0.453125 0.75 0.671875 1.84375q0.234375 1.09375 0.234375 2.484375zm-5.84375 0q0 1.171875 0.109375 2.046875q0.125 0.875 0.375 1.46875q0.265625 0.578125 0.671875 0.875q0.421875 0.28125 1.03125 0.28125q0.59375 0 1.015625 -0.28125q0.421875 -0.296875 0.6875 -0.875q0.28125 -0.578125 0.390625 -1.453125q0.125 -0.875 0.125 -2.0625q0 -1.171875 -0.125 -2.046875q-0.109375 -0.875 -0.390625 -1.453125q-0.265625 -0.578125 -0.6875 -0.859375q-0.421875 -0.296875 -1.015625 -0.296875q-0.609375 0 -1.03125 0.296875q-0.40625 0.28125 -0.671875 0.859375q-0.25 0.578125 -0.375 1.453125q-0.109375 0.875 -0.109375 2.046875zm14.65625 0q0 1.390625 -0.203125 2.484375q-0.1875 1.09375 -0.640625 1.859375q-0.4375 0.75 -1.140625 1.15625q-0.6875 0.390625 -1.671875 0.390625q-0.921875 0 -1.609375 -0.390625q-0.6875 -0.40625 -1.140625 -1.15625q-0.4375 -0.765625 -0.671875 -1.859375q-0.21875 -1.09375 -0.21875 -2.484375q0 -1.375 0.203125 -2.46875q0.203125 -1.09375 0.625 -1.84375q0.4375 -0.765625 1.125 -1.15625q0.703125 -0.40625 1.6875 -0.40625q0.921875 0 1.609375 0.40625q0.6875 0.390625 1.140625 1.140625q0.453125 0.75 0.671875 1.84375q0.234375 1.09375 0.234375 2.484375zm-5.84375 0q0 1.171875 0.109375 2.046875q0.125 0.875 0.375 1.46875q0.265625 0.578125 0.671875 0.875q0.421875 0.28125 1.03125 0.28125q0.59375 0 1.015625 -0.28125q0.421875 -0.296875 0.6875 -0.875q0.28125 -0.578125 0.390625 -1.453125q0.125 -0.875 0.125 -2.0625q0 -1.171875 -0.125 -2.046875q-0.109375 -0.875 -0.390625 -1.453125q-0.265625 -0.578125 -0.6875 -0.859375q-0.421875 -0.296875 -1.015625 -0.296875q-0.609375 0 -1.03125 0.296875q-0.40625 0.28125 -0.671875 0.859375q-0.25 0.578125 -0.375 1.453125q-0.109375 0.875 -0.109375 2.046875zm14.65625 0q0 1.390625 -0.203125 2.484375q-0.1875 1.09375 -0.640625 1.859375q-0.4375 0.75 -1.140625 1.15625q-0.6875 0.390625 -1.671875 0.390625q-0.921875 0 -1.609375 -0.390625q-0.6875 -0.40625 -1.140625 -1.15625q-0.4375 -0.765625 -0.671875 -1.859375q-0.21875 -1.09375 -0.21875 -2.484375q0 -1.375 0.203125 -2.46875q0.203125 -1.09375 0.625 -1.84375q0.4375 -0.765625 1.125 -1.15625q0.703125 -0.40625 1.6875 -0.40625q0.921875 0 1.609375 0.40625q0.6875 0.390625 1.140625 1.140625q0.453125 0.75 0.671875 1.84375q0.234375 1.09375 0.234375 2.484375zm-5.84375 0q0 1.171875 0.109375 2.046875q0.125 0.875 0.375 1.46875q0.265625 0.578125 0.671875 0.875q0.421875 0.28125 1.03125 0.28125q0.59375 0 1.015625 -0.28125q0.421875 -0.296875 0.6875 -0.875q0.28125 -0.578125 0.390625 -1.453125q0.125 -0.875 0.125 -2.0625q0 -1.171875 -0.125 -2.046875q-0.109375 -0.875 -0.390625 -1.453125q-0.265625 -0.578125 -0.6875 -0.859375q-0.421875 -0.296875 -1.015625 -0.296875q-0.609375 0 -1.03125 0.296875q-0.40625 0.28125 -0.671875 0.859375q-0.25 0.578125 -0.375 1.453125q-0.109375 0.875 -0.109375 2.046875z" fill-rule="nonzero"></path></g></svg>

