<?xml version="1.0" standalone="yes"?>

<svg version="1.1" viewBox="0.0 0.0 960.0 720.0" fill="none" stroke="none" stroke-linecap="square" stroke-miterlimit="10" xmlns="http://www.w3.org/2000/svg" xmlns:xlink="http://www.w3.org/1999/xlink"><clipPath id="p.0"><path d="m0 0l960.0 0l0 720.0l-960.0 0l0 -720.0z" clip-rule="nonzero"></path></clipPath><g clip-path="url(#p.0)"><path fill="#000000" fill-opacity="0.0" d="m0 0l960.0 0l0 720.0l-960.0 0z" fill-rule="nonzero"></path><path fill="#efefef" d="m253.6924 260.95544l329.10236 0l0 244.47244l-329.10236 0z" fill-rule="nonzero"></path><path stroke="#980000" stroke-width="3.0" stroke-linejoin="round" stroke-linecap="butt" d="m253.6924 260.95544l329.10236 0l0 244.47244l-329.10236 0z" fill-rule="nonzero"></path><path fill="#000000" d="m385.10687 380.73166l-3.625 0l0 -14.109375l-4.296875 0l0 -3.03125l12.203125 0l0 3.03125l-4.28125 0l0 14.109375zm16.703125 0l-1.171875 -4.078125l-5.90625 0l-1.1875 4.078125l-3.671875 0l5.5625 -17.203125l4.453125 0l5.578125 17.203125l-3.65625 0zm-2.015625 -7.125l-1.109375 -3.75q-0.0625 -0.21875 -0.203125 -0.6875q-0.140625 -0.484375 -0.3125 -1.0625q-0.15625 -0.578125 -0.296875 -1.15625q-0.140625 -0.59375 -0.1875 -1.015625q-0.046875 0.265625 -0.125 0.625q-0.078125 0.34375 -0.1875 0.734375q-0.09375 0.390625 -0.203125 0.796875q-0.09375 0.390625 -0.1875 0.75q-0.09375 0.34375 -0.171875 0.625q-0.078125 0.265625 -0.109375 0.390625l-1.09375 3.75l4.1875 0zm22.300781 7.125l-4.59375 0l-6.75 -12.96875l-0.09375 0q0.0625 0.90625 0.109375 1.796875q0.046875 0.765625 0.078125 1.609375q0.03125 0.828125 0.03125 1.5l0 8.0625l-3.25 0l0 -17.140625l4.578125 0l6.734375 12.84375l0.0625 0q-0.03125 -0.890625 -0.078125 -1.765625q-0.015625 -0.375 -0.03125 -0.765625q-0.015625 -0.390625 -0.03125 -0.78125q0 -0.390625 -0.015625 -0.75q0 -0.375 0 -0.671875l0 -8.109375l3.25 0l0 17.140625zm10.828125 -9.625l6.796875 0l0 8.890625q-0.671875 0.21875 -1.375 0.40625q-0.6875 0.171875 -1.4375 0.296875q-0.734375 0.125 -1.546875 0.1875q-0.8125 0.078125 -1.734375 0.078125q-1.921875 0 -3.40625 -0.5625q-1.46875 -0.578125 -2.484375 -1.6875q-1.015625 -1.125 -1.546875 -2.765625q-0.53125 -1.65625 -0.53125 -3.8125q0 -2.015625 0.578125 -3.640625q0.59375 -1.625 1.734375 -2.765625q1.15625 -1.15625 2.8125 -1.765625q1.671875 -0.609375 3.828125 -0.609375q1.375 0 2.6875 0.296875q1.3125 0.28125 2.40625 0.75l-1.203125 2.90625q-0.796875 -0.390625 -1.8125 -0.65625q-1.0 -0.28125 -2.09375 -0.28125q-1.203125 0 -2.15625 0.421875q-0.953125 0.40625 -1.640625 1.171875q-0.671875 0.765625 -1.03125 1.84375q-0.359375 1.078125 -0.359375 2.40625q0 1.265625 0.25 2.3125q0.25 1.046875 0.78125 1.8125q0.546875 0.75 1.390625 1.171875q0.859375 0.421875 2.03125 0.421875q0.78125 0 1.3125 -0.0625q0.53125 -0.078125 1.0 -0.171875l0 -3.5625l-3.25 0l0 -3.03125zm25.488281 1.03125q0 1.984375 -0.46875 3.609375q-0.46875 1.625 -1.421875 2.796875q-0.9375 1.15625 -2.390625 1.796875q-1.4375 0.625 -3.40625 0.625q-1.96875 0 -3.421875 -0.625q-1.453125 -0.640625 -2.390625 -1.796875q-0.9375 -1.171875 -1.40625 -2.796875q-0.46875 -1.640625 -0.46875 -3.625q0 -2.0 0.46875 -3.625q0.46875 -1.625 1.40625 -2.765625q0.953125 -1.15625 2.390625 -1.78125q1.453125 -0.625 3.4375 -0.625q1.96875 0 3.40625 0.625q1.453125 0.625 2.390625 1.78125q0.9375 1.15625 1.40625 2.78125q0.46875 1.625 0.46875 3.625zm-11.625 0q0 1.34375 0.234375 2.421875q0.234375 1.078125 0.71875 1.828125q0.484375 0.734375 1.21875 1.140625q0.734375 0.390625 1.765625 0.390625q1.03125 0 1.78125 -0.390625q0.75 -0.40625 1.21875 -1.140625q0.46875 -0.75 0.703125 -1.828125q0.234375 -1.078125 0.234375 -2.421875q0 -1.34375 -0.234375 -2.40625q-0.234375 -1.078125 -0.703125 -1.828125q-0.46875 -0.75 -1.21875 -1.140625q-0.734375 -0.40625 -1.765625 -0.40625q-1.015625 0 -1.765625 0.40625q-0.75 0.390625 -1.234375 1.140625q-0.484375 0.75 -0.71875 1.828125q-0.234375 1.0625 -0.234375 2.40625z" fill-rule="nonzero"></path><path fill="#000000" fill-opacity="0.0" d="m61.70341 326.67996l189.73228 0" fill-rule="nonzero"></path><path stroke="#000000" stroke-width="2.0" stroke-linejoin="round" stroke-linecap="butt" d="m61.70341 326.67996l177.73228 0" fill-rule="evenodd"></path><path fill="#000000" stroke="#000000" stroke-width="2.0" stroke-linecap="butt" d="m239.4357 329.98343l9.076187 -3.3034668l-9.076187 -3.3034668z" fill-rule="evenodd"></path><path fill="#000000" fill-opacity="0.0" d="m114.01329 284.53394l89.85828 0l0 21.543304l-89.85828 0z" fill-rule="nonzero"></path><path fill="#000000" d="m123.622665 316.01642q-0.4375 0 -0.734375 -0.0625q-0.296875 -0.0625 -0.5 -0.171875l0 -1.375q0.234375 0.09375 0.484375 0.140625q0.25 0.0625 0.578125 0.0625q0.25 0 0.453125 -0.078125q0.21875 -0.0625 0.375 -0.25q0.171875 -0.171875 0.25 -0.484375q0.09375 -0.296875 0.09375 -0.765625l0 -11.765625l1.6875 0l0 11.65625q0 0.71875 -0.15625 1.28125q-0.15625 0.578125 -0.5 0.96875q-0.328125 0.40625 -0.828125 0.625q-0.5 0.21875 -1.203125 0.21875zm0.875 -17.5q0 -0.5625 0.28125 -0.8125q0.28125 -0.25 0.703125 -0.25q0.203125 0 0.375 0.0625q0.1875 0.0625 0.3125 0.1875q0.140625 0.125 0.21875 0.328125q0.078125 0.203125 0.078125 0.484375q0 0.53125 -0.296875 0.796875q-0.28125 0.265625 -0.6875 0.265625q-0.421875 0 -0.703125 -0.25q-0.28125 -0.265625 -0.28125 -0.8125zm13.265533 7.828125q0 1.265625 -0.3125 2.265625q-0.3125 0.984375 -0.890625 1.65625q-0.578125 0.671875 -1.40625 1.03125q-0.828125 0.34375 -1.859375 0.34375q-0.953125 0 -1.765625 -0.34375q-0.796875 -0.359375 -1.390625 -1.03125q-0.59375 -0.671875 -0.921875 -1.65625q-0.328125 -1.0 -0.328125 -2.265625q0 -1.265625 0.3125 -2.234375q0.3125 -0.984375 0.890625 -1.65625q0.578125 -0.671875 1.40625 -1.015625q0.828125 -0.359375 1.859375 -0.359375q0.953125 0 1.75 0.359375q0.8125 0.34375 1.40625 1.015625q0.59375 0.671875 0.921875 1.65625q0.328125 0.96875 0.328125 2.234375zm-7.125 0q0 1.9375 0.625 2.921875q0.640625 0.96875 2.078125 0.96875q1.421875 0 2.046875 -0.96875q0.625 -0.984375 0.625 -2.921875q0 -1.9375 -0.640625 -2.890625q-0.625 -0.96875 -2.0625 -0.96875q-1.421875 0 -2.046875 0.96875q-0.625 0.953125 -0.625 2.890625zm14.189301 -5.265625q0.875 0 1.578125 0.34375q0.71875 0.328125 1.21875 1.0q0.515625 0.65625 0.78125 1.640625q0.28125 0.984375 0.28125 2.28125q0 1.3125 -0.28125 2.296875q-0.265625 0.984375 -0.78125 1.65625q-0.5 0.671875 -1.21875 1.015625q-0.703125 0.328125 -1.578125 0.328125q-0.546875 0 -1.0 -0.125q-0.4375 -0.125 -0.796875 -0.3125q-0.359375 -0.203125 -0.640625 -0.46875q-0.265625 -0.28125 -0.484375 -0.578125l-0.109375 0l-0.34375 1.296875l-1.234375 0l0 -14.4375l1.6875 0l0 3.484375q0 0.328125 -0.015625 0.703125q0 0.359375 -0.015625 0.671875q-0.015625 0.375 -0.03125 0.734375l0.0625 0q0.21875 -0.328125 0.484375 -0.609375q0.265625 -0.28125 0.625 -0.484375q0.359375 -0.203125 0.796875 -0.3125q0.453125 -0.125 1.015625 -0.125zm-0.328125 1.40625q-0.734375 0 -1.234375 0.234375q-0.5 0.234375 -0.8125 0.71875q-0.296875 0.484375 -0.421875 1.203125q-0.125 0.71875 -0.125 1.703125q0 0.9375 0.125 1.671875q0.125 0.71875 0.421875 1.21875q0.3125 0.5 0.8125 0.75q0.5 0.25 1.25 0.25q1.25 0 1.84375 -1.0q0.59375 -1.015625 0.59375 -2.90625q0 -1.9375 -0.59375 -2.890625q-0.59375 -0.953125 -1.859375 -0.953125zm16.480774 8.96875l-1.625 0l0 -8.46875q0 -0.40625 0 -0.859375q0 -0.453125 0.015625 -0.890625q0.015625 -0.453125 0.03125 -0.859375q0.015625 -0.421875 0.015625 -0.734375q-0.15625 0.15625 -0.28125 0.28125q-0.109375 0.125 -0.234375 0.234375q-0.125 0.109375 -0.265625 0.234375q-0.140625 0.125 -0.328125 0.296875l-1.375 1.109375l-0.890625 -1.140625l3.546875 -2.765625l1.390625 0l0 13.5625z" fill-rule="nonzero"></path><path fill="#000000" fill-opacity="0.0" d="m61.70341 422.20596l189.73228 0" fill-rule="nonzero"></path><path stroke="#000000" stroke-width="2.0" stroke-linejoin="round" stroke-linecap="butt" d="m61.70341 422.206l177.73228 0" fill-rule="evenodd"></path><path fill="#000000" stroke="#000000" stroke-width="2.0" stroke-linecap="butt" d="m239.4357 425.50946l9.076187 -3.3034668l-9.076187 -3.3034668z" fill-rule="evenodd"></path><path fill="#000000" fill-opacity="0.0" d="m116.15757 377.25754l108.314964 0l0 41.322815l-108.314964 0z" fill-rule="nonzero"></path><path fill="#000000" d="m125.766945 408.74002q-0.4375 0 -0.734375 -0.0625q-0.296875 -0.0625 -0.5 -0.171875l0 -1.375q0.234375 0.09375 0.484375 0.140625q0.25 0.0625 0.578125 0.0625q0.25 0 0.453125 -0.078125q0.21875 -0.0625 0.375 -0.25q0.171875 -0.171875 0.25 -0.484375q0.09375 -0.296875 0.09375 -0.765625l0 -11.765625l1.6875076 0l0 11.65625q0 0.71875 -0.15625 1.28125q-0.15625 0.578125 -0.5000076 0.96875q-0.328125 0.40625 -0.828125 0.625q-0.5 0.21875 -1.203125 0.21875zm0.875 -17.5q0 -0.5625 0.28125 -0.8125q0.28125 -0.25 0.703125 -0.25q0.203125 0 0.37500763 0.0625q0.1875 0.0625 0.3125 0.1875q0.140625 0.125 0.21875 0.328125q0.078125 0.203125 0.078125 0.484375q0 0.53125 -0.296875 0.796875q-0.28125 0.265625 -0.6875076 0.265625q-0.421875 0 -0.703125 -0.25q-0.28125 -0.265625 -0.28125 -0.8125zm13.265541 7.828125q0 1.265625 -0.3125 2.265625q-0.3125 0.984375 -0.890625 1.65625q-0.578125 0.671875 -1.40625 1.03125q-0.828125 0.34375 -1.859375 0.34375q-0.953125 0 -1.765625 -0.34375q-0.796875 -0.359375 -1.390625 -1.03125q-0.59375 -0.671875 -0.921875 -1.65625q-0.328125 -1.0 -0.328125 -2.265625q0 -1.265625 0.3125 -2.234375q0.3125 -0.984375 0.890625 -1.65625q0.578125 -0.671875 1.40625 -1.015625q0.828125 -0.359375 1.859375 -0.359375q0.953125 0 1.75 0.359375q0.8125 0.34375 1.40625 1.015625q0.59375 0.671875 0.921875 1.65625q0.328125 0.96875 0.328125 2.234375zm-7.125 0q0 1.9375 0.625 2.921875q0.640625 0.96875 2.078125 0.96875q1.421875 0 2.046875 -0.96875q0.625 -0.984375 0.625 -2.921875q0 -1.9375 -0.640625 -2.890625q-0.625 -0.96875 -2.0625 -0.96875q-1.421875 0 -2.046875 0.96875q-0.625 0.953125 -0.625 2.890625zm14.189301 -5.265625q0.875 0 1.578125 0.34375q0.71875 0.328125 1.21875 1.0q0.515625 0.65625 0.78125 1.640625q0.28125 0.984375 0.28125 2.28125q0 1.3125 -0.28125 2.296875q-0.265625 0.984375 -0.78125 1.65625q-0.5 0.671875 -1.21875 1.015625q-0.703125 0.328125 -1.578125 0.328125q-0.546875 0 -1.0 -0.125q-0.4375 -0.125 -0.796875 -0.3125q-0.359375 -0.203125 -0.640625 -0.46875q-0.265625 -0.28125 -0.484375 -0.578125l-0.109375 0l-0.34375 1.296875l-1.234375 0l0 -14.4375l1.6875 0l0 3.484375q0 0.328125 -0.015625 0.703125q0 0.359375 -0.015625 0.671875q-0.015625 0.375 -0.03125 0.734375l0.0625 0q0.21875 -0.328125 0.484375 -0.609375q0.265625 -0.28125 0.625 -0.484375q0.359375 -0.203125 0.796875 -0.3125q0.453125 -0.125 1.015625 -0.125zm-0.328125 1.40625q-0.734375 0 -1.234375 0.234375q-0.5 0.234375 -0.8125 0.71875q-0.296875 0.484375 -0.421875 1.203125q-0.125 0.71875 -0.125 1.703125q0 0.9375 0.125 1.671875q0.125 0.71875 0.421875 1.21875q0.3125 0.5 0.8125 0.75q0.5 0.25 1.25 0.25q1.25 0 1.84375 -1.0q0.59375 -1.015625 0.59375 -2.90625q0 -1.9375 -0.59375 -2.890625q-0.59375 -0.953125 -1.859375 -0.953125zm19.246399 8.96875l-8.46875 0l0 -1.453125l3.25 -3.53125q0.6875 -0.75 1.234375 -1.375q0.546875 -0.625 0.9375 -1.21875q0.390625 -0.59375 0.59375 -1.1875q0.203125 -0.59375 0.203125 -1.296875q0 -0.546875 -0.15625 -0.96875q-0.15625 -0.421875 -0.453125 -0.703125q-0.296875 -0.296875 -0.703125 -0.4375q-0.390625 -0.15625 -0.875 -0.15625q-0.890625 0 -1.609375 0.359375q-0.703125 0.359375 -1.34375 0.90625l-0.9375 -1.09375q0.375 -0.34375 0.796875 -0.625q0.421875 -0.296875 0.90625 -0.515625q0.5 -0.21875 1.046875 -0.34375q0.546875 -0.125 1.15625 -0.125q0.890625 0 1.609375 0.265625q0.71875 0.25 1.21875 0.71875q0.5 0.453125 0.765625 1.140625q0.28125 0.671875 0.28125 1.515625q0 0.78125 -0.25 1.5q-0.234375 0.71875 -0.671875 1.40625q-0.4375 0.6875 -1.03125 1.390625q-0.59375 0.6875 -1.296875 1.4375l-2.609375 2.78125l0 0.0625l6.40625 0l0 1.546875z" fill-rule="nonzero"></path><path fill="#f6b26b" d="m318.9006 98.7664l189.7323 0l0 79.779526l-189.7323 0z" fill-rule="nonzero"></path><path stroke="#000000" stroke-width="2.0" stroke-linejoin="round" stroke-linecap="butt" d="m318.9006 98.7664l189.7323 0l0 79.779526l-189.7323 0z" fill-rule="nonzero"></path><path fill="#000000" d="m348.38785 133.06305l2.3125 0l0 7.25q0 1.421875 -0.25 2.1875q-0.34375 1.0 -1.234375 1.609375q-0.875 0.609375 -2.3125 0.609375q-1.703125 0 -2.625 -0.953125q-0.90625 -0.953125 -0.90625 -2.796875l2.171875 -0.25q0.046875 0.984375 0.296875 1.390625q0.375 0.625 1.140625 0.625q0.765625 0 1.078125 -0.4375q0.328125 -0.453125 0.328125 -1.84375l0 -7.390625zm4.2421875 7.1875q0 -1.09375 0.53125 -2.109375q0.546875 -1.03125 1.53125 -1.5625q1.0 -0.546875 2.21875 -0.546875q1.875 0 3.078125 1.21875q1.203125 1.21875 1.203125 3.09375q0 1.875 -1.21875 3.125q-1.203125 1.234375 -3.046875 1.234375q-1.140625 0 -2.1875 -0.515625q-1.03125 -0.515625 -1.578125 -1.515625q-0.53125 -1.0 -0.53125 -2.421875zm2.25 0.109375q0 1.234375 0.578125 1.890625q0.59375 0.65625 1.453125 0.65625q0.859375 0 1.4375 -0.65625q0.59375 -0.65625 0.59375 -1.90625q0 -1.21875 -0.59375 -1.875q-0.578125 -0.65625 -1.4375 -0.65625q-0.859375 0 -1.453125 0.65625q-0.578125 0.65625 -0.578125 1.890625zm7.9453125 4.15625l0 -11.453125l2.1875 0l0 4.125q1.015625 -1.15625 2.40625 -1.15625q1.515625 0 2.5 1.09375q1.0 1.09375 1.0 3.15625q0 2.125 -1.015625 3.28125q-1.0 1.140625 -2.453125 1.140625q-0.703125 0 -1.40625 -0.359375q-0.6875 -0.359375 -1.1875 -1.046875l0 1.21875l-2.03125 0zm2.171875 -4.328125q0 1.28125 0.40625 1.90625q0.578125 0.875 1.515625 0.875q0.734375 0 1.234375 -0.625q0.515625 -0.625 0.515625 -1.953125q0 -1.421875 -0.515625 -2.046875q-0.515625 -0.640625 -1.3125 -0.640625q-0.796875 0 -1.328125 0.625q-0.515625 0.609375 -0.515625 1.859375zm21.375 2.875q0.84375 0.609375 1.84375 0.96875l-0.84375 1.640625q-0.53125 -0.15625 -1.03125 -0.4375q-0.109375 -0.046875 -1.53125 -1.015625q-1.125 0.5 -2.5 0.5q-2.640625 0 -4.140625 -1.5625q-1.484375 -1.5625 -1.484375 -4.375q0 -2.796875 1.5 -4.359375q1.5 -1.5625 4.0625 -1.5625q2.546875 0 4.03125 1.5625q1.5 1.5625 1.5 4.359375q0 1.484375 -0.40625 2.609375q-0.3125 0.859375 -1.0 1.671875zm-1.859375 -1.3125q0.4375 -0.515625 0.65625 -1.25q0.234375 -0.75 0.234375 -1.71875q0 -1.984375 -0.875 -2.953125q-0.875 -0.984375 -2.296875 -0.984375q-1.40625 0 -2.296875 0.984375q-0.875 0.984375 -0.875 2.953125q0 2.015625 0.875 3.015625q0.890625 0.984375 2.234375 0.984375q0.5 0 0.9375 -0.15625q-0.703125 -0.46875 -1.421875 -0.71875l0.640625 -1.328125q1.140625 0.390625 2.1875 1.171875zm10.5234375 2.765625l0 -1.25q-0.453125 0.671875 -1.1875 1.0625q-0.734375 0.375 -1.5625 0.375q-0.828125 0 -1.5 -0.359375q-0.65625 -0.375 -0.953125 -1.03125q-0.296875 -0.671875 -0.296875 -1.84375l0 -5.25l2.1875 0l0 3.8125q0 1.75 0.125 2.140625q0.125 0.390625 0.4375 0.625q0.328125 0.234375 0.8125 0.234375q0.5625 0 1.0 -0.3125q0.453125 -0.3125 0.609375 -0.765625q0.171875 -0.453125 0.171875 -2.234375l0 -3.5l2.203125 0l0 8.296875l-2.046875 0zm9.1171875 -2.640625l2.1875 0.359375q-0.421875 1.203125 -1.328125 1.84375q-0.90625 0.625 -2.28125 0.625q-2.15625 0 -3.203125 -1.421875q-0.8125 -1.125 -0.8125 -2.859375q0 -2.0625 1.078125 -3.21875q1.078125 -1.171875 2.71875 -1.171875q1.859375 0 2.921875 1.21875q1.078125 1.21875 1.03125 3.75l-5.5 0q0.015625 0.96875 0.515625 1.515625q0.515625 0.546875 1.28125 0.546875q0.515625 0 0.859375 -0.28125q0.359375 -0.28125 0.53125 -0.90625zm0.125 -2.21875q-0.015625 -0.953125 -0.484375 -1.453125q-0.46875 -0.5 -1.140625 -0.5q-0.71875 0 -1.1875 0.53125q-0.46875 0.515625 -0.46875 1.421875l3.28125 0zm9.4296875 4.859375l0 -1.25q-0.453125 0.671875 -1.1875 1.0625q-0.734375 0.375 -1.5625 0.375q-0.828125 0 -1.5 -0.359375q-0.65625 -0.375 -0.953125 -1.03125q-0.296875 -0.671875 -0.296875 -1.84375l0 -5.25l2.1875 0l0 3.8125q0 1.75 0.125 2.140625q0.125 0.390625 0.4375 0.625q0.328125 0.234375 0.8125 0.234375q0.5625 0 1.0 -0.3125q0.453125 -0.3125 0.609375 -0.765625q0.171875 -0.453125 0.171875 -2.234375l0 -3.5l2.203125 0l0 8.296875l-2.046875 0zm9.1171875 -2.640625l2.1875 0.359375q-0.421875 1.203125 -1.328125 1.84375q-0.90625 0.625 -2.28125 0.625q-2.15625 0 -3.203125 -1.421875q-0.8125 -1.125 -0.8125 -2.859375q0 -2.0625 1.078125 -3.21875q1.078125 -1.171875 2.71875 -1.171875q1.859375 0 2.921875 1.21875q1.078125 1.21875 1.03125 3.75l-5.5 0q0.015625 0.96875 0.515625 1.515625q0.515625 0.546875 1.28125 0.546875q0.515625 0 0.859375 -0.28125q0.359375 -0.28125 0.53125 -0.90625zm0.125 -2.21875q-0.015625 -0.953125 -0.484375 -1.453125q-0.46875 -0.5 -1.140625 -0.5q-0.71875 0 -1.1875 0.53125q-0.46875 0.515625 -0.46875 1.421875l3.28125 0zm12.0625 8.234375l-1.515625 0q-1.1875 -1.8125 -1.8125 -3.75q-0.625 -1.953125 -0.625 -3.78125q0 -2.25 0.765625 -4.265625q0.671875 -1.75 1.703125 -3.234375l1.5 0q-1.0625 2.375 -1.46875 4.03125q-0.40625 1.65625 -0.40625 3.515625q0 1.28125 0.234375 2.625q0.25 1.34375 0.65625 2.5625q0.28125 0.796875 0.96875 2.296875zm1.703125 -3.375l0 -11.453125l4.875 0q1.828125 0 2.65625 0.3125q0.84375 0.296875 1.34375 1.09375q0.5 0.78125 0.5 1.796875q0 1.296875 -0.765625 2.140625q-0.75 0.828125 -2.265625 1.046875q0.75 0.4375 1.234375 0.96875q0.5 0.515625 1.328125 1.859375l1.390625 2.234375l-2.765625 0l-1.671875 -2.5q-0.890625 -1.328125 -1.21875 -1.671875q-0.328125 -0.359375 -0.703125 -0.484375q-0.359375 -0.125 -1.15625 -0.125l-0.46875 0l0 4.78125l-2.3125 0zm2.3125 -6.609375l1.71875 0q1.65625 0 2.0625 -0.140625q0.421875 -0.140625 0.65625 -0.484375q0.234375 -0.34375 0.234375 -0.859375q0 -0.578125 -0.3125 -0.9375q-0.296875 -0.359375 -0.859375 -0.453125q-0.28125 -0.03125 -1.6875 -0.03125l-1.8125 0l0 2.90625zm14.0234375 3.96875l2.1875 0.359375q-0.421875 1.203125 -1.328125 1.84375q-0.90625 0.625 -2.28125 0.625q-2.15625 0 -3.203125 -1.421875q-0.8125 -1.125 -0.8125 -2.859375q0 -2.0625 1.078125 -3.21875q1.078125 -1.171875 2.71875 -1.171875q1.859375 0 2.921875 1.21875q1.078125 1.21875 1.03125 3.75l-5.5 0q0.015625 0.96875 0.515625 1.515625q0.515625 0.546875 1.28125 0.546875q0.515625 0 0.859375 -0.28125q0.359375 -0.28125 0.53125 -0.90625zm0.125 -2.21875q-0.015625 -0.953125 -0.484375 -1.453125q-0.46875 -0.5 -1.140625 -0.5q-0.71875 0 -1.1875 0.53125q-0.46875 0.515625 -0.46875 1.421875l3.28125 0zm11.5859375 4.859375l-2.046875 0l0 -1.21875q-0.5 0.703125 -1.203125 1.0625q-0.6875 0.34375 -1.390625 0.34375q-1.421875 0 -2.453125 -1.15625q-1.015625 -1.15625 -1.015625 -3.21875q0 -2.109375 0.984375 -3.203125q1.0 -1.09375 2.515625 -1.09375q1.390625 0 2.40625 1.15625l0 -4.125l2.203125 0l0 11.453125zm-5.859375 -4.328125q0 1.328125 0.359375 1.921875q0.53125 0.859375 1.484375 0.859375q0.765625 0 1.296875 -0.640625q0.53125 -0.65625 0.53125 -1.9375q0 -1.421875 -0.515625 -2.046875q-0.515625 -0.640625 -1.328125 -0.640625q-0.78125 0 -1.3125 0.625q-0.515625 0.625 -0.515625 1.859375zm8.0234375 -5.09375l0 -2.03125l2.1875 0l0 2.03125l-2.1875 0zm0 9.421875l0 -8.296875l2.1875 0l0 8.296875l-2.1875 0zm3.6640625 -2.375l2.203125 -0.328125q0.140625 0.640625 0.5625 0.96875q0.4375 0.328125 1.21875 0.328125q0.84375 0 1.28125 -0.3125q0.28125 -0.21875 0.28125 -0.578125q0 -0.25 -0.15625 -0.421875q-0.15625 -0.15625 -0.734375 -0.28125q-2.65625 -0.59375 -3.359375 -1.078125q-0.984375 -0.671875 -0.984375 -1.859375q0 -1.078125 0.84375 -1.8125q0.859375 -0.734375 2.640625 -0.734375q1.703125 0 2.53125 0.5625q0.828125 0.546875 1.140625 1.625l-2.0625 0.390625q-0.140625 -0.484375 -0.515625 -0.734375q-0.359375 -0.265625 -1.046875 -0.265625q-0.875 0 -1.25 0.234375q-0.25 0.171875 -0.25 0.453125q0 0.234375 0.21875 0.390625q0.296875 0.21875 2.046875 0.625q1.765625 0.390625 2.453125 0.96875q0.6875 0.59375 0.6875 1.640625q0 1.140625 -0.953125 1.96875q-0.953125 0.8125 -2.8125 0.8125q-1.703125 0 -2.6875 -0.6875q-0.984375 -0.6875 -1.296875 -1.875zm9.0703125 5.75q0.640625 -1.390625 0.90625 -2.140625q0.265625 -0.734375 0.484375 -1.703125q0.234375 -0.984375 0.34375 -1.84375q0.109375 -0.875 0.109375 -1.796875q0 -1.859375 -0.40625 -3.515625q-0.390625 -1.65625 -1.453125 -4.03125l1.484375 0q1.1875 1.6875 1.828125 3.578125q0.65625 1.875 0.65625 3.8125q0 1.625 -0.515625 3.5q-0.578125 2.09375 -1.921875 4.140625l-1.515625 0z" fill-rule="nonzero"></path><path fill="#000000" fill-opacity="0.0" d="m348.37482 370.83707c-12.047638 -20.963654 -66.98474 -85.05957 -72.2858 -125.78189c-5.301056 -40.722305 33.73294 -98.793304 40.479523 -118.551956" fill-rule="nonzero"></path><path stroke="#000000" stroke-width="2.0" stroke-linejoin="round" stroke-linecap="butt" d="m348.37485 370.83707c-12.047638 -20.963623 -66.98477 -85.05957 -72.28583 -125.78189c-2.6505127 -20.36116 5.782715 -45.05948 15.721893 -67.137344c4.9696045 -11.03894 10.315674 -21.42276 14.841034 -30.281754c2.2626648 -4.4295044 4.32016 -8.477798 6.0227966 -12.036194c0.42565918 -0.8895874 0.8291626 -1.7485504 1.2080994 -2.5752106l0.0819397 -0.18109131" fill-rule="evenodd"></path><path fill="#000000" stroke="#000000" stroke-width="2.0" stroke-linecap="butt" d="m313.96478 132.84358l1.2261353 2.934967l0.26690674 -6.570709l-4.4280396 4.8618774z" fill-rule="evenodd"></path><path fill="#efefef" d="m769.9263 117.93813l125.25989 0l0 106.551186l-125.25989 0z" fill-rule="nonzero"></path><path stroke="#980000" stroke-width="3.0" stroke-linejoin="round" stroke-linecap="butt" stroke-dasharray="12.0,9.0" d="m769.9263 117.93813l125.25989 0l0 106.551186l-125.25989 0z" fill-rule="nonzero"></path><path fill="#000000" d="m800.28436 160.23247q-0.5625 0 -1.0 0.21875q-0.4375 0.21875 -0.734375 0.640625q-0.296875 0.40625 -0.453125 1.0q-0.140625 0.578125 -0.140625 1.3125q0 0.734375 0.125 1.3125q0.140625 0.578125 0.421875 0.984375q0.296875 0.390625 0.734375 0.59375q0.4375 0.203125 1.046875 0.203125q0.5625 0 1.125 -0.125q0.578125 -0.125 1.25 -0.359375l0 1.65625q-0.3125 0.125 -0.609375 0.21875q-0.296875 0.078125 -0.609375 0.125q-0.3125 0.0625 -0.640625 0.09375q-0.328125 0.03125 -0.703125 0.03125q-1.0625 0 -1.859375 -0.34375q-0.78125 -0.34375 -1.296875 -0.953125q-0.515625 -0.625 -0.765625 -1.5q-0.25 -0.890625 -0.25 -1.953125q0 -1.0625 0.28125 -1.9375q0.296875 -0.875 0.84375 -1.5q0.5625 -0.640625 1.375 -0.984375q0.8125 -0.359375 1.859375 -0.359375q0.6875 0 1.375 0.171875q0.703125 0.171875 1.34375 0.46875l-0.640625 1.609375q-0.515625 -0.25 -1.046875 -0.4375q-0.515625 -0.1875 -1.03125 -0.1875zm6.008362 4.21875q0 1.0625 0.296875 1.609375q0.296875 0.53125 0.96875 0.53125q0.671875 0 0.96875 -0.53125q0.296875 -0.546875 0.296875 -1.609375q0 -1.0625 -0.296875 -1.578125q-0.296875 -0.53125 -0.96875 -0.53125q-0.671875 0 -0.96875 0.53125q-0.296875 0.515625 -0.296875 1.578125zm4.515625 0q0 0.890625 -0.234375 1.578125q-0.21875 0.6875 -0.640625 1.15625q-0.421875 0.46875 -1.03125 0.71875q-0.609375 0.234375 -1.359375 0.234375q-0.703125 0 -1.296875 -0.234375q-0.59375 -0.25 -1.03125 -0.71875q-0.421875 -0.46875 -0.671875 -1.15625q-0.234375 -0.6875 -0.234375 -1.578125q0 -0.875 0.21875 -1.5625q0.234375 -0.6875 0.65625 -1.15625q0.421875 -0.46875 1.03125 -0.703125q0.609375 -0.25 1.359375 -0.25q0.703125 0 1.296875 0.25q0.59375 0.234375 1.015625 0.703125q0.4375 0.46875 0.671875 1.15625q0.25 0.6875 0.25 1.5625zm8.016418 3.5625l-1.9375 0l0 -4.140625q0 -0.765625 -0.234375 -1.15625q-0.21875 -0.390625 -0.734375 -0.390625q-0.375 0 -0.640625 0.15625q-0.25 0.15625 -0.40625 0.453125q-0.140625 0.296875 -0.203125 0.734375q-0.0625 0.4375 -0.0625 1.0l0 3.34375l-1.9375 0l0 -7.09375l1.484375 0l0.25 0.90625l0.109375 0q0.15625 -0.28125 0.375 -0.46875q0.21875 -0.203125 0.46875 -0.328125q0.265625 -0.125 0.5625 -0.1875q0.296875 -0.0625 0.59375 -0.0625q0.53125 0 0.953125 0.15625q0.421875 0.140625 0.71875 0.46875q0.3125 0.3125 0.46875 0.8125q0.171875 0.484375 0.171875 1.171875l0 4.625zm5.07489 -1.421875q0.296875 0 0.546875 -0.0625q0.265625 -0.0625 0.53125 -0.15625l0 1.4375q-0.28125 0.140625 -0.6875 0.234375q-0.390625 0.09375 -0.875 0.09375q-0.453125 0 -0.859375 -0.109375q-0.40625 -0.109375 -0.703125 -0.375q-0.28125 -0.265625 -0.453125 -0.71875q-0.171875 -0.453125 -0.171875 -1.140625l0 -3.421875l-0.921875 0l0 -0.828125l1.0625 -0.640625l0.5625 -1.5l1.234375 0l0 1.515625l1.734375 0l0 1.453125l-1.734375 0l0 3.421875q0 0.40625 0.203125 0.609375q0.203125 0.1875 0.53125 0.1875zm6.7686768 1.421875l-0.375 -0.96875l-0.0625 0q-0.203125 0.296875 -0.421875 0.5q-0.203125 0.203125 -0.453125 0.34375q-0.25 0.125 -0.5625 0.1875q-0.296875 0.0625 -0.703125 0.0625q-0.4375 0 -0.8125 -0.125q-0.359375 -0.140625 -0.640625 -0.421875q-0.265625 -0.28125 -0.421875 -0.703125q-0.140625 -0.421875 -0.140625 -1.0q0 -1.125 0.71875 -1.65625q0.734375 -0.546875 2.171875 -0.59375l1.125 -0.046875l0 -0.53125q0 -0.4375 -0.25 -0.640625q-0.25 -0.21875 -0.71875 -0.21875q-0.453125 0 -0.890625 0.140625q-0.4375 0.125 -0.875 0.359375l-0.625 -1.296875q0.53125 -0.296875 1.171875 -0.46875q0.65625 -0.171875 1.375 -0.171875q1.328125 0 2.03125 0.625q0.703125 0.625 0.703125 1.890625l0 4.734375l-1.34375 0zm-0.578125 -3.28125l-0.640625 0.015625q-0.390625 0.015625 -0.65625 0.109375q-0.265625 0.078125 -0.4375 0.234375q-0.15625 0.140625 -0.234375 0.359375q-0.0625 0.203125 -0.0625 0.453125q0 0.453125 0.21875 0.640625q0.21875 0.1875 0.5625 0.1875q0.265625 0 0.484375 -0.09375q0.234375 -0.09375 0.40625 -0.265625q0.171875 -0.1875 0.265625 -0.453125q0.09375 -0.265625 0.09375 -0.609375l0 -0.578125zm4.0282593 -5.65625q0 -0.265625 0.078125 -0.4375q0.078125 -0.1875 0.21875 -0.296875q0.15625 -0.109375 0.34375 -0.15625q0.1875 -0.046875 0.40625 -0.046875q0.21875 0 0.40625 0.046875q0.1875 0.046875 0.328125 0.15625q0.15625 0.109375 0.234375 0.296875q0.09375 0.171875 0.09375 0.4375q0 0.265625 -0.09375 0.453125q-0.078125 0.1875 -0.234375 0.296875q-0.140625 0.109375 -0.328125 0.15625q-0.1875 0.046875 -0.40625 0.046875q-0.21875 0 -0.40625 -0.046875q-0.1875 -0.046875 -0.34375 -0.15625q-0.140625 -0.109375 -0.21875 -0.296875q-0.078125 -0.1875 -0.078125 -0.453125zm2.015625 8.9375l-1.9375 0l0 -7.09375l1.9375 0l0 7.09375zm8.286194 0l-1.9375 0l0 -4.140625q0 -0.765625 -0.234375 -1.15625q-0.21875 -0.390625 -0.734375 -0.390625q-0.375 0 -0.640625 0.15625q-0.25 0.15625 -0.40625 0.453125q-0.140625 0.296875 -0.203125 0.734375q-0.0625 0.4375 -0.0625 1.0l0 3.34375l-1.9375 0l0 -7.09375l1.484375 0l0.25 0.90625l0.109375 0q0.15625 -0.28125 0.375 -0.46875q0.21875 -0.203125 0.46875 -0.328125q0.265625 -0.125 0.5625 -0.1875q0.296875 -0.0625 0.59375 -0.0625q0.53125 0 0.953125 0.15625q0.421875 0.140625 0.71875 0.46875q0.3125 0.3125 0.46875 0.8125q0.171875 0.484375 0.171875 1.171875l0 4.625zm5.074829 -5.859375q-0.515625 0 -0.859375 0.375q-0.34375 0.359375 -0.390625 1.125l2.46875 0q0 -0.3125 -0.078125 -0.578125q-0.078125 -0.28125 -0.234375 -0.484375q-0.15625 -0.203125 -0.390625 -0.3125q-0.21875 -0.125 -0.515625 -0.125zm0.234375 5.984375q-0.75 0 -1.390625 -0.21875q-0.640625 -0.21875 -1.109375 -0.671875q-0.46875 -0.453125 -0.734375 -1.125q-0.25 -0.6875 -0.25 -1.609375q0 -0.9375 0.234375 -1.625q0.25 -0.703125 0.671875 -1.171875q0.421875 -0.46875 1.015625 -0.703125q0.59375 -0.234375 1.3125 -0.234375q0.703125 0 1.265625 0.21875q0.578125 0.203125 0.96875 0.625q0.390625 0.40625 0.609375 1.015625q0.21875 0.59375 0.21875 1.375l0 0.9375l-4.328125 0q0 0.40625 0.109375 0.734375q0.125 0.328125 0.34375 0.546875q0.21875 0.21875 0.515625 0.34375q0.296875 0.125 0.6875 0.125q0.328125 0 0.609375 -0.03125q0.296875 -0.046875 0.5625 -0.109375q0.28125 -0.078125 0.546875 -0.171875q0.265625 -0.109375 0.546875 -0.25l0 1.5q-0.265625 0.140625 -0.53125 0.234375q-0.25 0.078125 -0.53125 0.140625q-0.28125 0.0625 -0.609375 0.09375q-0.328125 0.03125 -0.734375 0.03125zm8.338135 -7.359375q0.078125 0 0.171875 0.015625q0.09375 0 0.171875 0.015625q0.078125 0 0.15625 0.015625q0.078125 0 0.109375 0.015625l0 1.8125q-0.046875 -0.015625 -0.140625 -0.015625q-0.078125 -0.015625 -0.1875 -0.03125q-0.09375 -0.015625 -0.1875 -0.015625q-0.09375 0 -0.15625 0q-0.375 0 -0.6875 0.09375q-0.3125 0.09375 -0.546875 0.3125q-0.21875 0.203125 -0.34375 0.5625q-0.125 0.34375 -0.125 0.84375l0 3.609375l-1.9375 0l0 -7.09375l1.46875 0l0.28125 1.0625l0.09375 0q0.15625 -0.265625 0.328125 -0.484375q0.1875 -0.234375 0.40625 -0.390625q0.21875 -0.15625 0.484375 -0.234375q0.28125 -0.09375 0.640625 -0.09375zm9.716431 7.234375l-1.96875 0l0 -5.375q0 -0.15625 0 -0.390625q0.015625 -0.234375 0.015625 -0.484375q0.015625 -0.25 0.015625 -0.5q0.015625 -0.265625 0.03125 -0.46875q-0.03125 0.046875 -0.109375 0.125q-0.078125 0.0625 -0.171875 0.15625q-0.09375 0.09375 -0.203125 0.1875q-0.09375 0.09375 -0.1875 0.171875l-1.078125 0.859375l-0.953125 -1.1875l3.0 -2.375l1.609375 0l0 9.28125z" fill-rule="nonzero"></path><path fill="#000000" d="m818.4063 180.45123q0 -0.796875 0.109375 -1.5625q0.125 -0.765625 0.359375 -1.484375q0.234375 -0.734375 0.59375 -1.40625q0.359375 -0.671875 0.859375 -1.265625l1.578125 0q-0.890625 1.21875 -1.359375 2.6875q-0.453125 1.46875 -0.453125 3.015625q0 0.765625 0.109375 1.515625q0.125 0.734375 0.34375 1.453125q0.234375 0.71875 0.5625 1.390625q0.34375 0.671875 0.78125 1.28125l-1.5625 0q-0.5 -0.578125 -0.859375 -1.234375q-0.359375 -0.65625 -0.59375 -1.359375q-0.234375 -0.71875 -0.359375 -1.484375q-0.109375 -0.765625 -0.109375 -1.546875zm9.9383545 -5.71875l1.984375 0l-2.890625 9.28125l-2.140625 0l-2.890625 -9.28125l1.984375 0l1.578125 5.59375q0.03125 0.09375 0.078125 0.359375q0.0625 0.25 0.125 0.5625q0.0625 0.296875 0.109375 0.609375q0.0625 0.296875 0.09375 0.5q0.03125 -0.203125 0.078125 -0.5q0.0625 -0.3125 0.125 -0.609375q0.0625 -0.3125 0.125 -0.5625q0.0625 -0.25 0.09375 -0.359375l1.546875 -5.59375zm7.097107 9.28125l-2.046875 -7.28125l-0.046875 0q0.03125 0.578125 0.0625 1.125q0 0.234375 0.015625 0.484375q0.015625 0.25 0.015625 0.5q0.015625 0.234375 0.015625 0.453125q0 0.21875 0 0.40625l0 4.3125l-1.75 0l0 -9.28125l2.671875 0l2.015625 7.09375l0.03125 0l2.140625 -7.09375l2.671875 0l0 9.28125l-1.828125 0l0 -4.390625q0 -0.171875 0 -0.375q0 -0.21875 0 -0.453125q0.015625 -0.234375 0.015625 -0.46875q0.015625 -0.234375 0.015625 -0.46875q0.03125 -0.53125 0.046875 -1.109375l-0.046875 0l-2.203125 7.265625l-1.796875 0zm11.154114 -3.5625q0 0.78125 -0.125 1.546875q-0.109375 0.765625 -0.34375 1.484375q-0.234375 0.703125 -0.59375 1.359375q-0.359375 0.65625 -0.859375 1.234375l-1.5625 0q0.4375 -0.609375 0.765625 -1.28125q0.34375 -0.671875 0.5625 -1.390625q0.234375 -0.71875 0.34375 -1.453125q0.125 -0.75 0.125 -1.515625q0 -1.546875 -0.46875 -3.015625q-0.453125 -1.46875 -1.34375 -2.6875l1.578125 0q0.5 0.59375 0.859375 1.265625q0.359375 0.671875 0.59375 1.40625q0.234375 0.71875 0.34375 1.484375q0.125 0.765625 0.125 1.5625z" fill-rule="nonzero"></path><path fill="#efefef" d="m769.9263 272.4747l125.25989 0l0 106.55118l-125.25989 0z" fill-rule="nonzero"></path><path stroke="#980000" stroke-width="3.0" stroke-linejoin="round" stroke-linecap="butt" stroke-dasharray="12.0,9.0" d="m769.9263 272.4747l125.25989 0l0 106.55118l-125.25989 0z" fill-rule="nonzero"></path><path fill="#000000" d="m800.28436 314.76904q-0.5625 0 -1.0 0.21875q-0.4375 0.21875 -0.734375 0.640625q-0.296875 0.40625 -0.453125 1.0q-0.140625 0.578125 -0.140625 1.3125q0 0.734375 0.125 1.3125q0.140625 0.578125 0.421875 0.984375q0.296875 0.390625 0.734375 0.59375q0.4375 0.203125 1.046875 0.203125q0.5625 0 1.125 -0.125q0.578125 -0.125 1.25 -0.359375l0 1.65625q-0.3125 0.125 -0.609375 0.21875q-0.296875 0.078125 -0.609375 0.125q-0.3125 0.0625 -0.640625 0.09375q-0.328125 0.03125 -0.703125 0.03125q-1.0625 0 -1.859375 -0.34375q-0.78125 -0.34375 -1.296875 -0.953125q-0.515625 -0.625 -0.765625 -1.5q-0.25 -0.890625 -0.25 -1.953125q0 -1.0625 0.28125 -1.9375q0.296875 -0.875 0.84375 -1.5q0.5625 -0.640625 1.375 -0.984375q0.8125 -0.359375 1.859375 -0.359375q0.6875 0 1.375 0.171875q0.703125 0.171875 1.34375 0.46875l-0.640625 1.609375q-0.515625 -0.25 -1.046875 -0.4375q-0.515625 -0.1875 -1.03125 -0.1875zm6.008362 4.21875q0 1.0625 0.296875 1.609375q0.296875 0.53125 0.96875 0.53125q0.671875 0 0.96875 -0.53125q0.296875 -0.546875 0.296875 -1.609375q0 -1.0625 -0.296875 -1.578125q-0.296875 -0.53125 -0.96875 -0.53125q-0.671875 0 -0.96875 0.53125q-0.296875 0.515625 -0.296875 1.578125zm4.515625 0q0 0.890625 -0.234375 1.578125q-0.21875 0.6875 -0.640625 1.15625q-0.421875 0.46875 -1.03125 0.71875q-0.609375 0.234375 -1.359375 0.234375q-0.703125 0 -1.296875 -0.234375q-0.59375 -0.25 -1.03125 -0.71875q-0.421875 -0.46875 -0.671875 -1.15625q-0.234375 -0.6875 -0.234375 -1.578125q0 -0.875 0.21875 -1.5625q0.234375 -0.6875 0.65625 -1.15625q0.421875 -0.46875 1.03125 -0.703125q0.609375 -0.25 1.359375 -0.25q0.703125 0 1.296875 0.25q0.59375 0.234375 1.015625 0.703125q0.4375 0.46875 0.671875 1.15625q0.25 0.6875 0.25 1.5625zm8.016418 3.5625l-1.9375 0l0 -4.140625q0 -0.765625 -0.234375 -1.15625q-0.21875 -0.390625 -0.734375 -0.390625q-0.375 0 -0.640625 0.15625q-0.25 0.15625 -0.40625 0.453125q-0.140625 0.296875 -0.203125 0.734375q-0.0625 0.4375 -0.0625 1.0l0 3.34375l-1.9375 0l0 -7.09375l1.484375 0l0.25 0.90625l0.109375 0q0.15625 -0.28125 0.375 -0.46875q0.21875 -0.203125 0.46875 -0.328125q0.265625 -0.125 0.5625 -0.1875q0.296875 -0.0625 0.59375 -0.0625q0.53125 0 0.953125 0.15625q0.421875 0.140625 0.71875 0.46875q0.3125 0.3125 0.46875 0.8125q0.171875 0.484375 0.171875 1.171875l0 4.625zm5.07489 -1.421875q0.296875 0 0.546875 -0.0625q0.265625 -0.0625 0.53125 -0.15625l0 1.4375q-0.28125 0.140625 -0.6875 0.234375q-0.390625 0.09375 -0.875 0.09375q-0.453125 0 -0.859375 -0.109375q-0.40625 -0.109375 -0.703125 -0.375q-0.28125 -0.265625 -0.453125 -0.71875q-0.171875 -0.453125 -0.171875 -1.140625l0 -3.421875l-0.921875 0l0 -0.828125l1.0625 -0.640625l0.5625 -1.5l1.234375 0l0 1.515625l1.734375 0l0 1.453125l-1.734375 0l0 3.421875q0 0.40625 0.203125 0.609375q0.203125 0.1875 0.53125 0.1875zm6.7686768 1.421875l-0.375 -0.96875l-0.0625 0q-0.203125 0.296875 -0.421875 0.5q-0.203125 0.203125 -0.453125 0.34375q-0.25 0.125 -0.5625 0.1875q-0.296875 0.0625 -0.703125 0.0625q-0.4375 0 -0.8125 -0.125q-0.359375 -0.140625 -0.640625 -0.421875q-0.265625 -0.28125 -0.421875 -0.703125q-0.140625 -0.421875 -0.140625 -1.0q0 -1.125 0.71875 -1.65625q0.734375 -0.546875 2.171875 -0.59375l1.125 -0.046875l0 -0.53125q0 -0.4375 -0.25 -0.640625q-0.25 -0.21875 -0.71875 -0.21875q-0.453125 0 -0.890625 0.140625q-0.4375 0.125 -0.875 0.359375l-0.625 -1.296875q0.53125 -0.296875 1.171875 -0.46875q0.65625 -0.171875 1.375 -0.171875q1.328125 0 2.03125 0.625q0.703125 0.625 0.703125 1.890625l0 4.734375l-1.34375 0zm-0.578125 -3.28125l-0.640625 0.015625q-0.390625 0.015625 -0.65625 0.109375q-0.265625 0.078125 -0.4375 0.234375q-0.15625 0.140625 -0.234375 0.359375q-0.0625 0.203125 -0.0625 0.453125q0 0.453125 0.21875 0.640625q0.21875 0.1875 0.5625 0.1875q0.265625 0 0.484375 -0.09375q0.234375 -0.09375 0.40625 -0.265625q0.171875 -0.1875 0.265625 -0.453125q0.09375 -0.265625 0.09375 -0.609375l0 -0.578125zm4.0282593 -5.65625q0 -0.265625 0.078125 -0.4375q0.078125 -0.1875 0.21875 -0.296875q0.15625 -0.109375 0.34375 -0.15625q0.1875 -0.046875 0.40625 -0.046875q0.21875 0 0.40625 0.046875q0.1875 0.046875 0.328125 0.15625q0.15625 0.109375 0.234375 0.296875q0.09375 0.171875 0.09375 0.4375q0 0.265625 -0.09375 0.453125q-0.078125 0.1875 -0.234375 0.296875q-0.140625 0.109375 -0.328125 0.15625q-0.1875 0.046875 -0.40625 0.046875q-0.21875 0 -0.40625 -0.046875q-0.1875 -0.046875 -0.34375 -0.15625q-0.140625 -0.109375 -0.21875 -0.296875q-0.078125 -0.1875 -0.078125 -0.453125zm2.015625 8.9375l-1.9375 0l0 -7.09375l1.9375 0l0 7.09375zm8.286194 0l-1.9375 0l0 -4.140625q0 -0.765625 -0.234375 -1.15625q-0.21875 -0.390625 -0.734375 -0.390625q-0.375 0 -0.640625 0.15625q-0.25 0.15625 -0.40625 0.453125q-0.140625 0.296875 -0.203125 0.734375q-0.0625 0.4375 -0.0625 1.0l0 3.34375l-1.9375 0l0 -7.09375l1.484375 0l0.25 0.90625l0.109375 0q0.15625 -0.28125 0.375 -0.46875q0.21875 -0.203125 0.46875 -0.328125q0.265625 -0.125 0.5625 -0.1875q0.296875 -0.0625 0.59375 -0.0625q0.53125 0 0.953125 0.15625q0.421875 0.140625 0.71875 0.46875q0.3125 0.3125 0.46875 0.8125q0.171875 0.484375 0.171875 1.171875l0 4.625zm5.074829 -5.859375q-0.515625 0 -0.859375 0.375q-0.34375 0.359375 -0.390625 1.125l2.46875 0q0 -0.3125 -0.078125 -0.578125q-0.078125 -0.28125 -0.234375 -0.484375q-0.15625 -0.203125 -0.390625 -0.3125q-0.21875 -0.125 -0.515625 -0.125zm0.234375 5.984375q-0.75 0 -1.390625 -0.21875q-0.640625 -0.21875 -1.109375 -0.671875q-0.46875 -0.453125 -0.734375 -1.125q-0.25 -0.6875 -0.25 -1.609375q0 -0.9375 0.234375 -1.625q0.25 -0.703125 0.671875 -1.171875q0.421875 -0.46875 1.015625 -0.703125q0.59375 -0.234375 1.3125 -0.234375q0.703125 0 1.265625 0.21875q0.578125 0.203125 0.96875 0.625q0.390625 0.40625 0.609375 1.015625q0.21875 0.59375 0.21875 1.375l0 0.9375l-4.328125 0q0 0.40625 0.109375 0.734375q0.125 0.328125 0.34375 0.546875q0.21875 0.21875 0.515625 0.34375q0.296875 0.125 0.6875 0.125q0.328125 0 0.609375 -0.03125q0.296875 -0.046875 0.5625 -0.109375q0.28125 -0.078125 0.546875 -0.171875q0.265625 -0.109375 0.546875 -0.25l0 1.5q-0.265625 0.140625 -0.53125 0.234375q-0.25 0.078125 -0.53125 0.140625q-0.28125 0.0625 -0.609375 0.09375q-0.328125 0.03125 -0.734375 0.03125zm8.338135 -7.359375q0.078125 0 0.171875 0.015625q0.09375 0 0.171875 0.015625q0.078125 0 0.15625 0.015625q0.078125 0 0.109375 0.015625l0 1.8125q-0.046875 -0.015625 -0.140625 -0.015625q-0.078125 -0.015625 -0.1875 -0.03125q-0.09375 -0.015625 -0.1875 -0.015625q-0.09375 0 -0.15625 0q-0.375 0 -0.6875 0.09375q-0.3125 0.09375 -0.546875 0.3125q-0.21875 0.203125 -0.34375 0.5625q-0.125 0.34375 -0.125 0.84375l0 3.609375l-1.9375 0l0 -7.09375l1.46875 0l0.28125 1.0625l0.09375 0q0.15625 -0.265625 0.328125 -0.484375q0.1875 -0.234375 0.40625 -0.390625q0.21875 -0.15625 0.484375 -0.234375q0.28125 -0.09375 0.640625 -0.09375zm11.278931 7.234375l-6.234375 0l0 -1.359375l2.1875 -2.359375q0.40625 -0.453125 0.75 -0.8125q0.34375 -0.375 0.578125 -0.734375q0.234375 -0.359375 0.359375 -0.71875q0.140625 -0.375 0.140625 -0.796875q0 -0.46875 -0.28125 -0.734375q-0.28125 -0.265625 -0.75 -0.265625q-0.5 0 -0.96875 0.25q-0.46875 0.25 -0.96875 0.703125l-1.0625 -1.265625q0.28125 -0.25 0.59375 -0.484375q0.3125 -0.25 0.6875 -0.421875q0.375 -0.1875 0.8125 -0.296875q0.453125 -0.109375 1.015625 -0.109375q0.671875 0 1.203125 0.1875q0.53125 0.171875 0.90625 0.515625q0.375 0.34375 0.5625 0.828125q0.203125 0.46875 0.203125 1.078125q0 0.546875 -0.1875 1.046875q-0.1875 0.5 -0.515625 0.984375q-0.328125 0.46875 -0.765625 0.9375q-0.4375 0.46875 -0.9375 0.96875l-1.109375 1.125l0 0.078125l3.78125 0l0 1.65625z" fill-rule="nonzero"></path><path fill="#000000" d="m818.4063 334.9878q0 -0.796875 0.109375 -1.5625q0.125 -0.765625 0.359375 -1.484375q0.234375 -0.734375 0.59375 -1.40625q0.359375 -0.671875 0.859375 -1.265625l1.578125 0q-0.890625 1.21875 -1.359375 2.6875q-0.453125 1.46875 -0.453125 3.015625q0 0.765625 0.109375 1.515625q0.125 0.734375 0.34375 1.453125q0.234375 0.71875 0.5625 1.390625q0.34375 0.671875 0.78125 1.28125l-1.5625 0q-0.5 -0.578125 -0.859375 -1.234375q-0.359375 -0.65625 -0.59375 -1.359375q-0.234375 -0.71875 -0.359375 -1.484375q-0.109375 -0.765625 -0.109375 -1.546875zm9.9383545 -5.71875l1.984375 0l-2.890625 9.28125l-2.140625 0l-2.890625 -9.28125l1.984375 0l1.578125 5.59375q0.03125 0.09375 0.078125 0.359375q0.0625 0.25 0.125 0.5625q0.0625 0.296875 0.109375 0.609375q0.0625 0.296875 0.09375 0.5q0.03125 -0.203125 0.078125 -0.5q0.0625 -0.3125 0.125 -0.609375q0.0625 -0.3125 0.125 -0.5625q0.0625 -0.25 0.09375 -0.359375l1.546875 -5.59375zm7.097107 9.28125l-2.046875 -7.28125l-0.046875 0q0.03125 0.578125 0.0625 1.125q0 0.234375 0.015625 0.484375q0.015625 0.25 0.015625 0.5q0.015625 0.234375 0.015625 0.453125q0 0.21875 0 0.40625l0 4.3125l-1.75 0l0 -9.28125l2.671875 0l2.015625 7.09375l0.03125 0l2.140625 -7.09375l2.671875 0l0 9.28125l-1.828125 0l0 -4.390625q0 -0.171875 0 -0.375q0 -0.21875 0 -0.453125q0.015625 -0.234375 0.015625 -0.46875q0.015625 -0.234375 0.015625 -0.46875q0.03125 -0.53125 0.046875 -1.109375l-0.046875 0l-2.203125 7.265625l-1.796875 0zm11.154114 -3.5625q0 0.78125 -0.125 1.546875q-0.109375 0.765625 -0.34375 1.484375q-0.234375 0.703125 -0.59375 1.359375q-0.359375 0.65625 -0.859375 1.234375l-1.5625 0q0.4375 -0.609375 0.765625 -1.28125q0.34375 -0.671875 0.5625 -1.390625q0.234375 -0.71875 0.34375 -1.453125q0.125 -0.75 0.125 -1.515625q0 -1.546875 -0.46875 -3.015625q-0.453125 -1.46875 -1.34375 -2.6875l1.578125 0q0.5 0.59375 0.859375 1.265625q0.359375 0.671875 0.59375 1.40625q0.234375 0.71875 0.34375 1.484375q0.125 0.765625 0.125 1.5625z" fill-rule="nonzero"></path><path fill="#efefef" d="m769.9263 519.7332l125.25989 0l0 106.55115l-125.25989 0z" fill-rule="nonzero"></path><path stroke="#980000" stroke-width="3.0" stroke-linejoin="round" stroke-linecap="butt" stroke-dasharray="12.0,9.0" d="m769.9263 519.7332l125.25989 0l0 106.55115l-125.25989 0z" fill-rule="nonzero"></path><path fill="#000000" d="m798.7355 562.0275q-0.5625 0 -1.0 0.21875q-0.4375 0.21875 -0.734375 0.640625q-0.296875 0.40625 -0.453125 1.0q-0.140625 0.578125 -0.140625 1.3125q0 0.734375 0.125 1.3125q0.140625 0.578125 0.421875 0.984375q0.296875 0.390625 0.734375 0.59375q0.4375 0.203125 1.046875 0.203125q0.5625 0 1.125 -0.125q0.578125 -0.125 1.25 -0.359375l0 1.65625q-0.3125 0.125 -0.609375 0.21875q-0.296875 0.078125 -0.609375 0.125q-0.3125 0.0625 -0.640625 0.09375q-0.328125 0.03125 -0.703125 0.03125q-1.0625 0 -1.859375 -0.34375q-0.78125 -0.34375 -1.296875 -0.953125q-0.515625 -0.625 -0.765625 -1.5q-0.25 -0.890625 -0.25 -1.953125q0 -1.0625 0.28125 -1.9375q0.296875 -0.875 0.84375 -1.5q0.5625 -0.640625 1.375 -0.984375q0.8125 -0.359375 1.859375 -0.359375q0.6875 0 1.375 0.171875q0.703125 0.171875 1.34375 0.46875l-0.640625 1.609375q-0.515625 -0.25 -1.046875 -0.4375q-0.515625 -0.1875 -1.03125 -0.1875zm6.008423 4.21875q0 1.0625 0.296875 1.609375q0.296875 0.53125 0.96875 0.53125q0.671875 0 0.96875 -0.53125q0.296875 -0.546875 0.296875 -1.609375q0 -1.0625 -0.296875 -1.578125q-0.296875 -0.53125 -0.96875 -0.53125q-0.671875 0 -0.96875 0.53125q-0.296875 0.515625 -0.296875 1.578125zm4.515625 0q0 0.890625 -0.234375 1.578125q-0.21875 0.6875 -0.640625 1.15625q-0.421875 0.46875 -1.03125 0.71875q-0.609375 0.234375 -1.359375 0.234375q-0.703125 0 -1.296875 -0.234375q-0.59375 -0.25 -1.03125 -0.71875q-0.421875 -0.46875 -0.671875 -1.15625q-0.234375 -0.6875 -0.234375 -1.578125q0 -0.875 0.21875 -1.5625q0.234375 -0.6875 0.65625 -1.15625q0.421875 -0.46875 1.03125 -0.703125q0.609375 -0.25 1.359375 -0.25q0.703125 0 1.296875 0.25q0.59375 0.234375 1.015625 0.703125q0.4375 0.46875 0.671875 1.15625q0.25 0.6875 0.25 1.5625zm8.016418 3.5625l-1.9375 0l0 -4.140625q0 -0.765625 -0.234375 -1.15625q-0.21875 -0.390625 -0.734375 -0.390625q-0.375 0 -0.640625 0.15625q-0.25 0.15625 -0.40625 0.453125q-0.140625 0.296875 -0.203125 0.734375q-0.0625 0.4375 -0.0625 1.0l0 3.34375l-1.9375 0l0 -7.09375l1.484375 0l0.25 0.90625l0.109375 0q0.15625 -0.28125 0.375 -0.46875q0.21875 -0.203125 0.46875 -0.328125q0.265625 -0.125 0.5625 -0.1875q0.296875 -0.0625 0.59375 -0.0625q0.53125 0 0.953125 0.15625q0.421875 0.140625 0.71875 0.46875q0.3125 0.3125 0.46875 0.8125q0.171875 0.484375 0.171875 1.171875l0 4.625zm5.074829 -1.421875q0.296875 0 0.546875 -0.0625q0.265625 -0.0625 0.53125 -0.15625l0 1.4375q-0.28125 0.140625 -0.6875 0.234375q-0.390625 0.09375 -0.875 0.09375q-0.453125 0 -0.859375 -0.109375q-0.40625 -0.109375 -0.703125 -0.375q-0.28125 -0.265625 -0.453125 -0.71875q-0.171875 -0.453125 -0.171875 -1.140625l0 -3.421875l-0.921875 0l0 -0.828125l1.0625 -0.640625l0.5625 -1.5l1.234375 0l0 1.515625l1.734375 0l0 1.453125l-1.734375 0l0 3.421875q0 0.40625 0.203125 0.609375q0.203125 0.1875 0.53125 0.1875zm6.7686768 1.421875l-0.375 -0.96875l-0.0625 0q-0.203125 0.296875 -0.421875 0.5q-0.203125 0.203125 -0.453125 0.34375q-0.25 0.125 -0.5625 0.1875q-0.296875 0.0625 -0.703125 0.0625q-0.4375 0 -0.8125 -0.125q-0.359375 -0.140625 -0.640625 -0.421875q-0.265625 -0.28125 -0.421875 -0.703125q-0.140625 -0.421875 -0.140625 -1.0q0 -1.125 0.71875 -1.65625q0.734375 -0.546875 2.171875 -0.59375l1.125 -0.046875l0 -0.53125q0 -0.4375 -0.25 -0.640625q-0.25 -0.21875 -0.71875 -0.21875q-0.453125 0 -0.890625 0.140625q-0.4375 0.125 -0.875 0.359375l-0.625 -1.296875q0.53125 -0.296875 1.171875 -0.46875q0.65625 -0.171875 1.375 -0.171875q1.328125 0 2.03125 0.625q0.703125 0.625 0.703125 1.890625l0 4.734375l-1.34375 0zm-0.578125 -3.28125l-0.640625 0.015625q-0.390625 0.015625 -0.65625 0.109375q-0.265625 0.078125 -0.4375 0.234375q-0.15625 0.140625 -0.234375 0.359375q-0.0625 0.203125 -0.0625 0.453125q0 0.453125 0.21875 0.640625q0.21875 0.1875 0.5625 0.1875q0.265625 0 0.484375 -0.09375q0.234375 -0.09375 0.40625 -0.265625q0.171875 -0.1875 0.265625 -0.453125q0.09375 -0.265625 0.09375 -0.609375l0 -0.578125zm4.0282593 -5.65625q0 -0.265625 0.078125 -0.4375q0.078125 -0.1875 0.21875 -0.296875q0.15625 -0.109375 0.34375 -0.15625q0.1875 -0.046875 0.40625 -0.046875q0.21875 0 0.40625 0.046875q0.1875 0.046875 0.328125 0.15625q0.15625 0.109375 0.234375 0.296875q0.09375 0.171875 0.09375 0.4375q0 0.265625 -0.09375 0.453125q-0.078125 0.1875 -0.234375 0.296875q-0.140625 0.109375 -0.328125 0.15625q-0.1875 0.046875 -0.40625 0.046875q-0.21875 0 -0.40625 -0.046875q-0.1875 -0.046875 -0.34375 -0.15625q-0.140625 -0.109375 -0.21875 -0.296875q-0.078125 -0.1875 -0.078125 -0.453125zm2.015625 8.9375l-1.9375 0l0 -7.09375l1.9375 0l0 7.09375zm8.286194 0l-1.9375 0l0 -4.140625q0 -0.765625 -0.234375 -1.15625q-0.21875 -0.390625 -0.734375 -0.390625q-0.375 0 -0.640625 0.15625q-0.25 0.15625 -0.40625 0.453125q-0.140625 0.296875 -0.203125 0.734375q-0.0625 0.4375 -0.0625 1.0l0 3.34375l-1.9375 0l0 -7.09375l1.484375 0l0.25 0.90625l0.109375 0q0.15625 -0.28125 0.375 -0.46875q0.21875 -0.203125 0.46875 -0.328125q0.265625 -0.125 0.5625 -0.1875q0.296875 -0.0625 0.59375 -0.0625q0.53125 0 0.953125 0.15625q0.421875 0.140625 0.71875 0.46875q0.3125 0.3125 0.46875 0.8125q0.171875 0.484375 0.171875 1.171875l0 4.625zm5.074829 -5.859375q-0.515625 0 -0.859375 0.375q-0.34375 0.359375 -0.390625 1.125l2.46875 0q0 -0.3125 -0.078125 -0.578125q-0.078125 -0.28125 -0.234375 -0.484375q-0.15625 -0.203125 -0.390625 -0.3125q-0.21875 -0.125 -0.515625 -0.125zm0.234375 5.984375q-0.75 0 -1.390625 -0.21875q-0.640625 -0.21875 -1.109375 -0.671875q-0.46875 -0.453125 -0.734375 -1.125q-0.25 -0.6875 -0.25 -1.609375q0 -0.9375 0.234375 -1.625q0.25 -0.703125 0.671875 -1.171875q0.421875 -0.46875 1.015625 -0.703125q0.59375 -0.234375 1.3125 -0.234375q0.703125 0 1.265625 0.21875q0.578125 0.203125 0.96875 0.625q0.390625 0.40625 0.609375 1.015625q0.21875 0.59375 0.21875 1.375l0 0.9375l-4.328125 0q0 0.40625 0.109375 0.734375q0.125 0.328125 0.34375 0.546875q0.21875 0.21875 0.515625 0.34375q0.296875 0.125 0.6875 0.125q0.328125 0 0.609375 -0.03125q0.296875 -0.046875 0.5625 -0.109375q0.28125 -0.078125 0.546875 -0.171875q0.265625 -0.109375 0.546875 -0.25l0 1.5q-0.265625 0.140625 -0.53125 0.234375q-0.25 0.078125 -0.53125 0.140625q-0.28125 0.0625 -0.609375 0.09375q-0.328125 0.03125 -0.734375 0.03125zm8.338135 -7.359375q0.078125 0 0.171875 0.015625q0.09375 0 0.171875 0.015625q0.078125 0 0.15625 0.015625q0.078125 0 0.109375 0.015625l0 1.8125q-0.046875 -0.015625 -0.140625 -0.015625q-0.078125 -0.015625 -0.1875 -0.03125q-0.09375 -0.015625 -0.1875 -0.015625q-0.09375 0 -0.15625 0q-0.375 0 -0.6875 0.09375q-0.3125 0.09375 -0.546875 0.3125q-0.21875 0.203125 -0.34375 0.5625q-0.125 0.34375 -0.125 0.84375l0 3.609375l-1.9375 0l0 -7.09375l1.46875 0l0.28125 1.0625l0.09375 0q0.15625 -0.265625 0.328125 -0.484375q0.1875 -0.234375 0.40625 -0.390625q0.21875 -0.15625 0.484375 -0.234375q0.28125 -0.09375 0.640625 -0.09375zm13.528931 7.234375l-2.484375 0l-3.65625 -7.015625l-0.046875 0q0.03125 0.484375 0.0625 0.96875q0.015625 0.40625 0.03125 0.859375q0.015625 0.453125 0.015625 0.8125l0 4.375l-1.75 0l0 -9.28125l2.484375 0l3.640625 6.953125l0.03125 0q-0.015625 -0.484375 -0.046875 -0.953125q0 -0.203125 -0.015625 -0.40625q0 -0.21875 -0.015625 -0.421875q0 -0.21875 0 -0.421875q0 -0.203125 0 -0.359375l0 -4.390625l1.75 0l0 9.28125z" fill-rule="nonzero"></path><path fill="#000000" d="m818.4063 582.2463q0 -0.796875 0.109375 -1.5625q0.125 -0.765625 0.359375 -1.484375q0.234375 -0.734375 0.59375 -1.40625q0.359375 -0.671875 0.859375 -1.265625l1.578125 0q-0.890625 1.21875 -1.359375 2.6875q-0.453125 1.46875 -0.453125 3.015625q0 0.765625 0.109375 1.515625q0.125 0.734375 0.34375 1.453125q0.234375 0.71875 0.5625 1.390625q0.34375 0.671875 0.78125 1.28125l-1.5625 0q-0.5 -0.578125 -0.859375 -1.234375q-0.359375 -0.65625 -0.59375 -1.359375q-0.234375 -0.71875 -0.359375 -1.484375q-0.109375 -0.765625 -0.109375 -1.546875zm9.9383545 -5.71875l1.984375 0l-2.890625 9.28125l-2.140625 0l-2.890625 -9.28125l1.984375 0l1.578125 5.59375q0.03125 0.09375 0.078125 0.359375q0.0625 0.25 0.125 0.5625q0.0625 0.296875 0.109375 0.609375q0.0625 0.296875 0.09375 0.5q0.03125 -0.203125 0.078125 -0.5q0.0625 -0.3125 0.125 -0.609375q0.0625 -0.3125 0.125 -0.5625q0.0625 -0.25 0.09375 -0.359375l1.546875 -5.59375zm7.097107 9.28125l-2.046875 -7.28125l-0.046875 0q0.03125 0.578125 0.0625 1.125q0 0.234375 0.015625 0.484375q0.015625 0.25 0.015625 0.5q0.015625 0.234375 0.015625 0.453125q0 0.21875 0 0.40625l0 4.3125l-1.75 0l0 -9.28125l2.671875 0l2.015625 7.09375l0.03125 0l2.140625 -7.09375l2.671875 0l0 9.28125l-1.828125 0l0 -4.390625q0 -0.171875 0 -0.375q0 -0.21875 0 -0.453125q0.015625 -0.234375 0.015625 -0.46875q0.015625 -0.234375 0.015625 -0.46875q0.03125 -0.53125 0.046875 -1.109375l-0.046875 0l-2.203125 7.265625l-1.796875 0zm11.154114 -3.5625q0 0.78125 -0.125 1.546875q-0.109375 0.765625 -0.34375 1.484375q-0.234375 0.703125 -0.59375 1.359375q-0.359375 0.65625 -0.859375 1.234375l-1.5625 0q0.4375 -0.609375 0.765625 -1.28125q0.34375 -0.671875 0.5625 -1.390625q0.234375 -0.71875 0.34375 -1.453125q0.125 -0.75 0.125 -1.515625q0 -1.546875 -0.46875 -3.015625q-0.453125 -1.46875 -1.34375 -2.6875l1.578125 0q0.5 0.59375 0.859375 1.265625q0.359375 0.671875 0.59375 1.40625q0.234375 0.71875 0.34375 1.484375q0.125 0.765625 0.125 1.5625z" fill-rule="nonzero"></path><path fill="#000000" fill-opacity="0.0" d="m797.7442 389.87448l67.30713 0l0 115.55908l-67.30713 0z" fill-rule="nonzero"></path><path fill="#000000" d="m830.16547 416.7945l0 -2.609375l2.609375 0l0 2.609375l-2.609375 0z" fill-rule="nonzero"></path><path fill="#000000" d="m830.16547 438.7945l0 -2.609375l2.609375 0l0 2.609375l-2.609375 0z" fill-rule="nonzero"></path><path fill="#000000" d="m830.16547 460.7945l0 -2.609375l2.609375 0l0 2.609375l-2.609375 0z" fill-rule="nonzero"></path><path fill="#000000" fill-opacity="0.0" d="m585.48535 288.44208l184.44092 -117.22835" fill-rule="nonzero"></path><path stroke="#666666" stroke-width="2.0" stroke-linejoin="round" stroke-linecap="butt" d="m585.48535 288.44208l174.31348 -110.79144" fill-rule="evenodd"></path><path fill="#666666" stroke="#666666" stroke-width="2.0" stroke-linecap="butt" d="m761.5708 180.43863l5.8878784 -7.65654l-9.431946 2.0805664z" fill-rule="evenodd"></path><path fill="#000000" fill-opacity="0.0" d="m584.0365 324.58493l185.88977 1.1653748" fill-rule="nonzero"></path><path stroke="#666666" stroke-width="2.0" stroke-linejoin="round" stroke-linecap="butt" d="m584.03656 324.58493l173.88995 1.0901184" fill-rule="evenodd"></path><path fill="#666666" stroke="#666666" stroke-width="2.0" stroke-linecap="butt" d="m757.90576 328.97845l9.096741 -3.2464905l-9.055298 -3.3602905z" fill-rule="evenodd"></path><path fill="#000000" fill-opacity="0.0" d="m581.1389 486.4891l188.78735 86.519684" fill-rule="nonzero"></path><path stroke="#666666" stroke-width="2.0" stroke-linejoin="round" stroke-linecap="butt" d="m581.1389 486.48914l177.87842 81.5202" fill-rule="evenodd"></path><path fill="#666666" stroke="#666666" stroke-width="2.0" stroke-linecap="butt" d="m757.641 571.01245l9.627319 0.7782593l-6.874695 -6.784485z" fill-rule="evenodd"></path><path fill="#000000" fill-opacity="0.0" d="m510.30008 125.05655c6.747162 19.999771 43.85617 79.75853 40.48288 119.99863c-3.373291 40.24008 -50.602203 101.2016 -60.722626 121.441895" fill-rule="nonzero"></path><path stroke="#000000" stroke-width="2.0" stroke-linejoin="round" stroke-linecap="butt" d="m510.30008 125.05656c6.747101 19.999763 43.85617 79.75852 40.48288 119.99862c-1.6866455 20.120056 -14.337158 45.42044 -27.831177 68.220856c-6.7469482 11.400238 -13.704742 22.175446 -19.608368 31.365631c-2.9518127 4.595093 -5.640045 8.793945 -7.906616 12.476501c-0.5666504 0.9206238 -1.1069031 1.8090515 -1.6183472 2.6632385l-0.42971802 0.723938" fill-rule="evenodd"></path><path fill="#000000" stroke="#000000" stroke-width="2.0" stroke-linecap="butt" d="m493.38873 360.5053l-0.8739624 -3.0583801l-1.0346375 6.494232l4.96698 -4.3098145z" fill-rule="evenodd"></path></g></svg>

