<?xml version="1.0" standalone="yes"?>

<svg version="1.1" viewBox="0.0 0.0 960.0 720.0" fill="none" stroke="none" stroke-linecap="square" stroke-miterlimit="10" xmlns="http://www.w3.org/2000/svg" xmlns:xlink="http://www.w3.org/1999/xlink"><clipPath id="p.0"><path d="m0 0l960.0 0l0 720.0l-960.0 0l0 -720.0z" clip-rule="nonzero"></path></clipPath><g clip-path="url(#p.0)"><path fill="#000000" fill-opacity="0.0" d="m0 0l960.0 0l0 720.0l-960.0 0z" fill-rule="nonzero"></path><path fill="#efefef" d="m241.85284 203.24022l345.60632 0l0 340.15747l-345.60632 0z" fill-rule="nonzero"></path><path stroke="#980000" stroke-width="3.0" stroke-linejoin="round" stroke-linecap="butt" d="m241.85284 203.24022l345.60632 0l0 340.15747l-345.60632 0z" fill-rule="nonzero"></path><path fill="#000000" d="m381.5193 326.85895l-3.625 0l0 -14.109375l-4.296875 0l0 -3.03125l12.203125 0l0 3.03125l-4.28125 0l0 14.109375zm16.703125 0l-1.171875 -4.078125l-5.90625 0l-1.1875 4.078125l-3.671875 0l5.5625 -17.203125l4.453125 0l5.578125 17.203125l-3.65625 0zm-2.015625 -7.125l-1.109375 -3.75q-0.0625 -0.21875 -0.203125 -0.6875q-0.140625 -0.484375 -0.3125 -1.0625q-0.15625 -0.578125 -0.296875 -1.15625q-0.140625 -0.59375 -0.1875 -1.015625q-0.046875 0.265625 -0.125 0.625q-0.078125 0.34375 -0.1875 0.734375q-0.09375 0.390625 -0.203125 0.796875q-0.09375 0.390625 -0.1875 0.75q-0.09375 0.34375 -0.171875 0.625q-0.078125 0.265625 -0.109375 0.390625l-1.09375 3.75l4.1875 0zm22.300781 7.125l-4.59375 0l-6.75 -12.96875l-0.09375 0q0.0625 0.90625 0.109375 1.796875q0.046875 0.765625 0.078125 1.609375q0.03125 0.828125 0.03125 1.5l0 8.0625l-3.25 0l0 -17.140625l4.578125 0l6.734375 12.84375l0.0625 0q-0.03125 -0.890625 -0.078125 -1.765625q-0.015625 -0.375 -0.03125 -0.765625q-0.015625 -0.390625 -0.03125 -0.78125q0 -0.390625 -0.015625 -0.75q0 -0.375 0 -0.671875l0 -8.109375l3.25 0l0 17.140625zm10.828125 -9.625l6.796875 0l0 8.890625q-0.671875 0.21875 -1.375 0.40625q-0.6875 0.171875 -1.4375 0.296875q-0.734375 0.125 -1.546875 0.1875q-0.8125 0.078125 -1.734375 0.078125q-1.921875 0 -3.40625 -0.5625q-1.46875 -0.578125 -2.484375 -1.6875q-1.015625 -1.125 -1.546875 -2.765625q-0.53125 -1.65625 -0.53125 -3.8125q0 -2.015625 0.578125 -3.640625q0.59375 -1.625 1.734375 -2.765625q1.15625 -1.15625 2.8125 -1.765625q1.671875 -0.609375 3.828125 -0.609375q1.375 0 2.6875 0.296875q1.3125 0.28125 2.40625 0.75l-1.203125 2.90625q-0.796875 -0.390625 -1.8125 -0.65625q-1.0 -0.28125 -2.09375 -0.28125q-1.203125 0 -2.15625 0.421875q-0.953125 0.40625 -1.640625 1.171875q-0.671875 0.765625 -1.03125 1.84375q-0.359375 1.078125 -0.359375 2.40625q0 1.265625 0.25 2.3125q0.25 1.046875 0.78125 1.8125q0.546875 0.75 1.390625 1.171875q0.859375 0.421875 2.03125 0.421875q0.78125 0 1.3125 -0.0625q0.53125 -0.078125 1.0 -0.171875l0 -3.5625l-3.25 0l0 -3.03125zm25.488281 1.03125q0 1.984375 -0.46875 3.609375q-0.46875 1.625 -1.421875 2.796875q-0.9375 1.15625 -2.390625 1.796875q-1.4375 0.625 -3.40625 0.625q-1.96875 0 -3.421875 -0.625q-1.453125 -0.640625 -2.390625 -1.796875q-0.9375 -1.171875 -1.40625 -2.796875q-0.46875 -1.640625 -0.46875 -3.625q0 -2.0 0.46875 -3.625q0.46875 -1.625 1.40625 -2.765625q0.953125 -1.15625 2.390625 -1.78125q1.453125 -0.625 3.4375 -0.625q1.96875 0 3.40625 0.625q1.453125 0.625 2.390625 1.78125q0.9375 1.15625 1.40625 2.78125q0.46875 1.625 0.46875 3.625zm-11.625 0q0 1.34375 0.234375 2.421875q0.234375 1.078125 0.71875 1.828125q0.484375 0.734375 1.21875 1.140625q0.734375 0.390625 1.765625 0.390625q1.03125 0 1.78125 -0.390625q0.75 -0.40625 1.21875 -1.140625q0.46875 -0.75 0.703125 -1.828125q0.234375 -1.078125 0.234375 -2.421875q0 -1.34375 -0.234375 -2.40625q-0.234375 -1.078125 -0.703125 -1.828125q-0.46875 -0.75 -1.21875 -1.140625q-0.734375 -0.40625 -1.765625 -0.40625q-1.015625 0 -1.765625 0.40625q-0.75 0.390625 -1.234375 1.140625q-0.484375 0.75 -0.71875 1.828125q-0.234375 1.0625 -0.234375 2.40625z" fill-rule="nonzero"></path><path fill="#000000" fill-opacity="0.0" d="m40.207275 328.30127l199.27559 0" fill-rule="nonzero"></path><path stroke="#000000" stroke-width="2.0" stroke-linejoin="round" stroke-linecap="butt" d="m40.207275 328.30127l187.27559 0" fill-rule="evenodd"></path><path fill="#000000" stroke="#000000" stroke-width="2.0" stroke-linecap="butt" d="m227.48286 331.60474l9.076187 -3.3034668l-9.076187 -3.3034668z" fill-rule="evenodd"></path><path fill="#000000" fill-opacity="0.0" d="m95.149605 282.24677l94.362206 0l0 43.40158l-94.362206 0z" fill-rule="nonzero"></path><path fill="#000000" d="m104.75898 313.72928q-0.4375 0 -0.734375 -0.0625q-0.296875 -0.0625 -0.5 -0.171875l0 -1.375q0.234375 0.09375 0.484375 0.140625q0.25 0.0625 0.578125 0.0625q0.25 0 0.453125 -0.078125q0.21875 -0.0625 0.375 -0.25q0.171875 -0.171875 0.25 -0.484375q0.09375 -0.296875 0.09375 -0.765625l0 -11.765625l1.6875 0l0 11.65625q0 0.71875 -0.15625 1.28125q-0.15625 0.578125 -0.5 0.96875q-0.328125 0.40625 -0.828125 0.625q-0.5 0.21875 -1.203125 0.21875zm0.875 -17.5q0 -0.5625 0.28125 -0.8125q0.28125 -0.25 0.703125 -0.25q0.203125 0 0.375 0.0625q0.1875 0.0625 0.3125 0.1875q0.140625 0.125 0.21875 0.328125q0.078125 0.203125 0.078125 0.484375q0 0.53125 -0.296875 0.796875q-0.28125 0.265625 -0.6875 0.265625q-0.421875 0 -0.703125 -0.25q-0.28125 -0.265625 -0.28125 -0.8125zm13.265533 7.828125q0 1.265625 -0.3125 2.265625q-0.3125 0.984375 -0.890625 1.65625q-0.578125 0.671875 -1.40625 1.03125q-0.828125 0.34375 -1.859375 0.34375q-0.953125 0 -1.765625 -0.34375q-0.796875 -0.359375 -1.390625 -1.03125q-0.59375 -0.671875 -0.921875 -1.65625q-0.328125 -1.0 -0.328125 -2.265625q0 -1.265625 0.3125 -2.234375q0.3125 -0.984375 0.890625 -1.65625q0.578125 -0.671875 1.40625 -1.015625q0.828125 -0.359375 1.859375 -0.359375q0.953125 0 1.75 0.359375q0.8125 0.34375 1.40625 1.015625q0.59375 0.671875 0.921875 1.65625q0.328125 0.96875 0.328125 2.234375zm-7.125 0q0 1.9375 0.625 2.921875q0.640625 0.96875 2.078125 0.96875q1.421875 0 2.046875 -0.96875q0.625 -0.984375 0.625 -2.921875q0 -1.9375 -0.640625 -2.890625q-0.625 -0.96875 -2.0625 -0.96875q-1.421875 0 -2.046875 0.96875q-0.625 0.953125 -0.625 2.890625zm14.189301 -5.265625q0.875 0 1.578125 0.34375q0.7187424 0.328125 1.2187424 1.0q0.515625 0.65625 0.78125 1.640625q0.28125 0.984375 0.28125 2.28125q0 1.3125 -0.28125 2.296875q-0.265625 0.984375 -0.78125 1.65625q-0.5 0.671875 -1.2187424 1.015625q-0.703125 0.328125 -1.578125 0.328125q-0.546875 0 -1.0 -0.125q-0.4375 -0.125 -0.796875 -0.3125q-0.359375 -0.203125 -0.640625 -0.46875q-0.265625 -0.28125 -0.484375 -0.578125l-0.109375 0l-0.34375 1.296875l-1.234375 0l0 -14.4375l1.6875 0l0 3.484375q0 0.328125 -0.015625 0.703125q0 0.359375 -0.015625 0.671875q-0.015625 0.375 -0.03125 0.734375l0.0625 0q0.21875 -0.328125 0.484375 -0.609375q0.265625 -0.28125 0.625 -0.484375q0.359375 -0.203125 0.796875 -0.3125q0.453125 -0.125 1.015625 -0.125zm-0.328125 1.40625q-0.734375 0 -1.234375 0.234375q-0.5 0.234375 -0.8125 0.71875q-0.296875 0.484375 -0.421875 1.203125q-0.125 0.71875 -0.125 1.703125q0 0.9375 0.125 1.671875q0.125 0.71875 0.421875 1.21875q0.3125 0.5 0.8125 0.75q0.5 0.25 1.25 0.25q1.25 0 1.84375 -1.0q0.5937424 -1.015625 0.5937424 -2.90625q0 -1.9375 -0.5937424 -2.890625q-0.59375 -0.953125 -1.859375 -0.953125zm16.480766 8.96875l-1.625 0l0 -8.46875q0 -0.40625 0 -0.859375q0 -0.453125 0.015625 -0.890625q0.015625 -0.453125 0.03125 -0.859375q0.015625 -0.421875 0.015625 -0.734375q-0.15625 0.15625 -0.28125 0.28125q-0.109375 0.125 -0.234375 0.234375q-0.125 0.109375 -0.265625 0.234375q-0.140625 0.125 -0.328125 0.296875l-1.375 1.109375l-0.890625 -1.140625l3.546875 -2.765625l1.390625 0l0 13.5625z" fill-rule="nonzero"></path><path fill="#000000" fill-opacity="0.0" d="m40.207275 428.63196l199.27559 0" fill-rule="nonzero"></path><path stroke="#000000" stroke-width="2.0" stroke-linejoin="round" stroke-linecap="butt" d="m40.207275 428.63196l187.27559 0" fill-rule="evenodd"></path><path fill="#000000" stroke="#000000" stroke-width="2.0" stroke-linecap="butt" d="m227.48286 431.93542l9.076187 -3.3034668l-9.076187 -3.3034363z" fill-rule="evenodd"></path><path fill="#000000" fill-opacity="0.0" d="m97.40035 381.42276l113.73228 0l0 43.40155l-113.73228 0z" fill-rule="nonzero"></path><path fill="#000000" d="m107.00973 412.90524q-0.4375 0 -0.734375 -0.0625q-0.296875 -0.0625 -0.5 -0.171875l0 -1.375q0.234375 0.09375 0.484375 0.140625q0.25 0.0625 0.578125 0.0625q0.25 0 0.453125 -0.078125q0.21875 -0.0625 0.375 -0.25q0.171875 -0.171875 0.25 -0.484375q0.09375 -0.296875 0.09375 -0.765625l0 -11.765625l1.6875 0l0 11.65625q0 0.71875 -0.15625 1.28125q-0.15625 0.578125 -0.5 0.96875q-0.328125 0.40625 -0.828125 0.625q-0.5 0.21875 -1.203125 0.21875zm0.875 -17.5q0 -0.5625 0.28125 -0.8125q0.28125 -0.25 0.703125 -0.25q0.203125 0 0.375 0.0625q0.1875 0.0625 0.3125 0.1875q0.140625 0.125 0.21875 0.328125q0.078125 0.203125 0.078125 0.484375q0 0.53125 -0.296875 0.796875q-0.28125 0.265625 -0.6875 0.265625q-0.421875 0 -0.703125 -0.25q-0.28125 -0.265625 -0.28125 -0.8125zm13.265533 7.828125q0 1.265625 -0.3125 2.265625q-0.3125 0.984375 -0.890625 1.65625q-0.578125 0.671875 -1.40625 1.03125q-0.828125 0.34375 -1.859375 0.34375q-0.953125 0 -1.765625 -0.34375q-0.796875 -0.359375 -1.390625 -1.03125q-0.59375 -0.671875 -0.921875 -1.65625q-0.328125 -1.0 -0.328125 -2.265625q0 -1.265625 0.3125 -2.234375q0.3125 -0.984375 0.890625 -1.65625q0.578125 -0.671875 1.40625 -1.015625q0.828125 -0.359375 1.859375 -0.359375q0.953125 0 1.75 0.359375q0.8125 0.34375 1.40625 1.015625q0.59375 0.671875 0.921875 1.65625q0.328125 0.96875 0.328125 2.234375zm-7.125 0q0 1.9375 0.625 2.921875q0.640625 0.96875 2.078125 0.96875q1.421875 0 2.046875 -0.96875q0.625 -0.984375 0.625 -2.921875q0 -1.9375 -0.640625 -2.890625q-0.625 -0.96875 -2.0625 -0.96875q-1.421875 0 -2.046875 0.96875q-0.625 0.953125 -0.625 2.890625zm14.189293 -5.265625q0.875 0 1.578125 0.34375q0.71875 0.328125 1.21875 1.0q0.515625 0.65625 0.78125 1.640625q0.28125 0.984375 0.28125 2.28125q0 1.3125 -0.28125 2.296875q-0.265625 0.984375 -0.78125 1.65625q-0.5 0.671875 -1.21875 1.015625q-0.703125 0.328125 -1.578125 0.328125q-0.5468674 0 -0.9999924 -0.125q-0.4375 -0.125 -0.796875 -0.3125q-0.359375 -0.203125 -0.640625 -0.46875q-0.265625 -0.28125 -0.484375 -0.578125l-0.109375 0l-0.34375 1.296875l-1.234375 0l0 -14.4375l1.6875 0l0 3.484375q0 0.328125 -0.015625 0.703125q0 0.359375 -0.015625 0.671875q-0.015625 0.375 -0.03125 0.734375l0.0625 0q0.21875 -0.328125 0.484375 -0.609375q0.265625 -0.28125 0.625 -0.484375q0.359375 -0.203125 0.796875 -0.3125q0.453125 -0.125 1.0156174 -0.125zm-0.32811737 1.40625q-0.734375 0 -1.234375 0.234375q-0.5 0.234375 -0.8125 0.71875q-0.296875 0.484375 -0.421875 1.203125q-0.125 0.71875 -0.125 1.703125q0 0.9375 0.125 1.671875q0.125 0.71875 0.421875 1.21875q0.3125 0.5 0.8125 0.75q0.5 0.25 1.25 0.25q1.2499924 0 1.8437424 -1.0q0.59375 -1.015625 0.59375 -2.90625q0 -1.9375 -0.59375 -2.890625q-0.59375 -0.953125 -1.8593674 -0.953125zm19.246391 8.96875l-8.46875 0l0 -1.453125l3.25 -3.53125q0.6875 -0.75 1.234375 -1.375q0.546875 -0.625 0.9375 -1.21875q0.390625 -0.59375 0.59375 -1.1875q0.203125 -0.59375 0.203125 -1.296875q0 -0.546875 -0.15625 -0.96875q-0.15625 -0.421875 -0.453125 -0.703125q-0.296875 -0.296875 -0.703125 -0.4375q-0.390625 -0.15625 -0.875 -0.15625q-0.890625 0 -1.609375 0.359375q-0.703125 0.359375 -1.34375 0.90625l-0.9375 -1.09375q0.375 -0.34375 0.796875 -0.625q0.421875 -0.296875 0.90625 -0.515625q0.5 -0.21875 1.046875 -0.34375q0.546875 -0.125 1.15625 -0.125q0.890625 0 1.609375 0.265625q0.71875 0.25 1.21875 0.71875q0.5 0.453125 0.765625 1.140625q0.28125 0.671875 0.28125 1.515625q0 0.78125 -0.25 1.5q-0.234375 0.71875 -0.671875 1.40625q-0.4375 0.6875 -1.03125 1.390625q-0.59375 0.6875 -1.296875 1.4375l-2.609375 2.78125l0 0.0625l6.40625 0l0 1.546875z" fill-rule="nonzero"></path><path fill="#f6b26b" d="m299.90393 359.21548l232.50397 0l0 58.362213l-232.50397 0z" fill-rule="nonzero"></path><path stroke="#000000" stroke-width="2.0" stroke-linejoin="round" stroke-linecap="butt" stroke-dasharray="2.0,6.0" d="m299.90393 359.21548l232.50397 0l0 58.362213l-232.50397 0z" fill-rule="nonzero"></path><path fill="#000000" d="m377.48404 391.0066l1.359375 -0.1875q0.0625 1.3125 0.5 1.796875q0.4375 0.484375 1.203125 0.484375q0.578125 0 0.984375 -0.265625q0.421875 -0.265625 0.578125 -0.703125q0.15625 -0.453125 0.15625 -1.4375l0 -7.890625l1.515625 0l0 7.796875q0 1.4375 -0.359375 2.234375q-0.34375 0.78125 -1.09375 1.203125q-0.75 0.421875 -1.765625 0.421875q-1.515625 0 -2.3125 -0.875q-0.796875 -0.875 -0.765625 -2.578125zm8.0625 -0.90625q0 -2.296875 1.28125 -3.40625q1.078125 -0.921875 2.609375 -0.921875q1.71875 0 2.796875 1.125q1.09375 1.109375 1.09375 3.09375q0 1.59375 -0.484375 2.515625q-0.484375 0.921875 -1.40625 1.4375q-0.90625 0.5 -2.0 0.5q-1.734375 0 -2.8125 -1.109375q-1.078125 -1.125 -1.078125 -3.234375zm1.453125 0q0 1.59375 0.6875 2.390625q0.703125 0.796875 1.75 0.796875q1.046875 0 1.734375 -0.796875q0.703125 -0.796875 0.703125 -2.4375q0 -1.53125 -0.703125 -2.328125q-0.6875 -0.796875 -1.734375 -0.796875q-1.046875 0 -1.75 0.796875q-0.6875 0.78125 -0.6875 2.375zm9.2734375 4.15625l-1.3125 0l0 -11.453125l1.40625 0l0 4.078125q0.890625 -1.109375 2.28125 -1.109375q0.765625 0 1.4375 0.3125q0.6875 0.296875 1.125 0.859375q0.453125 0.5625 0.703125 1.359375q0.25 0.78125 0.25 1.671875q0 2.140625 -1.0625 3.3125q-1.046875 1.15625 -2.53125 1.15625q-1.46875 0 -2.296875 -1.234375l0 1.046875zm-0.015625 -4.21875q0 1.5 0.40625 2.15625q0.65625 1.09375 1.796875 1.09375q0.921875 0 1.59375 -0.796875q0.671875 -0.8125 0.671875 -2.390625q0 -1.625 -0.65625 -2.390625q-0.640625 -0.78125 -1.546875 -0.78125q-0.921875 0 -1.59375 0.796875q-0.671875 0.796875 -0.671875 2.3125zm20.921875 2.984375q1.046875 0.734375 1.9375 1.0625l-0.4375 1.0625q-1.234375 -0.4375 -2.46875 -1.40625q-1.265625 0.71875 -2.8125 0.71875q-1.546875 0 -2.8125 -0.75q-1.265625 -0.765625 -1.953125 -2.125q-0.6875 -1.359375 -0.6875 -3.0625q0 -1.6875 0.6875 -3.078125q0.6875 -1.390625 1.953125 -2.109375q1.28125 -0.734375 2.84375 -0.734375q1.59375 0 2.859375 0.75q1.28125 0.75 1.9375 2.109375q0.671875 1.359375 0.671875 3.0625q0 1.40625 -0.4375 2.546875q-0.421875 1.125 -1.28125 1.953125zm-3.34375 -1.9375q1.3125 0.375 2.171875 1.09375q1.328125 -1.21875 1.328125 -3.65625q0 -1.390625 -0.46875 -2.421875q-0.46875 -1.046875 -1.390625 -1.625q-0.90625 -0.578125 -2.03125 -0.578125q-1.703125 0 -2.828125 1.171875q-1.109375 1.15625 -1.109375 3.453125q0 2.234375 1.109375 3.4375q1.109375 1.1875 2.828125 1.1875q0.8125 0 1.53125 -0.296875q-0.71875 -0.46875 -1.5 -0.65625l0.359375 -1.109375zm12.3671875 3.171875l0 -1.21875q-0.96875 1.40625 -2.640625 1.40625q-0.734375 0 -1.375 -0.28125q-0.625 -0.28125 -0.9375 -0.703125q-0.3125 -0.4375 -0.4375 -1.046875q-0.078125 -0.421875 -0.078125 -1.3125l0 -5.140625l1.40625 0l0 4.59375q0 1.109375 0.078125 1.484375q0.140625 0.5625 0.5625 0.875q0.4375 0.3125 1.0625 0.3125q0.640625 0 1.1875 -0.3125q0.5625 -0.328125 0.78125 -0.890625q0.234375 -0.5625 0.234375 -1.625l0 -4.4375l1.40625 0l0 8.296875l-1.25 0zm9.1328125 -2.671875l1.453125 0.171875q-0.34375 1.28125 -1.28125 1.984375q-0.921875 0.703125 -2.359375 0.703125q-1.828125 0 -2.890625 -1.125q-1.0625 -1.125 -1.0625 -3.140625q0 -2.09375 1.078125 -3.25q1.078125 -1.15625 2.796875 -1.15625q1.65625 0 2.703125 1.140625q1.0625 1.125 1.0625 3.171875q0 0.125 0 0.375l-6.1875 0q0.078125 1.375 0.765625 2.109375q0.703125 0.71875 1.734375 0.71875q0.78125 0 1.328125 -0.40625q0.546875 -0.40625 0.859375 -1.296875zm-4.609375 -2.28125l4.625 0q-0.09375 -1.046875 -0.53125 -1.5625q-0.671875 -0.8125 -1.734375 -0.8125q-0.96875 0 -1.640625 0.65625q-0.65625 0.640625 -0.71875 1.71875zm13.2734375 4.953125l0 -1.21875q-0.96875 1.40625 -2.640625 1.40625q-0.734375 0 -1.375 -0.28125q-0.625 -0.28125 -0.9375 -0.703125q-0.3125 -0.4375 -0.4375 -1.046875q-0.078125 -0.421875 -0.078125 -1.3125l0 -5.140625l1.40625 0l0 4.59375q0 1.109375 0.078125 1.484375q0.140625 0.5625 0.5625 0.875q0.4375 0.3125 1.0625 0.3125q0.640625 0 1.1875 -0.3125q0.5625 -0.328125 0.78125 -0.890625q0.234375 -0.5625 0.234375 -1.625l0 -4.4375l1.40625 0l0 8.296875l-1.25 0zm9.1328125 -2.671875l1.453125 0.171875q-0.34375 1.28125 -1.28125 1.984375q-0.921875 0.703125 -2.359375 0.703125q-1.828125 0 -2.890625 -1.125q-1.0625 -1.125 -1.0625 -3.140625q0 -2.09375 1.078125 -3.25q1.078125 -1.15625 2.796875 -1.15625q1.65625 0 2.703125 1.140625q1.0625 1.125 1.0625 3.171875q0 0.125 0 0.375l-6.1875 0q0.078125 1.375 0.765625 2.109375q0.703125 0.71875 1.734375 0.71875q0.78125 0 1.328125 -0.40625q0.546875 -0.40625 0.859375 -1.296875zm-4.609375 -2.28125l4.625 0q-0.09375 -1.046875 -0.53125 -1.5625q-0.671875 -0.8125 -1.734375 -0.8125q-0.96875 0 -1.640625 0.65625q-0.65625 0.640625 -0.71875 1.71875z" fill-rule="nonzero"></path><path fill="#000000" fill-opacity="0.0" d="m242.73796 396.71835c3.535736 -7.1787415 11.492584 -40.38022 21.214401 -43.072388c9.721832 -2.6921692 30.93042 22.4328 37.116486 26.919373" fill-rule="nonzero"></path><path stroke="#000000" stroke-width="2.0" stroke-linejoin="round" stroke-linecap="butt" d="m242.73796 396.71835c3.5357208 -7.1787415 11.4925995 -40.38022 21.214401 -43.072357c4.8609314 -1.3460999 12.593536 4.262085 19.884155 10.767639c3.6453247 3.252777 7.1801453 6.7298584 10.190277 9.674194c0.37625122 0.368042 0.74432373 0.7277527 1.103363 1.0776978l0.8417053 0.8171997" fill-rule="evenodd"></path><path fill="#000000" stroke="#000000" stroke-width="2.0" stroke-linecap="butt" d="m295.97186 375.98273l-3.1763306 0.16879272l6.0990906 2.4589844l-3.0915527 -5.8041077z" fill-rule="evenodd"></path><path fill="#efefef" d="m784.05206 109.06036l131.55908 0l0 111.87402l-131.55908 0z" fill-rule="nonzero"></path><path stroke="#980000" stroke-width="3.0" stroke-linejoin="round" stroke-linecap="butt" stroke-dasharray="12.0,9.0" d="m784.05206 109.06036l131.55908 0l0 111.87402l-131.55908 0z" fill-rule="nonzero"></path><path fill="#000000" d="m801.16315 162.01613q-0.5625 0 -1.0 0.21875q-0.4375 0.21875 -0.734375 0.640625q-0.296875 0.40625 -0.453125 1.0q-0.140625 0.578125 -0.140625 1.3125q0 0.734375 0.125 1.3125q0.140625 0.578125 0.421875 0.984375q0.296875 0.390625 0.734375 0.59375q0.4375 0.203125 1.046875 0.203125q0.5625 0 1.125 -0.125q0.578125 -0.125 1.25 -0.359375l0 1.65625q-0.3125 0.125 -0.609375 0.21875q-0.296875 0.078125 -0.609375 0.125q-0.3125 0.0625 -0.640625 0.09375q-0.328125 0.03125 -0.703125 0.03125q-1.0625 0 -1.859375 -0.34375q-0.78125 -0.34375 -1.296875 -0.953125q-0.515625 -0.625 -0.765625 -1.5q-0.25 -0.890625 -0.25 -1.953125q0 -1.0625 0.28125 -1.9375q0.296875 -0.875 0.84375 -1.5q0.5625 -0.640625 1.375 -0.984375q0.8125 -0.359375 1.859375 -0.359375q0.6875 0 1.375 0.171875q0.703125 0.171875 1.34375 0.46875l-0.640625 1.609375q-0.515625 -0.25 -1.046875 -0.4375q-0.515625 -0.1875 -1.03125 -0.1875zm6.008423 4.21875q0 1.0625 0.296875 1.609375q0.296875 0.53125 0.96875 0.53125q0.671875 0 0.96875 -0.53125q0.296875 -0.546875 0.296875 -1.609375q0 -1.0625 -0.296875 -1.578125q-0.296875 -0.53125 -0.96875 -0.53125q-0.671875 0 -0.96875 0.53125q-0.296875 0.515625 -0.296875 1.578125zm4.515625 0q0 0.890625 -0.234375 1.578125q-0.21875 0.6875 -0.640625 1.15625q-0.421875 0.46875 -1.03125 0.71875q-0.609375 0.234375 -1.359375 0.234375q-0.703125 0 -1.296875 -0.234375q-0.59375 -0.25 -1.03125 -0.71875q-0.421875 -0.46875 -0.671875 -1.15625q-0.234375 -0.6875 -0.234375 -1.578125q0 -0.875 0.21875 -1.5625q0.234375 -0.6875 0.65625 -1.15625q0.421875 -0.46875 1.03125 -0.703125q0.609375 -0.25 1.359375 -0.25q0.703125 0 1.296875 0.25q0.59375 0.234375 1.015625 0.703125q0.4375 0.46875 0.671875 1.15625q0.25 0.6875 0.25 1.5625zm8.016418 3.5625l-1.9375 0l0 -4.140625q0 -0.765625 -0.234375 -1.15625q-0.21875 -0.390625 -0.734375 -0.390625q-0.375 0 -0.640625 0.15625q-0.25 0.15625 -0.40625 0.453125q-0.140625 0.296875 -0.203125 0.734375q-0.0625 0.4375 -0.0625 1.0l0 3.34375l-1.9375 0l0 -7.09375l1.484375 0l0.25 0.90625l0.109375 0q0.15625 -0.28125 0.375 -0.46875q0.21875 -0.203125 0.46875 -0.328125q0.265625 -0.125 0.5625 -0.1875q0.296875 -0.0625 0.59375 -0.0625q0.53125 0 0.953125 0.15625q0.421875 0.140625 0.71875 0.46875q0.3125 0.3125 0.46875 0.8125q0.171875 0.484375 0.171875 1.171875l0 4.625zm5.074829 -1.421875q0.296875 0 0.546875 -0.0625q0.265625 -0.0625 0.53125 -0.15625l0 1.4375q-0.28125 0.140625 -0.6875 0.234375q-0.390625 0.09375 -0.875 0.09375q-0.453125 0 -0.859375 -0.109375q-0.40625 -0.109375 -0.703125 -0.375q-0.28125 -0.265625 -0.453125 -0.71875q-0.171875 -0.453125 -0.171875 -1.140625l0 -3.421875l-0.921875 0l0 -0.828125l1.0625 -0.640625l0.5625 -1.5l1.234375 0l0 1.515625l1.734375 0l0 1.453125l-1.734375 0l0 3.421875q0 0.40625 0.203125 0.609375q0.203125 0.1875 0.53125 0.1875zm6.7686768 1.421875l-0.375 -0.96875l-0.0625 0q-0.203125 0.296875 -0.421875 0.5q-0.203125 0.203125 -0.453125 0.34375q-0.25 0.125 -0.5625 0.1875q-0.296875 0.0625 -0.703125 0.0625q-0.4375 0 -0.8125 -0.125q-0.359375 -0.140625 -0.640625 -0.421875q-0.265625 -0.28125 -0.421875 -0.703125q-0.140625 -0.421875 -0.140625 -1.0q0 -1.125 0.71875 -1.65625q0.734375 -0.546875 2.171875 -0.59375l1.125 -0.046875l0 -0.53125q0 -0.4375 -0.25 -0.640625q-0.25 -0.21875 -0.71875 -0.21875q-0.453125 0 -0.890625 0.140625q-0.4375 0.125 -0.875 0.359375l-0.625 -1.296875q0.53125 -0.296875 1.171875 -0.46875q0.65625 -0.171875 1.375 -0.171875q1.328125 0 2.03125 0.625q0.703125 0.625 0.703125 1.890625l0 4.734375l-1.34375 0zm-0.578125 -3.28125l-0.640625 0.015625q-0.390625 0.015625 -0.65625 0.109375q-0.265625 0.078125 -0.4375 0.234375q-0.15625 0.140625 -0.234375 0.359375q-0.0625 0.203125 -0.0625 0.453125q0 0.453125 0.21875 0.640625q0.21875 0.1875 0.5625 0.1875q0.265625 0 0.484375 -0.09375q0.234375 -0.09375 0.40625 -0.265625q0.171875 -0.1875 0.265625 -0.453125q0.09375 -0.265625 0.09375 -0.609375l0 -0.578125zm4.0282593 -5.65625q0 -0.265625 0.078125 -0.4375q0.078125 -0.1875 0.21875 -0.296875q0.15625 -0.109375 0.34375 -0.15625q0.1875 -0.046875 0.40625 -0.046875q0.21875 0 0.40625 0.046875q0.1875 0.046875 0.328125 0.15625q0.15625 0.109375 0.234375 0.296875q0.09375 0.171875 0.09375 0.4375q0 0.265625 -0.09375 0.453125q-0.078125 0.1875 -0.234375 0.296875q-0.140625 0.109375 -0.328125 0.15625q-0.1875 0.046875 -0.40625 0.046875q-0.21875 0 -0.40625 -0.046875q-0.1875 -0.046875 -0.34375 -0.15625q-0.140625 -0.109375 -0.21875 -0.296875q-0.078125 -0.1875 -0.078125 -0.453125zm2.015625 8.9375l-1.9375 0l0 -7.09375l1.9375 0l0 7.09375zm8.286194 0l-1.9375 0l0 -4.140625q0 -0.765625 -0.234375 -1.15625q-0.21875 -0.390625 -0.734375 -0.390625q-0.375 0 -0.640625 0.15625q-0.25 0.15625 -0.40625 0.453125q-0.140625 0.296875 -0.203125 0.734375q-0.0625 0.4375 -0.0625 1.0l0 3.34375l-1.9375 0l0 -7.09375l1.484375 0l0.25 0.90625l0.109375 0q0.15625 -0.28125 0.375 -0.46875q0.21875 -0.203125 0.46875 -0.328125q0.265625 -0.125 0.5625 -0.1875q0.296875 -0.0625 0.59375 -0.0625q0.53125 0 0.953125 0.15625q0.421875 0.140625 0.71875 0.46875q0.3125 0.3125 0.46875 0.8125q0.171875 0.484375 0.171875 1.171875l0 4.625zm5.074829 -5.859375q-0.515625 0 -0.859375 0.375q-0.34375 0.359375 -0.390625 1.125l2.46875 0q0 -0.3125 -0.078125 -0.578125q-0.078125 -0.28125 -0.234375 -0.484375q-0.15625 -0.203125 -0.390625 -0.3125q-0.21875 -0.125 -0.515625 -0.125zm0.234375 5.984375q-0.75 0 -1.390625 -0.21875q-0.640625 -0.21875 -1.109375 -0.671875q-0.46875 -0.453125 -0.734375 -1.125q-0.25 -0.6875 -0.25 -1.609375q0 -0.9375 0.234375 -1.625q0.25 -0.703125 0.671875 -1.171875q0.421875 -0.46875 1.015625 -0.703125q0.59375 -0.234375 1.3125 -0.234375q0.703125 0 1.265625 0.21875q0.578125 0.203125 0.96875 0.625q0.390625 0.40625 0.609375 1.015625q0.21875 0.59375 0.21875 1.375l0 0.9375l-4.328125 0q0 0.40625 0.109375 0.734375q0.125 0.328125 0.34375 0.546875q0.21875 0.21875 0.515625 0.34375q0.296875 0.125 0.6875 0.125q0.328125 0 0.609375 -0.03125q0.296875 -0.046875 0.5625 -0.109375q0.28125 -0.078125 0.546875 -0.171875q0.265625 -0.109375 0.546875 -0.25l0 1.5q-0.265625 0.140625 -0.53125 0.234375q-0.25 0.078125 -0.53125 0.140625q-0.28125 0.0625 -0.609375 0.09375q-0.328125 0.03125 -0.734375 0.03125zm8.338135 -7.359375q0.078125 0 0.171875 0.015625q0.09375 0 0.171875 0.015625q0.078125 0 0.15625 0.015625q0.078125 0 0.109375 0.015625l0 1.8125q-0.046875 -0.015625 -0.140625 -0.015625q-0.078125 -0.015625 -0.1875 -0.03125q-0.09375 -0.015625 -0.1875 -0.015625q-0.09375 0 -0.15625 0q-0.375 0 -0.6875 0.09375q-0.3125 0.09375 -0.546875 0.3125q-0.21875 0.203125 -0.34375 0.5625q-0.125 0.34375 -0.125 0.84375l0 3.609375l-1.9375 0l0 -7.09375l1.46875 0l0.28125 1.0625l0.09375 0q0.15625 -0.265625 0.328125 -0.484375q0.1875 -0.234375 0.40625 -0.390625q0.21875 -0.15625 0.484375 -0.234375q0.28125 -0.09375 0.640625 -0.09375zm9.716431 7.234375l-1.96875 0l0 -5.375q0 -0.15625 0 -0.390625q0.015625 -0.234375 0.015625 -0.484375q0.015625 -0.25 0.015625 -0.5q0.015625 -0.265625 0.03125 -0.46875q-0.03125 0.046875 -0.109375 0.125q-0.078125 0.0625 -0.171875 0.15625q-0.09375 0.09375 -0.203125 0.1875q-0.09375 0.09375 -0.1875 0.171875l-1.078125 0.859375l-0.953125 -1.1875l3.0 -2.375l1.609375 0l0 9.28125zm6.1312256 -3.5625q0 -0.796875 0.109375 -1.5625q0.125 -0.765625 0.359375 -1.484375q0.234375 -0.734375 0.59375 -1.40625q0.359375 -0.671875 0.859375 -1.265625l1.578125 0q-0.890625 1.21875 -1.359375 2.6875q-0.453125 1.46875 -0.453125 3.015625q0 0.765625 0.109375 1.515625q0.125 0.734375 0.34375 1.453125q0.234375 0.71875 0.5625 1.390625q0.34375 0.671875 0.78125 1.28125l-1.5625 0q-0.5 -0.578125 -0.859375 -1.234375q-0.359375 -0.65625 -0.59375 -1.359375q-0.234375 -0.71875 -0.359375 -1.484375q-0.109375 -0.765625 -0.109375 -1.546875zm9.9383545 -5.71875l1.984375 0l-2.890625 9.28125l-2.140625 0l-2.890625 -9.28125l1.984375 0l1.578125 5.59375q0.03125 0.09375 0.078125 0.359375q0.0625 0.25 0.125 0.5625q0.0625 0.296875 0.109375 0.609375q0.0625 0.296875 0.09375 0.5q0.03125 -0.203125 0.078125 -0.5q0.0625 -0.3125 0.125 -0.609375q0.0625 -0.3125 0.125 -0.5625q0.0625 -0.25 0.09375 -0.359375l1.546875 -5.59375zm7.097046 9.28125l-2.046875 -7.28125l-0.046875 0q0.03125 0.578125 0.0625 1.125q0 0.234375 0.015625 0.484375q0.015625 0.25 0.015625 0.5q0.015625 0.234375 0.015625 0.453125q0 0.21875 0 0.40625l0 4.3125l-1.75 0l0 -9.28125l2.671875 0l2.015625 7.09375l0.03125 0l2.140625 -7.09375l2.671875 0l0 9.28125l-1.828125 0l0 -4.390625q0 -0.171875 0 -0.375q0 -0.21875 0 -0.453125q0.015625 -0.234375 0.015625 -0.46875q0.015625 -0.234375 0.015625 -0.46875q0.03125 -0.53125 0.046875 -1.109375l-0.046875 0l-2.203125 7.265625l-1.796875 0zm11.154114 -3.5625q0 0.78125 -0.125 1.546875q-0.109375 0.765625 -0.34375 1.484375q-0.234375 0.703125 -0.59375 1.359375q-0.359375 0.65625 -0.859375 1.234375l-1.5625 0q0.4375 -0.609375 0.765625 -1.28125q0.34375 -0.671875 0.5625 -1.390625q0.234375 -0.71875 0.34375 -1.453125q0.125 -0.75 0.125 -1.515625q0 -1.546875 -0.46875 -3.015625q-0.453125 -1.46875 -1.34375 -2.6875l1.578125 0q0.5 0.59375 0.859375 1.265625q0.359375 0.671875 0.59375 1.40625q0.234375 0.71875 0.34375 1.484375q0.125 0.765625 0.125 1.5625z" fill-rule="nonzero"></path><path fill="#efefef" d="m784.05206 271.36966l131.55908 0l0 111.87402l-131.55908 0z" fill-rule="nonzero"></path><path stroke="#980000" stroke-width="3.0" stroke-linejoin="round" stroke-linecap="butt" stroke-dasharray="12.0,9.0" d="m784.05206 271.36966l131.55908 0l0 111.87402l-131.55908 0z" fill-rule="nonzero"></path><path fill="#000000" d="m801.16315 324.3254q-0.5625 0 -1.0 0.21875q-0.4375 0.21875 -0.734375 0.640625q-0.296875 0.40625 -0.453125 1.0q-0.140625 0.578125 -0.140625 1.3125q0 0.734375 0.125 1.3125q0.140625 0.578125 0.421875 0.984375q0.296875 0.390625 0.734375 0.59375q0.4375 0.203125 1.046875 0.203125q0.5625 0 1.125 -0.125q0.578125 -0.125 1.25 -0.359375l0 1.65625q-0.3125 0.125 -0.609375 0.21875q-0.296875 0.078125 -0.609375 0.125q-0.3125 0.0625 -0.640625 0.09375q-0.328125 0.03125 -0.703125 0.03125q-1.0625 0 -1.859375 -0.34375q-0.78125 -0.34375 -1.296875 -0.953125q-0.515625 -0.625 -0.765625 -1.5q-0.25 -0.890625 -0.25 -1.953125q0 -1.0625 0.28125 -1.9375q0.296875 -0.875 0.84375 -1.5q0.5625 -0.640625 1.375 -0.984375q0.8125 -0.359375 1.859375 -0.359375q0.6875 0 1.375 0.171875q0.703125 0.171875 1.34375 0.46875l-0.640625 1.609375q-0.515625 -0.25 -1.046875 -0.4375q-0.515625 -0.1875 -1.03125 -0.1875zm6.008423 4.21875q0 1.0625 0.296875 1.609375q0.296875 0.53125 0.96875 0.53125q0.671875 0 0.96875 -0.53125q0.296875 -0.546875 0.296875 -1.609375q0 -1.0625 -0.296875 -1.578125q-0.296875 -0.53125 -0.96875 -0.53125q-0.671875 0 -0.96875 0.53125q-0.296875 0.515625 -0.296875 1.578125zm4.515625 0q0 0.890625 -0.234375 1.578125q-0.21875 0.6875 -0.640625 1.15625q-0.421875 0.46875 -1.03125 0.71875q-0.609375 0.234375 -1.359375 0.234375q-0.703125 0 -1.296875 -0.234375q-0.59375 -0.25 -1.03125 -0.71875q-0.421875 -0.46875 -0.671875 -1.15625q-0.234375 -0.6875 -0.234375 -1.578125q0 -0.875 0.21875 -1.5625q0.234375 -0.6875 0.65625 -1.15625q0.421875 -0.46875 1.03125 -0.703125q0.609375 -0.25 1.359375 -0.25q0.703125 0 1.296875 0.25q0.59375 0.234375 1.015625 0.703125q0.4375 0.46875 0.671875 1.15625q0.25 0.6875 0.25 1.5625zm8.016418 3.5625l-1.9375 0l0 -4.140625q0 -0.765625 -0.234375 -1.15625q-0.21875 -0.390625 -0.734375 -0.390625q-0.375 0 -0.640625 0.15625q-0.25 0.15625 -0.40625 0.453125q-0.140625 0.296875 -0.203125 0.734375q-0.0625 0.4375 -0.0625 1.0l0 3.34375l-1.9375 0l0 -7.09375l1.484375 0l0.25 0.90625l0.109375 0q0.15625 -0.28125 0.375 -0.46875q0.21875 -0.203125 0.46875 -0.328125q0.265625 -0.125 0.5625 -0.1875q0.296875 -0.0625 0.59375 -0.0625q0.53125 0 0.953125 0.15625q0.421875 0.140625 0.71875 0.46875q0.3125 0.3125 0.46875 0.8125q0.171875 0.484375 0.171875 1.171875l0 4.625zm5.074829 -1.421875q0.296875 0 0.546875 -0.0625q0.265625 -0.0625 0.53125 -0.15625l0 1.4375q-0.28125 0.140625 -0.6875 0.234375q-0.390625 0.09375 -0.875 0.09375q-0.453125 0 -0.859375 -0.109375q-0.40625 -0.109375 -0.703125 -0.375q-0.28125 -0.265625 -0.453125 -0.71875q-0.171875 -0.453125 -0.171875 -1.140625l0 -3.421875l-0.921875 0l0 -0.828125l1.0625 -0.640625l0.5625 -1.5l1.234375 0l0 1.515625l1.734375 0l0 1.453125l-1.734375 0l0 3.421875q0 0.40625 0.203125 0.609375q0.203125 0.1875 0.53125 0.1875zm6.7686768 1.421875l-0.375 -0.96875l-0.0625 0q-0.203125 0.296875 -0.421875 0.5q-0.203125 0.203125 -0.453125 0.34375q-0.25 0.125 -0.5625 0.1875q-0.296875 0.0625 -0.703125 0.0625q-0.4375 0 -0.8125 -0.125q-0.359375 -0.140625 -0.640625 -0.421875q-0.265625 -0.28125 -0.421875 -0.703125q-0.140625 -0.421875 -0.140625 -1.0q0 -1.125 0.71875 -1.65625q0.734375 -0.546875 2.171875 -0.59375l1.125 -0.046875l0 -0.53125q0 -0.4375 -0.25 -0.640625q-0.25 -0.21875 -0.71875 -0.21875q-0.453125 0 -0.890625 0.140625q-0.4375 0.125 -0.875 0.359375l-0.625 -1.296875q0.53125 -0.296875 1.171875 -0.46875q0.65625 -0.171875 1.375 -0.171875q1.328125 0 2.03125 0.625q0.703125 0.625 0.703125 1.890625l0 4.734375l-1.34375 0zm-0.578125 -3.28125l-0.640625 0.015625q-0.390625 0.015625 -0.65625 0.109375q-0.265625 0.078125 -0.4375 0.234375q-0.15625 0.140625 -0.234375 0.359375q-0.0625 0.203125 -0.0625 0.453125q0 0.453125 0.21875 0.640625q0.21875 0.1875 0.5625 0.1875q0.265625 0 0.484375 -0.09375q0.234375 -0.09375 0.40625 -0.265625q0.171875 -0.1875 0.265625 -0.453125q0.09375 -0.265625 0.09375 -0.609375l0 -0.578125zm4.0282593 -5.65625q0 -0.265625 0.078125 -0.4375q0.078125 -0.1875 0.21875 -0.296875q0.15625 -0.109375 0.34375 -0.15625q0.1875 -0.046875 0.40625 -0.046875q0.21875 0 0.40625 0.046875q0.1875 0.046875 0.328125 0.15625q0.15625 0.109375 0.234375 0.296875q0.09375 0.171875 0.09375 0.4375q0 0.265625 -0.09375 0.453125q-0.078125 0.1875 -0.234375 0.296875q-0.140625 0.109375 -0.328125 0.15625q-0.1875 0.046875 -0.40625 0.046875q-0.21875 0 -0.40625 -0.046875q-0.1875 -0.046875 -0.34375 -0.15625q-0.140625 -0.109375 -0.21875 -0.296875q-0.078125 -0.1875 -0.078125 -0.453125zm2.015625 8.9375l-1.9375 0l0 -7.09375l1.9375 0l0 7.09375zm8.286194 0l-1.9375 0l0 -4.140625q0 -0.765625 -0.234375 -1.15625q-0.21875 -0.390625 -0.734375 -0.390625q-0.375 0 -0.640625 0.15625q-0.25 0.15625 -0.40625 0.453125q-0.140625 0.296875 -0.203125 0.734375q-0.0625 0.4375 -0.0625 1.0l0 3.34375l-1.9375 0l0 -7.09375l1.484375 0l0.25 0.90625l0.109375 0q0.15625 -0.28125 0.375 -0.46875q0.21875 -0.203125 0.46875 -0.328125q0.265625 -0.125 0.5625 -0.1875q0.296875 -0.0625 0.59375 -0.0625q0.53125 0 0.953125 0.15625q0.421875 0.140625 0.71875 0.46875q0.3125 0.3125 0.46875 0.8125q0.171875 0.484375 0.171875 1.171875l0 4.625zm5.074829 -5.859375q-0.515625 0 -0.859375 0.375q-0.34375 0.359375 -0.390625 1.125l2.46875 0q0 -0.3125 -0.078125 -0.578125q-0.078125 -0.28125 -0.234375 -0.484375q-0.15625 -0.203125 -0.390625 -0.3125q-0.21875 -0.125 -0.515625 -0.125zm0.234375 5.984375q-0.75 0 -1.390625 -0.21875q-0.640625 -0.21875 -1.109375 -0.671875q-0.46875 -0.453125 -0.734375 -1.125q-0.25 -0.6875 -0.25 -1.609375q0 -0.9375 0.234375 -1.625q0.25 -0.703125 0.671875 -1.171875q0.421875 -0.46875 1.015625 -0.703125q0.59375 -0.234375 1.3125 -0.234375q0.703125 0 1.265625 0.21875q0.578125 0.203125 0.96875 0.625q0.390625 0.40625 0.609375 1.015625q0.21875 0.59375 0.21875 1.375l0 0.9375l-4.328125 0q0 0.40625 0.109375 0.734375q0.125 0.328125 0.34375 0.546875q0.21875 0.21875 0.515625 0.34375q0.296875 0.125 0.6875 0.125q0.328125 0 0.609375 -0.03125q0.296875 -0.046875 0.5625 -0.109375q0.28125 -0.078125 0.546875 -0.171875q0.265625 -0.109375 0.546875 -0.25l0 1.5q-0.265625 0.140625 -0.53125 0.234375q-0.25 0.078125 -0.53125 0.140625q-0.28125 0.0625 -0.609375 0.09375q-0.328125 0.03125 -0.734375 0.03125zm8.338135 -7.359375q0.078125 0 0.171875 0.015625q0.09375 0 0.171875 0.015625q0.078125 0 0.15625 0.015625q0.078125 0 0.109375 0.015625l0 1.8125q-0.046875 -0.015625 -0.140625 -0.015625q-0.078125 -0.015625 -0.1875 -0.03125q-0.09375 -0.015625 -0.1875 -0.015625q-0.09375 0 -0.15625 0q-0.375 0 -0.6875 0.09375q-0.3125 0.09375 -0.546875 0.3125q-0.21875 0.203125 -0.34375 0.5625q-0.125 0.34375 -0.125 0.84375l0 3.609375l-1.9375 0l0 -7.09375l1.46875 0l0.28125 1.0625l0.09375 0q0.15625 -0.265625 0.328125 -0.484375q0.1875 -0.234375 0.40625 -0.390625q0.21875 -0.15625 0.484375 -0.234375q0.28125 -0.09375 0.640625 -0.09375zm11.278931 7.234375l-6.234375 0l0 -1.359375l2.1875 -2.359375q0.40625 -0.453125 0.75 -0.8125q0.34375 -0.375 0.578125 -0.734375q0.234375 -0.359375 0.359375 -0.71875q0.140625 -0.375 0.140625 -0.796875q0 -0.46875 -0.28125 -0.734375q-0.28125 -0.265625 -0.75 -0.265625q-0.5 0 -0.96875 0.25q-0.46875 0.25 -0.96875 0.703125l-1.0625 -1.265625q0.28125 -0.25 0.59375 -0.484375q0.3125 -0.25 0.6875 -0.421875q0.375 -0.1875 0.8125 -0.296875q0.453125 -0.109375 1.015625 -0.109375q0.671875 0 1.203125 0.1875q0.53125 0.171875 0.90625 0.515625q0.375 0.34375 0.5625 0.828125q0.203125 0.46875 0.203125 1.078125q0 0.546875 -0.1875 1.046875q-0.1875 0.5 -0.515625 0.984375q-0.328125 0.46875 -0.765625 0.9375q-0.4375 0.46875 -0.9375 0.96875l-1.109375 1.125l0 0.078125l3.78125 0l0 1.65625zm4.5687256 -3.5625q0 -0.796875 0.109375 -1.5625q0.125 -0.765625 0.359375 -1.484375q0.234375 -0.734375 0.59375 -1.40625q0.359375 -0.671875 0.859375 -1.265625l1.578125 0q-0.890625 1.21875 -1.359375 2.6875q-0.453125 1.46875 -0.453125 3.015625q0 0.765625 0.109375 1.515625q0.125 0.734375 0.34375 1.453125q0.234375 0.71875 0.5625 1.390625q0.34375 0.671875 0.78125 1.28125l-1.5625 0q-0.5 -0.578125 -0.859375 -1.234375q-0.359375 -0.65625 -0.59375 -1.359375q-0.234375 -0.71875 -0.359375 -1.484375q-0.109375 -0.765625 -0.109375 -1.546875zm9.9383545 -5.71875l1.984375 0l-2.890625 9.28125l-2.140625 0l-2.890625 -9.28125l1.984375 0l1.578125 5.59375q0.03125 0.09375 0.078125 0.359375q0.0625 0.25 0.125 0.5625q0.0625 0.296875 0.109375 0.609375q0.0625 0.296875 0.09375 0.5q0.03125 -0.203125 0.078125 -0.5q0.0625 -0.3125 0.125 -0.609375q0.0625 -0.3125 0.125 -0.5625q0.0625 -0.25 0.09375 -0.359375l1.546875 -5.59375zm7.097046 9.28125l-2.046875 -7.28125l-0.046875 0q0.03125 0.578125 0.0625 1.125q0 0.234375 0.015625 0.484375q0.015625 0.25 0.015625 0.5q0.015625 0.234375 0.015625 0.453125q0 0.21875 0 0.40625l0 4.3125l-1.75 0l0 -9.28125l2.671875 0l2.015625 7.09375l0.03125 0l2.140625 -7.09375l2.671875 0l0 9.28125l-1.828125 0l0 -4.390625q0 -0.171875 0 -0.375q0 -0.21875 0 -0.453125q0.015625 -0.234375 0.015625 -0.46875q0.015625 -0.234375 0.015625 -0.46875q0.03125 -0.53125 0.046875 -1.109375l-0.046875 0l-2.203125 7.265625l-1.796875 0zm11.154114 -3.5625q0 0.78125 -0.125 1.546875q-0.109375 0.765625 -0.34375 1.484375q-0.234375 0.703125 -0.59375 1.359375q-0.359375 0.65625 -0.859375 1.234375l-1.5625 0q0.4375 -0.609375 0.765625 -1.28125q0.34375 -0.671875 0.5625 -1.390625q0.234375 -0.71875 0.34375 -1.453125q0.125 -0.75 0.125 -1.515625q0 -1.546875 -0.46875 -3.015625q-0.453125 -1.46875 -1.34375 -2.6875l1.578125 0q0.5 0.59375 0.859375 1.265625q0.359375 0.671875 0.59375 1.40625q0.234375 0.71875 0.34375 1.484375q0.125 0.765625 0.125 1.5625z" fill-rule="nonzero"></path><path fill="#efefef" d="m784.05206 531.0645l131.55908 0l0 111.87402l-131.55908 0z" fill-rule="nonzero"></path><path stroke="#980000" stroke-width="3.0" stroke-linejoin="round" stroke-linecap="butt" stroke-dasharray="12.0,9.0" d="m784.05206 531.0645l131.55908 0l0 111.87402l-131.55908 0z" fill-rule="nonzero"></path><path fill="#000000" d="m799.61426 584.02026q-0.5625 0 -1.0 0.21875q-0.4375 0.21875 -0.734375 0.640625q-0.296875 0.40625 -0.453125 1.0q-0.140625 0.578125 -0.140625 1.3125q0 0.734375 0.125 1.3125q0.140625 0.578125 0.421875 0.984375q0.296875 0.390625 0.734375 0.59375q0.4375 0.203125 1.046875 0.203125q0.5625 0 1.125 -0.125q0.578125 -0.125 1.25 -0.359375l0 1.65625q-0.3125 0.125 -0.609375 0.21875q-0.296875 0.078125 -0.609375 0.125q-0.3125 0.0625 -0.640625 0.09375q-0.328125 0.03125 -0.703125 0.03125q-1.0625 0 -1.859375 -0.34375q-0.78125 -0.34375 -1.296875 -0.953125q-0.515625 -0.625 -0.765625 -1.5q-0.25 -0.890625 -0.25 -1.953125q0 -1.0625 0.28125 -1.9375q0.296875 -0.875 0.84375 -1.5q0.5625 -0.640625 1.375 -0.984375q0.8125 -0.359375 1.859375 -0.359375q0.6875 0 1.375 0.171875q0.703125 0.171875 1.34375 0.46875l-0.640625 1.609375q-0.515625 -0.25 -1.046875 -0.4375q-0.515625 -0.1875 -1.03125 -0.1875zm6.008423 4.21875q0 1.0625 0.296875 1.609375q0.296875 0.53125 0.96875 0.53125q0.671875 0 0.96875 -0.53125q0.296875 -0.546875 0.296875 -1.609375q0 -1.0625 -0.296875 -1.578125q-0.296875 -0.53125 -0.96875 -0.53125q-0.671875 0 -0.96875 0.53125q-0.296875 0.515625 -0.296875 1.578125zm4.515625 0q0 0.890625 -0.234375 1.578125q-0.21875 0.6875 -0.640625 1.15625q-0.421875 0.46875 -1.03125 0.71875q-0.609375 0.234375 -1.359375 0.234375q-0.703125 0 -1.296875 -0.234375q-0.59375 -0.25 -1.03125 -0.71875q-0.421875 -0.46875 -0.671875 -1.15625q-0.234375 -0.6875 -0.234375 -1.578125q0 -0.875 0.21875 -1.5625q0.234375 -0.6875 0.65625 -1.15625q0.421875 -0.46875 1.03125 -0.703125q0.609375 -0.25 1.359375 -0.25q0.703125 0 1.296875 0.25q0.59375 0.234375 1.015625 0.703125q0.4375 0.46875 0.671875 1.15625q0.25 0.6875 0.25 1.5625zm8.016418 3.5625l-1.9375 0l0 -4.140625q0 -0.765625 -0.234375 -1.15625q-0.21875 -0.390625 -0.734375 -0.390625q-0.375 0 -0.640625 0.15625q-0.25 0.15625 -0.40625 0.453125q-0.140625 0.296875 -0.203125 0.734375q-0.0625 0.4375 -0.0625 1.0l0 3.34375l-1.9375 0l0 -7.09375l1.484375 0l0.25 0.90625l0.109375 0q0.15625 -0.28125 0.375 -0.46875q0.21875 -0.203125 0.46875 -0.328125q0.265625 -0.125 0.5625 -0.1875q0.296875 -0.0625 0.59375 -0.0625q0.53125 0 0.953125 0.15625q0.421875 0.140625 0.71875 0.46875q0.3125 0.3125 0.46875 0.8125q0.171875 0.484375 0.171875 1.171875l0 4.625zm5.074829 -1.421875q0.296875 0 0.546875 -0.0625q0.265625 -0.0625 0.53125 -0.15625l0 1.4375q-0.28125 0.140625 -0.6875 0.234375q-0.390625 0.09375 -0.875 0.09375q-0.453125 0 -0.859375 -0.109375q-0.40625 -0.109375 -0.703125 -0.375q-0.28125 -0.265625 -0.453125 -0.71875q-0.171875 -0.453125 -0.171875 -1.140625l0 -3.421875l-0.921875 0l0 -0.828125l1.0625 -0.640625l0.5625 -1.5l1.234375 0l0 1.515625l1.734375 0l0 1.453125l-1.734375 0l0 3.421875q0 0.40625 0.203125 0.609375q0.203125 0.1875 0.53125 0.1875zm6.7686768 1.421875l-0.375 -0.96875l-0.0625 0q-0.203125 0.296875 -0.421875 0.5q-0.203125 0.203125 -0.453125 0.34375q-0.25 0.125 -0.5625 0.1875q-0.296875 0.0625 -0.703125 0.0625q-0.4375 0 -0.8125 -0.125q-0.359375 -0.140625 -0.640625 -0.421875q-0.265625 -0.28125 -0.421875 -0.703125q-0.140625 -0.421875 -0.140625 -1.0q0 -1.125 0.71875 -1.65625q0.734375 -0.546875 2.171875 -0.59375l1.125 -0.046875l0 -0.53125q0 -0.4375 -0.25 -0.640625q-0.25 -0.21875 -0.71875 -0.21875q-0.453125 0 -0.890625 0.140625q-0.4375 0.125 -0.875 0.359375l-0.625 -1.296875q0.53125 -0.296875 1.171875 -0.46875q0.65625 -0.171875 1.375 -0.171875q1.328125 0 2.03125 0.625q0.703125 0.625 0.703125 1.890625l0 4.734375l-1.34375 0zm-0.578125 -3.28125l-0.640625 0.015625q-0.390625 0.015625 -0.65625 0.109375q-0.265625 0.078125 -0.4375 0.234375q-0.15625 0.140625 -0.234375 0.359375q-0.0625 0.203125 -0.0625 0.453125q0 0.453125 0.21875 0.640625q0.21875 0.1875 0.5625 0.1875q0.265625 0 0.484375 -0.09375q0.234375 -0.09375 0.40625 -0.265625q0.171875 -0.1875 0.265625 -0.453125q0.09375 -0.265625 0.09375 -0.609375l0 -0.578125zm4.0282593 -5.65625q0 -0.265625 0.078125 -0.4375q0.078125 -0.1875 0.21875 -0.296875q0.15625 -0.109375 0.34375 -0.15625q0.1875 -0.046875 0.40625 -0.046875q0.21875 0 0.40625 0.046875q0.1875 0.046875 0.328125 0.15625q0.15625 0.109375 0.234375 0.296875q0.09375 0.171875 0.09375 0.4375q0 0.265625 -0.09375 0.453125q-0.078125 0.1875 -0.234375 0.296875q-0.140625 0.109375 -0.328125 0.15625q-0.1875 0.046875 -0.40625 0.046875q-0.21875 0 -0.40625 -0.046875q-0.1875 -0.046875 -0.34375 -0.15625q-0.140625 -0.109375 -0.21875 -0.296875q-0.078125 -0.1875 -0.078125 -0.453125zm2.015625 8.9375l-1.9375 0l0 -7.09375l1.9375 0l0 7.09375zm8.286194 0l-1.9375 0l0 -4.140625q0 -0.765625 -0.234375 -1.15625q-0.21875 -0.390625 -0.734375 -0.390625q-0.375 0 -0.640625 0.15625q-0.25 0.15625 -0.40625 0.453125q-0.140625 0.296875 -0.203125 0.734375q-0.0625 0.4375 -0.0625 1.0l0 3.34375l-1.9375 0l0 -7.09375l1.484375 0l0.25 0.90625l0.109375 0q0.15625 -0.28125 0.375 -0.46875q0.21875 -0.203125 0.46875 -0.328125q0.265625 -0.125 0.5625 -0.1875q0.296875 -0.0625 0.59375 -0.0625q0.53125 0 0.953125 0.15625q0.421875 0.140625 0.71875 0.46875q0.3125 0.3125 0.46875 0.8125q0.171875 0.484375 0.171875 1.171875l0 4.625zm5.07489 -5.859375q-0.515625 0 -0.859375 0.375q-0.34375 0.359375 -0.390625 1.125l2.46875 0q0 -0.3125 -0.078125 -0.578125q-0.078125 -0.28125 -0.234375 -0.484375q-0.15625 -0.203125 -0.390625 -0.3125q-0.21875 -0.125 -0.515625 -0.125zm0.234375 5.984375q-0.75 0 -1.390625 -0.21875q-0.640625 -0.21875 -1.109375 -0.671875q-0.46875 -0.453125 -0.734375 -1.125q-0.25 -0.6875 -0.25 -1.609375q0 -0.9375 0.234375 -1.625q0.25 -0.703125 0.671875 -1.171875q0.421875 -0.46875 1.015625 -0.703125q0.59375 -0.234375 1.3125 -0.234375q0.703125 0 1.265625 0.21875q0.578125 0.203125 0.96875 0.625q0.390625 0.40625 0.609375 1.015625q0.21875 0.59375 0.21875 1.375l0 0.9375l-4.328125 0q0 0.40625 0.109375 0.734375q0.125 0.328125 0.34375 0.546875q0.21875 0.21875 0.515625 0.34375q0.296875 0.125 0.6875 0.125q0.328125 0 0.609375 -0.03125q0.296875 -0.046875 0.5625 -0.109375q0.28125 -0.078125 0.546875 -0.171875q0.265625 -0.109375 0.546875 -0.25l0 1.5q-0.265625 0.140625 -0.53125 0.234375q-0.25 0.078125 -0.53125 0.140625q-0.28125 0.0625 -0.609375 0.09375q-0.328125 0.03125 -0.734375 0.03125zm8.338074 -7.359375q0.078125 0 0.171875 0.015625q0.09375 0 0.171875 0.015625q0.078125 0 0.15625 0.015625q0.078125 0 0.109375 0.015625l0 1.8125q-0.046875 -0.015625 -0.140625 -0.015625q-0.078125 -0.015625 -0.1875 -0.03125q-0.09375 -0.015625 -0.1875 -0.015625q-0.09375 0 -0.15625 0q-0.375 0 -0.6875 0.09375q-0.3125 0.09375 -0.546875 0.3125q-0.21875 0.203125 -0.34375 0.5625q-0.125 0.34375 -0.125 0.84375l0 3.609375l-1.9375 0l0 -7.09375l1.46875 0l0.28125 1.0625l0.09375 0q0.15625 -0.265625 0.328125 -0.484375q0.1875 -0.234375 0.40625 -0.390625q0.21875 -0.15625 0.484375 -0.234375q0.28125 -0.09375 0.640625 -0.09375zm13.528992 7.234375l-2.484375 0l-3.65625 -7.015625l-0.046875 0q0.03125 0.484375 0.0625 0.96875q0.015625 0.40625 0.03125 0.859375q0.015625 0.453125 0.015625 0.8125l0 4.375l-1.75 0l0 -9.28125l2.484375 0l3.640625 6.953125l0.03125 0q-0.015625 -0.484375 -0.046875 -0.953125q0 -0.203125 -0.015625 -0.40625q0 -0.21875 -0.015625 -0.421875q0 -0.21875 0 -0.421875q0 -0.203125 0 -0.359375l0 -4.390625l1.75 0l0 9.28125zm5.416443 -3.5625q0 -0.796875 0.109375 -1.5625q0.125 -0.765625 0.359375 -1.484375q0.234375 -0.734375 0.59375 -1.40625q0.359375 -0.671875 0.859375 -1.265625l1.578125 0q-0.890625 1.21875 -1.359375 2.6875q-0.453125 1.46875 -0.453125 3.015625q0 0.765625 0.109375 1.515625q0.125 0.734375 0.34375 1.453125q0.234375 0.71875 0.5625 1.390625q0.34375 0.671875 0.78125 1.28125l-1.5625 0q-0.5 -0.578125 -0.859375 -1.234375q-0.359375 -0.65625 -0.59375 -1.359375q-0.234375 -0.71875 -0.359375 -1.484375q-0.109375 -0.765625 -0.109375 -1.546875zm9.938293 -5.71875l1.984375 0l-2.890625 9.28125l-2.140625 0l-2.890625 -9.28125l1.984375 0l1.578125 5.59375q0.03125 0.09375 0.078125 0.359375q0.0625 0.25 0.125 0.5625q0.0625 0.296875 0.109375 0.609375q0.0625 0.296875 0.09375 0.5q0.03125 -0.203125 0.078125 -0.5q0.0625 -0.3125 0.125 -0.609375q0.0625 -0.3125 0.125 -0.5625q0.0625 -0.25 0.09375 -0.359375l1.546875 -5.59375zm7.097107 9.28125l-2.046875 -7.28125l-0.046875 0q0.03125 0.578125 0.0625 1.125q0 0.234375 0.015625 0.484375q0.015625 0.25 0.015625 0.5q0.015625 0.234375 0.015625 0.453125q0 0.21875 0 0.40625l0 4.3125l-1.75 0l0 -9.28125l2.671875 0l2.015625 7.09375l0.03125 0l2.140625 -7.09375l2.671875 0l0 9.28125l-1.828125 0l0 -4.390625q0 -0.171875 0 -0.375q0 -0.21875 0 -0.453125q0.015625 -0.234375 0.015625 -0.46875q0.015625 -0.234375 0.015625 -0.46875q0.03125 -0.53125 0.046875 -1.109375l-0.046875 0l-2.203125 7.265625l-1.796875 0zm11.154114 -3.5625q0 0.78125 -0.125 1.546875q-0.109375 0.765625 -0.34375 1.484375q-0.234375 0.703125 -0.59375 1.359375q-0.359375 0.65625 -0.859375 1.234375l-1.5625 0q0.4375 -0.609375 0.765625 -1.28125q0.34375 -0.671875 0.5625 -1.390625q0.234375 -0.71875 0.34375 -1.453125q0.125 -0.75 0.125 -1.515625q0 -1.546875 -0.46875 -3.015625q-0.453125 -1.46875 -1.34375 -2.6875l1.578125 0q0.5 0.59375 0.859375 1.265625q0.359375 0.671875 0.59375 1.40625q0.234375 0.71875 0.34375 1.484375q0.125 0.765625 0.125 1.5625z" fill-rule="nonzero"></path><path fill="#000000" fill-opacity="0.0" d="m813.26917 394.67432l70.677185 0l0 121.35431l-70.677185 0z" fill-rule="nonzero"></path><path fill="#000000" d="m847.3755 421.5943l0 -2.609375l2.609375 0l0 2.609375l-2.609375 0z" fill-rule="nonzero"></path><path fill="#000000" d="m847.3755 443.5943l0 -2.609375l2.609375 0l0 2.609375l-2.609375 0z" fill-rule="nonzero"></path><path fill="#000000" d="m847.3755 465.5943l0 -2.609375l2.609375 0l0 2.609375l-2.609375 0z" fill-rule="nonzero"></path><path fill="#000000" fill-opacity="0.0" d="m588.808 259.2651l195.24408 -94.26773" fill-rule="nonzero"></path><path stroke="#666666" stroke-width="2.0" stroke-linejoin="round" stroke-linecap="butt" d="m588.808 259.2651l184.43774 -89.0502" fill-rule="evenodd"></path><path fill="#666666" stroke="#666666" stroke-width="2.0" stroke-linecap="butt" d="m774.68207 173.18977l6.7370605 -6.9211426l-9.609741 0.971405z" fill-rule="evenodd"></path><path fill="#000000" fill-opacity="0.0" d="m588.808 326.0783l195.24408 1.228363" fill-rule="nonzero"></path><path stroke="#666666" stroke-width="2.0" stroke-linejoin="round" stroke-linecap="butt" d="m588.808 326.0783l183.24432 1.1528625" fill-rule="evenodd"></path><path fill="#666666" stroke="#666666" stroke-width="2.0" stroke-linecap="butt" d="m772.03156 330.53455l9.096802 -3.2462769l-9.055237 -3.3605042z" fill-rule="evenodd"></path><path fill="#000000" fill-opacity="0.0" d="m585.78436 496.13538l198.2677 90.86615" fill-rule="nonzero"></path><path stroke="#666666" stroke-width="2.0" stroke-linejoin="round" stroke-linecap="butt" d="m585.78436 496.13538l187.35883 85.86658" fill-rule="evenodd"></path><path fill="#666666" stroke="#666666" stroke-width="2.0" stroke-linecap="butt" d="m771.76685 585.00507l9.627258 0.7783203l-6.874634 -6.784546z" fill-rule="evenodd"></path><path fill="#000000" fill-opacity="0.0" d="m533.3752 385.89944c3.5359497 -7.178955 11.723145 -33.864105 21.215576 -43.07373c9.492493 -9.209625 29.782654 -10.153381 35.739197 -12.1840515" fill-rule="nonzero"></path><path stroke="#000000" stroke-width="2.0" stroke-linejoin="round" stroke-linecap="butt" d="m533.3752 385.89944c3.5359497 -7.1789856 11.723145 -33.864105 21.215637 -43.07373c4.746216 -4.604828 12.191895 -7.1431885 19.195496 -8.784149c3.501892 -0.8204651 6.8932495 -1.416626 9.781372 -1.9345703l0.064086914 -0.0115356445" fill-rule="evenodd"></path><path fill="#000000" stroke="#000000" stroke-width="2.0" stroke-linecap="butt" d="m583.6318 332.09546l-1.7209473 2.6750488l5.5618896 -3.5086975l-6.515991 -0.8872986z" fill-rule="evenodd"></path></g></svg>

