<?xml version="1.0" encoding="utf-8"?>
<!-- Generator: Adobe Illustrator 21.0.0, SVG Export Plug-In . SVG Version: 6.00 Build 0)  -->
<svg version="1.1" id="Layer_1" xmlns="http://www.w3.org/2000/svg" xmlns:xlink="http://www.w3.org/1999/xlink" x="0px" y="0px"
	 viewBox="0 0 48.9 48.9" style="enable-background:new 0 0 48.9 48.9;" xml:space="preserve">
<style type="text/css">
	.st0{fill:#B50B0B;}
</style>
<path id="XMLID_32_" class="st0" d="M46.5,24.4c0-4.1-1.1-8.1-3.2-11.4l-2.8,3.7c1.1,2.3,1.8,5,1.8,7.9v0.1
	c0,9.3-6.6,16.7-15.9,16.7c-1.6,0-3.4-0.3-4.8-0.8l-2.5,3.2c2.1,0.8,4.6,1.4,7.2,1.4c12.2,0,20.2-9.8,20.2-20.8
	C46.5,24.5,46.5,24.5,46.5,24.4z"/>
<path id="XMLID_33_" class="st0" d="M10.3,24.5v-0.1c0-9.3,6.6-16.7,15.9-16.7c4.1,0,7.7,1.5,10.4,3.9l2.8-3.1
	C36,5.6,31.6,3.8,26.3,3.8c-12.2,0-20.2,9.8-20.2,20.8v0.1c0,0.3,0,0.5,0,0.8l4.8,3.8C10.5,27.8,10.3,26.2,10.3,24.5z"/>
<polygon id="XMLID_2_" class="st0" points="3.6,24.8 16.6,35.2 43.3,5.9 45.8,7.9 17.1,44.4 0.9,26.8 "/>
</svg>
